<svg id="Behance" xmlns="http://www.w3.org/2000/svg" width="32.734" height="20.458" viewBox="0 0 32.734 20.458">
  <g id="Group_272" data-name="Group 272" transform="translate(0 0)">
    <g id="Group_260" data-name="Group 260" transform="translate(0 0)">
      <path id="Path_404" data-name="Path 404" d="M-1.309-1.923a4.855,4.855,0,0,1-2.05.351H-8.271V-6.894H-3.29a5.181,5.181,0,0,1,2.022.338A2.14,2.14,0,0,1,.02-4.414a2.508,2.508,0,0,1-1.33,2.491M-8.271-14.6h4.4a7.747,7.747,0,0,1,2.392.312A1.789,1.789,0,0,1-.389-12.442a1.878,1.878,0,0,1-.822,1.75,4.115,4.115,0,0,1-2.14.5h-4.92ZM1.164-8.817A4.858,4.858,0,0,0,2.707-9.952a4.4,4.4,0,0,0,.936-2.939,5.036,5.036,0,0,0-.928-3.046Q1.17-18.011-2.527-18.064H-12.3V1.892h9.115A14.206,14.206,0,0,0-.33,1.624a5.611,5.611,0,0,0,2.285-1A5.533,5.533,0,0,0,3.386-.949a5.756,5.756,0,0,0,.9-3.182A5.234,5.234,0,0,0,3.5-7.055,4.54,4.54,0,0,0,1.164-8.817" transform="translate(12.303 18.064)" fill="#3f3d56"/>
    </g>
    <path id="Path_405" data-name="Path 405" d="M32.076-21.854H23.408v2.483h8.668Z" transform="translate(-2.491 22.785)" fill="#3f3d56"/>
    <g id="Group_261" data-name="Group 261" transform="translate(17.896 4.806)">
      <path id="Path_406" data-name="Path 406" d="M-.48-.752A3.99,3.99,0,0,1,.563-3.036,3.132,3.132,0,0,1,2.9-3.879a3.476,3.476,0,0,1,2.323.793A3.229,3.229,0,0,1,6.262-.752ZM9-4.187A6.027,6.027,0,0,0,6.414-6.37,8.61,8.61,0,0,0,2.9-7.063,7.278,7.278,0,0,0-2.453-5.016,7.939,7.939,0,0,0-4.512.867q0,4.091,2.284,5.907A8.205,8.205,0,0,0,3.04,8.59,7.327,7.327,0,0,0,8.667,6.439a4.827,4.827,0,0,0,1.449-2.668H6.123a3.21,3.21,0,0,1-.807,1.016,3.342,3.342,0,0,1-2.169.676A4.01,4.01,0,0,1,.991,4.906,3.529,3.529,0,0,1-.577,1.794h10.9a18.7,18.7,0,0,0-.131-2.929A7.131,7.131,0,0,0,9-4.187" transform="translate(4.512 7.063)" fill="#3f3d56"/>
    </g>
  </g>
</svg>
