<svg id="Dribbble" xmlns="http://www.w3.org/2000/svg" width="26.581" height="26.581" viewBox="0 0 26.581 26.581">
  <g id="Group_271" data-name="Group 271" transform="translate(0 0)">
    <g id="Group_257" data-name="Group 257" transform="translate(0 0)">
      <path id="Path_402" data-name="Path 402" d="M-6.354-4.863c-.081-.194-.161-.389-.246-.584C-6.836-6-7.091-6.554-7.355-7.094a14.6,14.6,0,0,0,6.324-4.491A11.3,11.3,0,0,1,1.55-4.491a26.27,26.27,0,0,0-7.9-.372m2.9,9.9a49.017,49.017,0,0,0-2.21-8.106,16.454,16.454,0,0,1,7.074.5,11.351,11.351,0,0,1-4.864,7.61M-9.8,6.973a11.3,11.3,0,0,1-7.086-2.487c-.041-.031-.088-.069-.146-.115.057.046.105.084.146.115l.109.083S-14.6-.174-7.866-2.521c.025-.009.051-.015.076-.023A47.223,47.223,0,0,1-5.365,6.073a11.308,11.308,0,0,1-4.43.9m-8.443-3.766a11.307,11.307,0,0,1-2.908-7.586c0-.12.007-.238.009-.357A41.629,41.629,0,0,0-9.485-6.354c.325.636.636,1.284.92,1.93-.15.041-.3.086-.447.136A17.953,17.953,0,0,0-18.243,3.2s0,0,0,.007m3.6-17.848A67.907,67.907,0,0,1-10.424-8.1,42.005,42.005,0,0,1-20.9-6.716a11.351,11.351,0,0,1,6.264-7.925m2.124-.757a.009.009,0,0,1,0,0l-.034.006a.215.215,0,0,0,.036-.009m2.72-.33a11.3,11.3,0,0,1,7.5,2.833c-.028.043-1.644,2.5-5.93,4.109a57.752,57.752,0,0,0-4.241-6.621,11.341,11.341,0,0,1,2.676-.32M2.448-9.551a13.124,13.124,0,0,0-1.226-2.257A13.281,13.281,0,0,0-.4-13.774,13.31,13.31,0,0,0-2.366-15.4a13.228,13.228,0,0,0-2.257-1.226,13.322,13.322,0,0,0-2.5-.774A13.321,13.321,0,0,0-9.8-17.668a13.326,13.326,0,0,0-2.677.272,13.322,13.322,0,0,0-2.5.774A13.33,13.33,0,0,0-17.229-15.4,13.406,13.406,0,0,0-19.2-13.774a13.423,13.423,0,0,0-1.621,1.966,13.121,13.121,0,0,0-1.225,2.257,13.249,13.249,0,0,0-.777,2.5,13.4,13.4,0,0,0-.269,2.674A13.434,13.434,0,0,0-22.818-1.7,13.211,13.211,0,0,0-22.041.8a13.141,13.141,0,0,0,1.225,2.259A13.538,13.538,0,0,0-19.2,5.021a13.583,13.583,0,0,0,1.966,1.621A13.323,13.323,0,0,0-14.97,7.867a13.112,13.112,0,0,0,2.5.774A13.222,13.222,0,0,0-9.8,8.913a13.216,13.216,0,0,0,2.675-.272,13.112,13.112,0,0,0,2.5-.774A13.221,13.221,0,0,0-2.366,6.642,13.484,13.484,0,0,0-.4,5.021,13.394,13.394,0,0,0,1.222,3.055,13.144,13.144,0,0,0,2.448.8a13.317,13.317,0,0,0,.777-2.5,13.434,13.434,0,0,0,.269-2.679,13.4,13.4,0,0,0-.269-2.674,13.355,13.355,0,0,0-.777-2.5" transform="translate(23.087 17.668)" fill="#3f3d56"/>
    </g>
  </g>
</svg>
