<svg id="Group_6" data-name="Group 6" xmlns="http://www.w3.org/2000/svg" xmlns:xlink="http://www.w3.org/1999/xlink" width="624.726" height="520.43" viewBox="0 0 624.726 520.43">
  <defs>
    <linearGradient id="linear-gradient" x1="0.488" y1="-0.522" x2="1.486" y2="-0.522" gradientUnits="objectBoundingBox">
      <stop offset="0" stop-color="gray" stop-opacity="0.251"/>
      <stop offset="0.54" stop-color="gray" stop-opacity="0.122"/>
      <stop offset="1" stop-color="gray" stop-opacity="0.102"/>
    </linearGradient>
  </defs>
  <path id="Path_113" data-name="Path 113" d="M306.6,76.888c-32.113-1.142-62.737-11.465-91.922-22.831s-58.171-23.923-89.489-29.929c-20.151-3.871-43.231-4.417-59.461,6.4C50.095,40.953,45.032,58.871,42.3,75.547c-2.035,12.557-3.226,25.71,2.382,37.473,3.871,8.14,10.77,14.989,15.585,22.832C76.9,163,65.134,196.5,47.117,223.009c-8.438,12.458-18.216,24.32-24.767,37.573s-9.53,28.44-3.822,41.94c5.658,13.4,19.109,23.427,33.7,30.525,29.631,14.394,64.524,18.464,98.572,20.8,75.344,5.162,151.134,2.928,226.677.695,27.944-.844,56.036-1.688,83.533-6.006,15.287-2.382,31.071-6.2,42.139-15.387,14.1-11.664,17.57-31.468,8.14-46.11-15.833-24.569-59.56-30.674-70.629-57.029-6.1-14.493.149-30.674,9.033-44.124,18.96-28.887,50.775-54.2,52.463-87.206,1.142-22.683-14.146-45.365-37.771-56.086-24.767-11.217-59.163-9.827-77.428,8.785C368.048,70.485,334.942,77.88,306.6,76.888Z" transform="translate(25.534 12.619)" fill="#38d39f" opacity="0.1"/>
  <g id="abffebd3-2ac6-4c6b-a0d4-e62621854ed7_1_" transform="translate(106.171 57.279)" opacity="0.6">
    <path id="Path_114" data-name="Path 114" d="M219.9,209.432s-19.019-33.681-47.651-43.363a58.653,58.653,0,0,1-29.669-22.2A103.165,103.165,0,0,1,133.8,128.1" transform="translate(-113.312 -75.234)" fill="none" stroke="#535461" stroke-miterlimit="10" stroke-width="2"/>
    <path id="Path_115" data-name="Path 115" d="M106.751,112.739c3.251,3.181,18.466,6.432,18.466,6.432s-3.735-15.077-6.985-18.258a8.216,8.216,0,0,0-11.619,11.619c0,.069.069.138.138.208Z" transform="translate(-104.175 -66.097)" fill="#38d39f"/>
    <path id="Path_116" data-name="Path 116" d="M117.349,151.311c4.426.9,19.019-4.634,19.019-4.634s-11.342-10.651-15.768-11.55a8.243,8.243,0,0,0-9.682,6.5,8.112,8.112,0,0,0,6.432,9.682Z" transform="translate(-106.197 -77.351)" fill="#38d39f"/>
    <path id="Path_117" data-name="Path 117" d="M160.617,194.2c4.288-1.452,14.039-13.555,14.039-13.555s-15.146-3.458-19.434-2.006a8.235,8.235,0,1,0,5.394,15.561Z" transform="translate(-118.205 -90.711)" fill="#38d39f"/>
    <path id="Path_118" data-name="Path 118" d="M202.754,218.628c4.5-.761,16.183-11,16.183-11s-14.316-5.948-18.811-5.256a8.232,8.232,0,0,0,2.628,16.252Z" transform="translate(-131.64 -98.123)" fill="#38d39f"/>
    <path id="Path_119" data-name="Path 119" d="M158.76,131.23c0,4.565-8.23,17.7-8.23,17.7s-8.23-13.14-8.23-17.7a8.23,8.23,0,0,1,16.46,0Z" transform="translate(-115.933 -73.661)" fill="#38d39f"/>
    <path id="Path_120" data-name="Path 120" d="M207.168,159.531c-1.383,4.357-13.14,14.454-13.14,14.454s-3.942-15.077-2.559-19.365a8.225,8.225,0,0,1,15.7,4.91Z" transform="translate(-131.006 -81.629)" fill="#38d39f"/>
    <path id="Path_121" data-name="Path 121" d="M249.9,195.133c-.622,4.5-10.512,16.46-10.512,16.46s-6.432-14.178-5.809-18.673a8.236,8.236,0,1,1,16.322,2.213Z" transform="translate(-144.071 -93.025)" fill="#38d39f"/>
    <path id="Path_122" data-name="Path 122" d="M106.751,112.739c3.251,3.181,18.466,6.432,18.466,6.432s-3.735-15.077-6.985-18.258a8.216,8.216,0,0,0-11.619,11.619c0,.069.069.138.138.208Z" transform="translate(-104.175 -66.097)" opacity="0.25"/>
    <path id="Path_123" data-name="Path 123" d="M117.349,151.311c4.426.9,19.019-4.634,19.019-4.634s-11.342-10.651-15.768-11.55a8.243,8.243,0,0,0-9.682,6.5,8.112,8.112,0,0,0,6.432,9.682Z" transform="translate(-106.197 -77.351)" opacity="0.25"/>
    <path id="Path_124" data-name="Path 124" d="M160.617,194.2c4.288-1.452,14.039-13.555,14.039-13.555s-15.146-3.458-19.434-2.006a8.235,8.235,0,1,0,5.394,15.561Z" transform="translate(-118.205 -90.711)" opacity="0.25"/>
    <path id="Path_125" data-name="Path 125" d="M202.754,218.628c4.5-.761,16.183-11,16.183-11s-14.316-5.948-18.811-5.256a8.232,8.232,0,0,0,2.628,16.252Z" transform="translate(-131.64 -98.123)" opacity="0.25"/>
    <path id="Path_126" data-name="Path 126" d="M158.76,131.23c0,4.565-8.23,17.7-8.23,17.7s-8.23-13.14-8.23-17.7a8.23,8.23,0,0,1,16.46,0Z" transform="translate(-115.933 -73.661)" opacity="0.25"/>
    <path id="Path_127" data-name="Path 127" d="M207.168,159.531c-1.383,4.357-13.14,14.454-13.14,14.454s-3.942-15.077-2.559-19.365a8.225,8.225,0,0,1,15.7,4.91Z" transform="translate(-131.006 -81.629)" opacity="0.25"/>
    <path id="Path_128" data-name="Path 128" d="M249.9,195.133c-.622,4.5-10.512,16.46-10.512,16.46s-6.432-14.178-5.809-18.673a8.236,8.236,0,1,1,16.322,2.213Z" transform="translate(-144.071 -93.025)" opacity="0.25"/>
    <path id="Path_129" data-name="Path 129" d="M236.384,196.1s-3.735-38.522-26-58.993a58.086,58.086,0,0,1-18.12-32.3A97.548,97.548,0,0,1,190.6,86.9" transform="translate(-130.829 -62.527)" fill="none" stroke="#535461" stroke-miterlimit="10" stroke-width="2"/>
    <path id="Path_130" data-name="Path 130" d="M170.228,62.96c1.729,4.219,14.247,13.348,14.247,13.348s2.7-15.284,1.037-19.5a8.239,8.239,0,1,0-15.284,6.155Z" transform="translate(-124.358 -51.659)" fill="#38d39f"/>
    <path id="Path_131" data-name="Path 131" d="M164.334,102.514c3.735,2.628,19.226,3.458,19.226,3.458s-6.017-14.316-9.751-16.944a8.241,8.241,0,0,0-9.475,13.486Z" transform="translate(-121.645 -62.719)" fill="#38d39f"/>
    <path id="Path_132" data-name="Path 132" d="M186.527,159.175c4.5.346,18.327-6.708,18.327-6.708s-12.449-9.267-16.944-9.682a8.225,8.225,0,1,0-1.383,16.391Z" transform="translate(-127.24 -79.752)" fill="#38d39f"/>
    <path id="Path_133" data-name="Path 133" d="M214.982,198.6c4.426,1.107,19.226-3.527,19.226-3.527s-10.72-11.273-15.077-12.449a8.225,8.225,0,1,0-4.91,15.7,5.248,5.248,0,0,1,.761.277Z" transform="translate(-136.33 -91.93)" fill="#38d39f"/>
    <path id="Path_134" data-name="Path 134" d="M210.243,100.822c-1.867,4.15-14.731,12.864-14.731,12.864s-2.213-15.353-.346-19.572a8.251,8.251,0,1,1,15.077,6.708Z" transform="translate(-132.006 -63.24)" fill="#38d39f"/>
    <path id="Path_135" data-name="Path 135" d="M241.512,146.316c-2.974,3.389-17.912,7.884-17.912,7.884s2.49-15.353,5.533-18.742a8.233,8.233,0,1,1,12.38,10.858Z" transform="translate(-141.006 -76.644)" fill="#38d39f"/>
    <path id="Path_136" data-name="Path 136" d="M267.252,196.19C264.9,200.063,251,206.978,251,206.978s-.138-15.561,2.282-19.434a8.214,8.214,0,1,1,13.97,8.645Z" transform="translate(-149.456 -92.353)" fill="#38d39f"/>
  </g>
  <path id="Path_140" data-name="Path 140" d="M169.4,370.9" transform="translate(-158.207 -114.388)" fill="#fff" stroke="#33313f" stroke-miterlimit="10" stroke-width="3"/>
  <path id="Path_142" data-name="Path 142" d="M418.74,164.941s97.515-4.841,115.5,0c0,0-7.608,170.132-4.841,175.665,0,0-124.625,9.751-121.029,0C415.973,319.858,418.74,164.941,418.74,164.941Z" transform="translate(-231.882 -50.205)" fill="#fff" stroke="#33313f" stroke-miterlimit="10" stroke-width="1"/>
  <path id="Path_143" data-name="Path 143" d="M478.3,184.6s21.716,34.511,29.047,37.692" transform="translate(-253.473 -56.932)" fill="#fff" stroke="#33313f" stroke-miterlimit="10" stroke-width="1"/>
  <path id="Path_144" data-name="Path 144" d="M509.629,184.6s-20.748,27.11-23.929,36.378" transform="translate(-255.755 -56.932)" fill="#fff" stroke="#33313f" stroke-miterlimit="10" stroke-width="1"/>
  <path id="Path_145" data-name="Path 145" d="M520.942,270.9H447.633c-5.533,0-5.533,19.365-5.533,19.365h78.842Z" transform="translate(-242.309 -83.547)" fill="#fff" stroke="#33313f" stroke-miterlimit="10" stroke-width="1"/>
  <path id="Path_146" data-name="Path 146" d="M515.385,359.9H460.75c-4.15,0-4.15,19.365-4.15,19.365h58.786Z" transform="translate(-246.781 -110.995)" fill="#fff" stroke="#33313f" stroke-miterlimit="10" stroke-width="1"/>
  <path id="Path_147" data-name="Path 147" d="M520.942,311.757c5.533,0-66.808,6.224-73.309,0-3.389-3.25-5.533,19.365-5.533,19.365h78.842Z" transform="translate(-242.309 -96.049)" fill="#fff" stroke="#33313f" stroke-miterlimit="10" stroke-width="1"/>
  <path id="Path_148" data-name="Path 148" d="M488.9,370.624l4.15,4.15,7.608-10.374" transform="translate(-256.742 -112.383)" fill="#fff" stroke="#33313f" stroke-miterlimit="10" stroke-width="1"/>
  <path id="Path_149" data-name="Path 149" d="M687.634,167.9s96.823,11.757,115.5,0c0,0-7.608,170.132-4.841,175.665,0,0-128.5,7.193-121.029,0C695.933,325.583,687.634,167.9,687.634,167.9Z" transform="translate(-314.737 -51.781)" fill="#fff" stroke="#33313f" stroke-miterlimit="10" stroke-width="1"/>
  <path id="Path_150" data-name="Path 150" d="M711.8,211.4s13.97,22.131,18.673,24.206" transform="translate(-325.486 -65.197)" fill="#fff" stroke="#33313f" stroke-miterlimit="10" stroke-width="3"/>
  <path id="Path_151" data-name="Path 151" d="M731.953,211.4s-13.348,17.5-15.354,23.376" transform="translate(-326.966 -65.197)" fill="#fff" stroke="#33313f" stroke-miterlimit="10" stroke-width="3"/>
  <path id="Path_152" data-name="Path 152" d="M791.942,277.4H718.633c-5.533,0-5.533,10.236-5.533,10.236h78.842Z" transform="translate(-325.887 -85.552)" fill="#fff" stroke="#33313f" stroke-miterlimit="10" stroke-width="1"/>
  <path id="Path_153" data-name="Path 153" d="M769.3,321.4h38.177c5.532,0,5.532,10.236,5.532,10.236h.138" transform="translate(-343.219 -99.121)" fill="#fff" stroke="#33313f" stroke-miterlimit="10" stroke-width="3"/>
  <path id="Path_154" data-name="Path 154" d="M791.942,298.924c5.533,0-66.808,3.32-73.309,0-3.389-1.729-5.533,10.236-5.533,10.236h78.842Z" transform="translate(-325.887 -92.137)" fill="#fff" stroke="#33313f" stroke-miterlimit="10" stroke-width="1"/>
  <path id="Path_155" data-name="Path 155" d="M693.2,186.6s107.335,7.953,114.251,2.7" transform="translate(-319.749 -57.548)" fill="#fff" stroke="#33313f" stroke-miterlimit="10" stroke-width="1"/>
  <path id="Path_156" data-name="Path 156" d="M838.8,179.284c1.452-.346,2.974.138,4.5.346s3.181.207,4.288-.83" transform="translate(-364.653 -55.143)" fill="#fff" stroke="#33313f" stroke-miterlimit="10" stroke-width="1"/>
  <path id="Path_157" data-name="Path 157" d="M837.8,183.5a42.741,42.741,0,0,0,9.406.553" transform="translate(-364.345 -56.592)" fill="#fff" stroke="#33313f" stroke-miterlimit="10" stroke-width="1"/>
  <path id="Path_158" data-name="Path 158" d="M837.8,188.7a61.9,61.9,0,0,1,8.022-.9" transform="translate(-364.345 -57.918)" fill="#fff" stroke="#33313f" stroke-miterlimit="10" stroke-width="1"/>
  <path id="Path_159" data-name="Path 159" d="M701.034,178.908a8.6,8.6,0,0,0,4.149.83,3.7,3.7,0,0,0,2.559-.553c.9-.761.968-2.075.968-3.251a2.69,2.69,0,0,0-.138-1.037,2.01,2.01,0,0,0-.761-.761,8.656,8.656,0,0,0-6.916-.9C698.268,174.343,698.683,177.663,701.034,178.908Z" transform="translate(-321.567 -53.314)" fill="#fff" stroke="#33313f" stroke-miterlimit="10" stroke-width="1"/>
  <path id="Path_160" data-name="Path 160" d="M732.877,205.1c-.415,5.118.83,10.236,1.66,15.284a100.941,100.941,0,0,1,1.245,19.365c-10.927.692-21.855.83-32.782.484,1.037,0,.761-23.1.83-25.243.139-2.7-.484-7.4,2.7-8.437,3.32-1.107,8.023-.415,11.481-.553C722.918,205.722,727.9,205.446,732.877,205.1Z" transform="translate(-322.772 -63.254)" fill="#fff" stroke="#33313f" stroke-miterlimit="10" stroke-width="1"/>
  <path id="Path_163" data-name="Path 163" d="M607.4,280.626s26.972-1.383,31.813,0" transform="translate(-293.289 -86.357)" fill="none" stroke="#33313f" stroke-miterlimit="10" stroke-width="1"/>
  <path id="Path_164" data-name="Path 164" d="M651.858,259.9s11.757,11.757,11.757,14.523S648.4,286.872,648.4,286.872" transform="translate(-305.933 -80.155)" fill="none" stroke="#33313f" stroke-miterlimit="10" stroke-width="1"/>
  <circle id="Ellipse_47" data-name="Ellipse 47" cx="14.938" cy="14.938" r="14.938" transform="translate(140.037 0)" fill="#38d39f" opacity="0.1"/>
  <circle id="Ellipse_48" data-name="Ellipse 48" cx="14.938" cy="14.938" r="14.938" transform="translate(367.641 20.679)" fill="#38d39f" opacity="0.1"/>
  <circle id="Ellipse_49" data-name="Ellipse 49" cx="14.938" cy="14.938" r="14.938" transform="translate(527.538 242.266)" fill="#38d39f" opacity="0.1"/>
  <ellipse id="Ellipse_50" data-name="Ellipse 50" cx="25.105" cy="25.036" rx="25.105" ry="25.036" transform="translate(567.257 211.265) rotate(-80.782)" fill="#38d39f" opacity="0.1"/>
  <ellipse id="Ellipse_51" data-name="Ellipse 51" cx="25.105" cy="25.105" rx="25.105" ry="25.105" transform="translate(517.948 35.643)" fill="#38d39f" opacity="0.1"/>
  <ellipse id="Ellipse_52" data-name="Ellipse 52" cx="25.105" cy="25.105" rx="25.105" ry="25.105" transform="translate(0 199.743)" fill="#38d39f" opacity="0.1"/>
  <path id="Path_165" data-name="Path 165" d="M852.438,378.129a13.349,13.349,0,0,0-.449-3.229c-.808-3.05-2.6-6.728-5.651-7.625a51.782,51.782,0,0,1-8.881-3.768c-.538-9.6,1.7-19.466-.717-28.8-.9-3.409-2.332-6.638-2.781-10.137-.449-4.306.717-8.97-1.077-13.007-1.345-3.139-4.4-5.382-7.625-6.548s-6.727-1.435-10.136-1.794c-4.306-.359-18.21-1.973-23.144,1.884h0a4.264,4.264,0,0,0-.9.9h0c-.09.18-.179.269-.269.449v.09l-.269.538h0c-.09.179-.09.448-.18.628v1.615a22.065,22.065,0,0,1,.18,2.422,5.091,5.091,0,0,1-.09,1.166,6.844,6.844,0,0,1-1.525,2.871h0l-.179.269-.269.449-.269.359-.179.359c-.09.179-.179.269-.269.449l-.18.269-.269.807a5.114,5.114,0,0,0,0,2.332,9.038,9.038,0,0,0,1.256,2.871c.269.359.448.718.718,1.077s.448.538.628.807a23.719,23.719,0,0,0-.179,2.512,18.754,18.754,0,0,0,7.087,14.622,60.411,60.411,0,0,1-.09,11.393c-.09.807-.179,1.615-.269,2.332s-.18,1.345-.269,1.973a9.706,9.706,0,0,1-3.947-.269c-.628-.269-1.166-.448-1.795-.718-2.6-.628-5.292,1.974-7.894,1.166,0,.09-.09.269-.09.359a3.234,3.234,0,0,0-1.794-.538,6.353,6.353,0,0,1-3.857-2.243l-3.409-3.229a4.131,4.131,0,0,1-.628-.628,5.456,5.456,0,0,1-.448-1.076,13.421,13.421,0,0,0-3.319-4.754,2.545,2.545,0,0,0-.987-.718h-.449c-.09-.09-.18-.269-.269-.359a5.412,5.412,0,0,0-.717-.718c-1.615-1.525-1.794-2.781-3.23-4.485a44.244,44.244,0,0,1-3.319-5.023c-.09-.9-.269-1.884-.448-2.871a34.276,34.276,0,0,0-1.974-6.549l1.256-1.345V323.32l2.153-2.6-.18-.09,2.691-2.512-2.691-.09-1.256,1.7-.09-.09-2.242,2.243-1.615.179-.18.18c-1.345-1.973-2.691-2.96-3.947-2.781-2.063.449-3.14,4.485-2.781,9.778l-6.189,6.548-.718.718-3.229,4.126,2.512,2.422,3.857-3.588.628-.717,3.857-4.127a3.88,3.88,0,0,1,.09.449,13.423,13.423,0,0,0-.179,1.973c0,.807.718,1.346,1.076,1.973a5.28,5.28,0,0,1,.9,3.05c0,.359-.179.718-.179,1.166a4.563,4.563,0,0,0,.807,2.332c1.525,2.512,2.96,5.023,4.485,7.535.27.538.628,1.076.9,1.615v.09a4.219,4.219,0,0,0,1.166,1.346,16.6,16.6,0,0,0,1.525,5.472c.18.359.359.628.539.987a27.8,27.8,0,0,0,4.216,5.472l2.153,2.422c2.063,2.332,4.216,4.754,6.458,6.907a8.783,8.783,0,0,0,2.961,2.063,3.224,3.224,0,0,0,3.229-.449v3.319a2.592,2.592,0,0,1,1.615.987,2.207,2.207,0,0,1-.18,1.974c-1.883,4.844-3.767,9.688-6.637,14.083a31.315,31.315,0,0,1,5.562,4.216,21.192,21.192,0,0,1,2.87,3.947,14.6,14.6,0,0,1,.18,1.974c.628,10.675-3.5,21.35-7.176,31.486-1.076,2.871-2.242,5.921-2.153,8.881-.717.448-1.345.9-2.063,1.435.718,1.884.449,3.588.359,5.651a9.843,9.843,0,0,1-.718,3.588c-.359.808-.9,1.525-1.256,2.332-2.332,4.126-2.871,8.97-3.319,13.635-.269,2.871.807,6.279-.449,8.791-2.242,4.306-4.216,8.971-4.485,13.815a13.329,13.329,0,0,1-.449,3.229c-.269.9-.807,1.614-1.076,2.512a9.693,9.693,0,0,0-.18,3.588,33.6,33.6,0,0,1-1.884,12.648c-1.166,3.229-2.332,6.638-1.435,9.957a13.781,13.781,0,0,0-3.768,8.343,11.145,11.145,0,0,1-.269,2.422,10.986,10.986,0,0,1-1.076,2.332,19.618,19.618,0,0,0-2.422,10.764c-2.691,3.678-4.036,8.163-4.844,12.648s-1.166,9.06-2.153,13.456c-1.346,5.83-3.858,11.751-4.306,17.761-2.87,1.884-4.126,5.472-4.754,8.881s-.628,7-2.063,10.137c-.718,1.614-1.795,3.14-2.512,4.754a16.481,16.481,0,0,0-1.077,4.126,15.621,15.621,0,0,0-.269,6.728,8,8,0,0,1-2.6,1.973,11.462,11.462,0,0,0,.359-1.7c-2.332,2.063-6.548,1.346-8.342,3.858a3.826,3.826,0,0,0,.9,5.2,5.962,5.962,0,0,0,1.884.807c4.486,1.435,9.06,2.871,13.725,2.153a3.663,3.663,0,0,0,2.96-2.243l2.063-3.319a31.447,31.447,0,0,0,5.024,1.166c.179,1.435.268,2.87.358,4.306.9.18,2.063.269,2.512-.628a3.816,3.816,0,0,0,.18-.987c0-.628.089-1.525.179-2.332h.18a16.854,16.854,0,0,0,7.894-1.615c-.987-7.894,2.243-15.7,4.934-23.233,2.87-7.894,5.382-15.968,7.894-24.041,1.794-5.651,3.767-11.123,5.562-16.864,2.242-7.176,4.485-14.353,6.638-21.529.987-3.14,1.974-6.279,3.05-9.419A136.944,136.944,0,0,1,790.9,526.5c.9-1.7,1.794-3.409,2.512-5.113.9-2.153,1.525-4.4,2.242-6.548a101.736,101.736,0,0,1,5.651-13.276l.18-.359c.718,2.961,1.435,6.01,1.973,8.971a35.58,35.58,0,0,1,.18,11.123c-.449,2.512-1.256,4.934-1.166,7.535.179,3.5,1.974,6.728,2.96,10.047a37.088,37.088,0,0,1,.987,7.714c.269,4.037,2.422,8.522.9,12.29-4.755,11.841-2.512,25.207-5.2,37.676-1.436,6.369-5.741,12.379-5.382,18.927.269,4.664.628,9.24,1.256,13.9a13.219,13.219,0,0,0,.987,4.126,14.721,14.721,0,0,0,1.256,1.974,2.089,2.089,0,0,0-.987,1.435,5.491,5.491,0,0,0,1.974,6.279,8.945,8.945,0,0,0,2.6.9,13.662,13.662,0,0,0,3.768.538,5.228,5.228,0,0,0,1.166-.179,33.623,33.623,0,0,0,4.216,1.525,4.365,4.365,0,0,0,.09,1.077,1.286,1.286,0,0,0,.448.987,1.69,1.69,0,0,0,.718.179h4.844v-1.256a4.4,4.4,0,0,0,3.14-.987,4.592,4.592,0,0,0,.9-1.884c1.346-4.485,2.691-8.97,3.948-13.545a32.33,32.33,0,0,0,1.345-5.831,42.828,42.828,0,0,0,.538-9.6c-1.7-16.506,2.063-33.1.807-49.7a118.227,118.227,0,0,1,1.525-29.782,58.137,58.137,0,0,0,1.076-6.728c.359-4.216-.09-8.432.18-12.559.09-1.435.269-2.871.449-4.306a210.576,210.576,0,0,0,2.063-27.091A75.285,75.285,0,0,0,834.5,476a5.15,5.15,0,0,0,2.422-1.435c.807-1.077.628-2.512.628-3.857,0-3.14,1.346-6.19,2.422-9.15A123.752,123.752,0,0,0,843.377,449a46.368,46.368,0,0,0,1.525-10.585,4.373,4.373,0,0,0-.09-1.077,2.551,2.551,0,0,0,.808-.9,5.464,5.464,0,0,0,.448-1.615c.359-2.332.628-4.575.987-6.907.269-1.615.449-3.319.718-4.934.987-6.638,1.884-13.276,2.871-19.914.269-1.7.448-3.5.718-5.2l.717-5.113c.089-.628.18-1.256.269-1.794C854.769,387.19,852.617,382.256,852.438,378.129Zm-23.772,74.455c-1.076-2.512-2.063-5.113-1.794-7.8h-.089a4.015,4.015,0,0,0-.09-2.512,20.072,20.072,0,0,0-1.076-1.884,5.948,5.948,0,0,1-.449-2.512,70.076,70.076,0,0,1,1.256-16.237c.09-.628.269-1.256.359-1.884a2.8,2.8,0,0,0,.986-.807,7.658,7.658,0,0,0,1.166-1.794c.987-2.063,1.974-4.126,2.782-6.19a2.481,2.481,0,0,1,1.345-1.615c-.179,5.2.359,10.585-1.794,15.339a8.845,8.845,0,0,0-.9,2.422c-.18,1.345.359,2.691.179,4.037a12.684,12.684,0,0,1-.538,1.973,1.817,1.817,0,0,0,.538,1.884.684.684,0,0,0,.359.179,4.392,4.392,0,0,0-.089,1.077c-.09.717-.09,1.435-.18,1.884-.18,2.153-.269,4.4-.269,6.548,0,2.422.089,4.754.089,7.176a5.26,5.26,0,0,1-.359,2.063,3.5,3.5,0,0,1-.718.9A16.4,16.4,0,0,0,828.665,452.584Z" transform="translate(-340.724 -132.9)" fill="url(#linear-gradient)"/>
  <path id="Path_166" data-name="Path 166" d="M765.91,323.859l3.144-2.867-2.774-.092-1.479,2.219Z" transform="translate(-348.424 -139.735)" fill="#33313f"/>
  <path id="Path_167" data-name="Path 167" d="M741.8,344.338l3.329-4.254.74-.74L755.948,328.8l3.421-3.606,1.572-.185,2.312-2.312,1.387,1.2-2.219,2.589v1.387l-3.514,3.791L749.012,342.4l-.647.74-3.976,3.7Z" transform="translate(-346.692 -139.871)" fill="#65617d"/>
  <path id="Path_168" data-name="Path 168" d="M746.2,339.841,756.279,329.3l2.959,2.867-9.894,10.726Z" transform="translate(-347.024 -140.368)" fill="#33313f"/>
  <ellipse id="Ellipse_53" data-name="Ellipse 53" cx="5.178" cy="14.795" rx="5.178" ry="14.795" transform="matrix(0.98, -0.201, 0.201, 0.98, 403.304, 183.722)" fill="#fbbebe"/>
  <path id="Path_169" data-name="Path 169" d="M809.174,674.882a5.528,5.528,0,0,0,2.034,6.38,9.225,9.225,0,0,0,2.682.925,14.078,14.078,0,0,0,3.884.555c1.572-.092,3.143-.74,4.716-.925a1.17,1.17,0,0,1,.554.093.572.572,0,0,1,.185.647c0,.925.093,1.849.185,2.774a1.044,1.044,0,0,0,.925,1.2H829.7a47.457,47.457,0,0,0-1.479-13.038,2.769,2.769,0,0,0-.37-.924,3.094,3.094,0,0,0-1.572-.924A8.026,8.026,0,0,0,822.4,671c-1.572.185-2.959,1.294-4.346,2.127s-3.236,1.664-4.9,1.2S810.006,672.385,809.174,674.882Z" transform="translate(-351.742 -166.102)" fill="#3f3d56"/>
  <path id="Path_170" data-name="Path 170" d="M729.1,670.651a13.738,13.738,0,0,1-5.086,3.421l-.832.462q-.139,0-.278.278a.835.835,0,0,0,.092.462,6.106,6.106,0,0,0,6.75,2.5,2.818,2.818,0,0,0,1.479-.74,4.362,4.362,0,0,0,1.11-2.959,6.173,6.173,0,0,0-.185-3.421C731.037,667.6,730.575,668.893,729.1,670.651Z" transform="translate(-345.269 -165.94)" fill="#fbbebe"/>
  <path id="Path_171" data-name="Path 171" d="M747.867,682.158a1.835,1.835,0,0,1-.184,1.017c-.463.832-1.665.832-2.589.647a78.082,78.082,0,0,0-1.11-9.339c-1.757-.093-3.052,1.664-4.069,3.144l-2.5,3.976a4.294,4.294,0,0,1-1.48,1.665,4.553,4.553,0,0,1-1.572.555c-4.716.74-9.524-.74-14.055-2.219a8.772,8.772,0,0,1-1.942-.832,3.93,3.93,0,0,1-.924-5.363c1.942-2.589,6.2-1.849,8.6-3.976a26.427,26.427,0,0,1-1.2,4.439c3.236-.463,5.363-3.422,7.953-5.364a5.042,5.042,0,0,1,2.219-1.109,4.09,4.09,0,0,1,1.849.185A22.273,22.273,0,0,1,745,673.558c.924.74,2.5,1.849,2.959,3.051C748.329,678,747.867,680.585,747.867,682.158Z" transform="translate(-344.807 -165.981)" fill="#3f3d56"/>
  <ellipse id="Ellipse_54" data-name="Ellipse 54" cx="19.141" cy="19.141" rx="19.141" ry="19.141" transform="translate(447.537 172.843)" fill="#fbbebe"/>
  <path id="Path_172" data-name="Path 172" d="M858.275,454.008a42.5,42.5,0,0,1-1.572,10.819,107.335,107.335,0,0,1-3.514,12.946c-1.11,3.051-2.5,6.2-2.5,9.432,0,1.387.185,2.867-.647,3.976a6.076,6.076,0,0,1-2.681,1.572,3.6,3.6,0,0,0-2.312,2.034,16.22,16.22,0,0,1-1.942-4.253c-1.664-5.086-3.236-10.172-4.623-15.35a2.166,2.166,0,0,1,.092-1.849,3.755,3.755,0,0,1,.833-.462A7.748,7.748,0,0,0,842,471.207a2.521,2.521,0,0,0,.833-1.11,5.428,5.428,0,0,0,.37-2.127c0-2.4,0-4.9-.092-7.3a54.99,54.99,0,0,1,.277-6.75,18.987,18.987,0,0,1,.185-1.942c.185-1.48.463-3.144,1.2-3.7,1.2-.832,4.716.277,6.01.462,2.312.277,4.624.74,6.843,1.11A13.017,13.017,0,0,1,858.275,454.008Z" transform="translate(-353.962 -149.306)" fill="#3f3d56"/>
  <path id="Path_173" data-name="Path 173" d="M774.79,354.138c-.74,1.479-2.5,2.219-3.883,3.144l-4.716,3.236a3.552,3.552,0,0,1-2.312.832,3.091,3.091,0,0,1-1.757-1.664l-.093-.092-.924-1.664-4.623-7.767a3.992,3.992,0,0,1-.833-2.4c0-.37.185-.74.185-1.2a5.447,5.447,0,0,0-.924-3.144c-.37-.74-1.11-1.295-1.11-2.034a6.5,6.5,0,0,1,.555-2.959,5.618,5.618,0,0,1,2.035-2.127c.462-.278.924-.647,1.387-.925a3.3,3.3,0,0,1,.832-.37c.74-.185,1.48.462,2.312.462,3.329,2.219,4.623,6.473,7.212,9.524,1.479,1.757,1.664,3.051,3.329,4.624a5.535,5.535,0,0,1,.74.74,3.529,3.529,0,0,1,.832,1.2C773.311,352.474,775.16,353.4,774.79,354.138Z" transform="translate(-347.596 -140.794)" fill="#3f3d56"/>
  <path id="Path_174" data-name="Path 174" d="M811.192,352.153c1.387,2.867,2.5,6.1,2.034,9.339a5.753,5.753,0,0,1-.832,2.4c-1.295,2.034-4.161,2.4-6.565,2.5a4.116,4.116,0,0,0-2.866.925,2.508,2.508,0,0,0,.185,3.144,6.7,6.7,0,0,0,2.866,1.849c3.884,1.664,7.952,3.144,12.206,2.682,1.942-.185,3.791-.74,5.733-1.017,2.127-.185,4.161-.37,6.288-.37,2.5-.092,4.993-.37,7.49-.555l6.658-.647a1.389,1.389,0,0,0,1.016-.37c.463-.555-.184-1.387-.739-1.849-3.514-2.589-8.045-4.439-9.987-8.322-.925-1.85-1.2-4.069-1.942-6.01a44.386,44.386,0,0,1-2.219-5.826,34.722,34.722,0,0,1-.277-5.363,7.172,7.172,0,0,0-1.85-4.9A7.928,7.928,0,0,0,823.4,338.1c-4.438-.185-9.154.832-12.3,3.976-.832.832-1.572,1.849-2.4,2.589s-2.034,1.017-1.479,1.942,1.664,1.572,2.312,2.5A24.826,24.826,0,0,1,811.192,352.153Z" transform="translate(-351.264 -141.029)" fill="#fbbebe"/>
  <path id="Path_175" data-name="Path 175" d="M847.3,380.362a108.212,108.212,0,0,1-5.641,20.805,86.353,86.353,0,0,0-3.329,9.339c-.739,2.866-.554,5.918-1.2,8.784-.832,3.606-1.664,7.213-2.312,10.819a67.5,67.5,0,0,0-1.294,16.737,8.036,8.036,0,0,0,.462,2.589c.277.647.832,1.2,1.11,1.942a4.327,4.327,0,0,1-.278,3.7,9.82,9.82,0,0,1-1.942,2.867c-8.6,2.589-17.846,1.757-26.816,2.312-8.322.462-16.644,2.219-24.781.74-.925-3.7.647-7.582,1.942-11.189,3.791-10.449,8.045-21.36,7.4-32.364a24.979,24.979,0,0,0-.462-3.791c-1.294-7.768.092-15.812,2.5-23.394,1.479-4.716,1.387-9.709,1.017-14.61a27.7,27.7,0,0,1-.093-4.808,8.526,8.526,0,0,1,1.757-4.438l.185-.185c.092-.185.37-.092.648,0h0a.419.419,0,0,0,.462,0l.093-.092a.173.173,0,0,1,.277,0c.185.092.278.555.74.647a15.146,15.146,0,0,0,2.035.185,11.634,11.634,0,0,1,2.5.37h.092a7.984,7.984,0,0,0,3.606-.278,10.857,10.857,0,0,0,2.22-.832,9.755,9.755,0,0,1,1.757-.555c.832-.555.647-2.866.832-3.884a14.357,14.357,0,0,1,.647-2.867A4.874,4.874,0,0,1,815.4,356.6a16.043,16.043,0,0,1,4.716.462c3.421.462,6.935.37,10.356,1.2,1.664.37,3.514,1.017,5.086.277.462.092.462.462.462.925a3.259,3.259,0,0,1-.277,1.295c-.555,2.589,1.387,4.9,3.236,6.75a16.243,16.243,0,0,0,2.774,2.219c.925.462,1.849.555,2.774,1.017a5.335,5.335,0,0,1,1.849,1.664,5.984,5.984,0,0,1,1.017,2.682A11.3,11.3,0,0,1,847.3,380.362Z" transform="translate(-349.645 -142.422)" fill="#3f3d56"/>
  <path id="Path_176" data-name="Path 176" d="M848.013,381.147a108.15,108.15,0,0,1-5.641,20.805,86.467,86.467,0,0,0-3.329,9.339c-.739,2.867-.555,5.918-1.2,8.785-.832,3.606-1.664,7.212-2.312,10.819l-.555.277a16.534,16.534,0,0,1-3.607,1.2,23.617,23.617,0,0,1-6.75-.185L811.4,430.433c-5.27-.74-10.911-1.572-14.795-5.086-2.127-1.942-3.606-4.531-5.178-7.028a24.934,24.934,0,0,0-.462-3.791c-1.294-7.768.093-15.812,2.5-23.395,1.479-4.716,1.387-9.709,1.017-14.61a27.694,27.694,0,0,1-.092-4.808,8.519,8.519,0,0,1,1.757-4.438,2.7,2.7,0,0,1,.832-.185h0c.185,0,.37-.092.555-.092h.277a3.151,3.151,0,0,1,.925.092,15.484,15.484,0,0,1,1.849.74h.093a7.786,7.786,0,0,0,2.5.37c1.2,0,2.5-.185,3.7-.277a6.46,6.46,0,0,1,4.346.74,27.357,27.357,0,0,1,2.4,2.219,9.828,9.828,0,0,0,3.051,1.664,32.374,32.374,0,0,0,24.6-.555,4.58,4.58,0,0,1,2.5-.647,4.207,4.207,0,0,1,1.757.74,14.962,14.962,0,0,0,1.665.925,5.98,5.98,0,0,1,1.017,2.682A15.407,15.407,0,0,1,848.013,381.147Z" transform="translate(-350.358 -143.207)" opacity="0.1"/>
  <path id="Path_177" data-name="Path 177" d="M855.412,374.9a48.647,48.647,0,0,1-10.541-4.624,4.214,4.214,0,0,0-1.757-.74,4.8,4.8,0,0,0-2.5.647,33.267,33.267,0,0,1-24.6.555,9.829,9.829,0,0,1-3.051-1.665,18.016,18.016,0,0,0-2.4-2.219c-3.051-1.942-7.213.37-10.634-.925-.555-.277-1.2-.462-1.849-.74-2.682-.647-5.456,2.034-8.045,1.2a37.181,37.181,0,0,0-2.127,8.23c-.37,3.236-.555,6.473-.647,9.709q-.139,2.913,0,5.826a2.672,2.672,0,0,1,1.664,1.017,2.063,2.063,0,0,1-.185,1.942c-1.942,4.993-3.884,9.987-6.843,14.425a32.258,32.258,0,0,1,5.733,4.346c3.237,3.421,4.808,8.23,8.322,11.374,3.976,3.606,9.524,4.438,14.795,5.178l13.223,1.849a23.615,23.615,0,0,0,6.75.185,11.852,11.852,0,0,0,3.607-1.2,5.887,5.887,0,0,0,2.034-1.295,7.915,7.915,0,0,0,1.2-1.849c1.017-2.127,2.034-4.253,2.867-6.38.278-.74.74-1.664,1.572-1.757,4.9-4.439,9.524-8.969,14.425-13.408a37.418,37.418,0,0,0,5.271-5.548c2.4-3.606.185-8.692,0-13.038a20.392,20.392,0,0,0-.37-3.329C860.313,379.617,858.464,375.825,855.412,374.9Z" transform="translate(-349.712 -143.064)" fill="#38d39f"/>
  <path id="Path_178" data-name="Path 178" d="M775.468,355.386c-.74,1.48-2.5,2.219-3.884,3.144l-4.716,3.236a3.549,3.549,0,0,1-2.311.832,3.09,3.09,0,0,1-1.757-1.665v-.647a9.134,9.134,0,0,1,.277-2.219,8.256,8.256,0,0,1,2.034-2.682,15.94,15.94,0,0,1,6.1-3.7,1.546,1.546,0,0,1,1.11-.093.48.48,0,0,1,.37.185,3.523,3.523,0,0,1,.832,1.2C773.989,353.722,775.838,354.647,775.468,355.386Z" transform="translate(-348.274 -142.043)" opacity="0.1"/>
  <path id="Path_179" data-name="Path 179" d="M786.559,365.235c-1.572-.093-2.867-1.2-3.976-2.312l-3.514-3.329a4.272,4.272,0,0,1-.648-.647,5.642,5.642,0,0,1-.462-1.11,13.827,13.827,0,0,0-3.422-4.9,2.615,2.615,0,0,0-1.017-.74,2.277,2.277,0,0,0-1.11.092,15.944,15.944,0,0,0-6.1,3.7,6.5,6.5,0,0,0-2.035,2.682,4.614,4.614,0,0,0-.277,2.219,15.8,15.8,0,0,0,1.664,7.12c.185.37.37.647.555,1.017a31.675,31.675,0,0,0,4.346,5.641l2.219,2.5c2.127,2.4,4.346,4.808,6.658,7.028a9.662,9.662,0,0,0,2.959,2.127,3.276,3.276,0,0,0,3.421-.555,6.7,6.7,0,0,0,1.017-1.757c1.387-3.7,2.774-7.49,2.867-11.559a41.716,41.716,0,0,0-.185-4.808C789.334,365.974,788.131,365.327,786.559,365.235Z" transform="translate(-348.361 -142.089)" fill="#38d39f"/>
  <path id="Path_180" data-name="Path 180" d="M839.954,502.849a233.314,233.314,0,0,1-1.941,27.833c-.186,1.479-.37,2.959-.463,4.438-.278,4.346.185,8.692-.185,12.945-.185,2.312-.739,4.623-1.11,6.935a121.355,121.355,0,0,0-1.572,30.607c1.295,17.014-2.589,34.121-.832,51.135a44.158,44.158,0,0,1-.555,9.894c-.37,2.034-.832,4.068-1.387,6.01-1.387,4.623-2.681,9.247-4.068,13.87a4.726,4.726,0,0,1-.925,1.942,4.331,4.331,0,0,1-3.513,1.017c-5.363-.185-10.357-2.5-15.165-4.716a5.414,5.414,0,0,1-1.572-.925c-1.017-1.017-.924-2.682-1.387-4.069s-1.664-2.682-2.312-4.068a13.078,13.078,0,0,1-1.017-4.161c-.647-4.716-1.017-9.524-1.294-14.24-.37-6.75,4.068-12.853,5.548-19.419,2.774-12.853.462-26.631,5.363-38.744,1.572-3.884-.74-8.507-.925-12.668a45.641,45.641,0,0,0-1.017-7.952c-.925-3.514-2.867-6.75-3.051-10.357-.093-2.589.74-5.178,1.2-7.767a33.557,33.557,0,0,0-.185-11.373,78.471,78.471,0,0,0-2.034-9.247l-.185.37a119.2,119.2,0,0,0-5.825,13.686c-.74,2.311-1.387,4.531-2.312,6.75a55.648,55.648,0,0,1-2.589,5.27,140.647,140.647,0,0,0-8.507,19.049c-1.11,3.237-2.127,6.473-3.144,9.709-2.312,7.4-4.531,14.795-6.843,22.192-1.849,5.825-3.884,11.466-5.733,17.291-2.589,8.322-5.086,16.552-8.137,24.689-2.867,7.767-6.1,15.719-5.086,23.857a17.864,17.864,0,0,1-8.137,1.664,47.675,47.675,0,0,1-13.87-3.422,9.884,9.884,0,0,1-4.809-2.867c-2.034-2.5-1.572-6.195-.925-9.339a22.164,22.164,0,0,1,1.11-4.254c.74-1.664,1.849-3.236,2.589-4.9,1.48-3.236,1.572-6.935,2.127-10.357s1.849-7.212,4.809-9.062c.462-6.2,3.051-12.206,4.438-18.216,1.017-4.531,1.387-9.247,2.219-13.87s2.219-9.247,4.993-12.946a21.061,21.061,0,0,1,2.5-11.1,13.182,13.182,0,0,0,1.11-2.312,11.3,11.3,0,0,0,.278-2.4,14.449,14.449,0,0,1,3.883-8.6c-.924-3.421.37-6.935,1.48-10.171a34.657,34.657,0,0,0,1.942-13.038,9.973,9.973,0,0,1,.185-3.7c.277-.925.74-1.665,1.017-2.589a20.559,20.559,0,0,0,.463-3.328c.369-4.994,2.4-9.709,4.623-14.148,1.295-2.589.185-6.2.462-9.062.463-4.808,1.018-9.8,3.422-14.055a19.918,19.918,0,0,0,1.295-2.4,10.15,10.15,0,0,0,.739-3.7c.093-2.127.37-3.884-.37-5.825,4.9-4.161,11.743-5.271,18.123-5.548s12.946.277,19.234-1.109c1.849-.37,3.7-1.017,5.64-1.294,4.439-.647,8.97.37,13.315,1.387-.277,2.774.74,5.456,1.849,8.045A80.666,80.666,0,0,1,839.954,502.849Z" transform="translate(-345.721 -150.248)" fill="#33313f"/>
  <path id="Path_181" data-name="Path 181" d="M824.453,508.5l-10.634,23.949a78.475,78.475,0,0,0-2.034-9.247l-.185.37v-.463l5.826-12.76Z" transform="translate(-351.949 -153.865)" opacity="0.1"/>
  <path id="Path_182" data-name="Path 182" d="M858.71,454a3.707,3.707,0,0,1-2.127.74,11.489,11.489,0,0,1-3.514-.463l-8.23-2.127a6.389,6.389,0,0,1-.739-.277c.185-1.48.462-3.144,1.2-3.7,1.2-.832,4.716.277,6.01.462,2.312.277,4.623.74,6.843,1.109A17.351,17.351,0,0,1,858.71,454Z" transform="translate(-354.398 -149.298)" opacity="0.1"/>
  <path id="Path_183" data-name="Path 183" d="M865.664,394.751a16.9,16.9,0,0,1,.555,2.312,17.1,17.1,0,0,1-.185,5.733l-.74,5.271-.739,5.363-2.96,20.436-.739,5.086-1.017,7.12a4.922,4.922,0,0,1-.463,1.664,3.378,3.378,0,0,1-2.866,1.664,10.551,10.551,0,0,1-3.421-.462l-8.322-2.127a2.051,2.051,0,0,1-1.017-.462,1.927,1.927,0,0,1-.555-1.942c.093-.74.462-1.387.555-2.034.185-1.387-.37-2.774-.185-4.161a8.14,8.14,0,0,1,.925-2.5c2.774-6.1,1.2-13.316,2.127-19.973a30.4,30.4,0,0,1,6.287-14.333,38.946,38.946,0,0,1,7.12-6.935c1.017-.832,2.682-2.5,3.976-2.774C865.757,391.514,865.387,393.641,865.664,394.751Z" transform="translate(-354.324 -145.067)" fill="#38d39f"/>
  <path id="Path_184" data-name="Path 184" d="M798.692,308.517c-.647,1.942.37,4.068-.092,6.01-.463,2.219-2.5,3.7-3.144,5.918-.925,3.329,1.942,6.38,3.976,9.154,7.675,10.264,6.658,24.5,4.069,37.08a184.178,184.178,0,0,1-8.784,29.59c-1.11,2.959-2.4,6.01-4.716,8.23,4.254-1.2,8.784-2.4,13.038-1.294,5.363,1.479,10.079,6.75,15.535,5.548,3.329-.74,5.64-3.7,8.6-5.271,5.548-2.959,12.206-1.11,18.4-.185a7.245,7.245,0,0,0,3.976-.185,6.2,6.2,0,0,0,2.4-2.219,22.221,22.221,0,0,0,4.716-12.3,15.8,15.8,0,0,0-4.531-12.113c-1.294-1.2-2.867-2.219-3.883-3.7a11.726,11.726,0,0,1-1.573-5.641c-.739-10.172,1.757-20.528-.832-30.422-.925-3.514-2.4-6.843-2.867-10.449-.462-4.438.74-9.247-1.109-13.316a13.092,13.092,0,0,0-7.768-6.75,39.316,39.316,0,0,0-10.356-1.849C818.943,304.078,800.819,301.951,798.692,308.517Z" transform="translate(-350.323 -138.448)" fill="#33313f"/>
  <g id="Group_3" data-name="Group 3" transform="translate(439.678 167.849)" opacity="0.1">
    <path id="Path_185" data-name="Path 185" d="M803.892,367.9a192.659,192.659,0,0,1-8.692,29.5,34.977,34.977,0,0,0,1.665-3.884,194.119,194.119,0,0,0,8.784-29.59c2.589-12.576,3.607-26.816-4.069-37.08-1.849-2.4-4.254-5.086-4.161-8.045a10.784,10.784,0,0,0-1.572,2.866c-.925,3.329,1.942,6.38,3.976,9.154C807.5,341.085,806.481,355.325,803.892,367.9Z" transform="translate(-790.391 -307.427)"/>
    <path id="Path_186" data-name="Path 186" d="M799.382,313.805a9.322,9.322,0,0,0,1.665-3.144,15.685,15.685,0,0,0-.092-4.161,5.125,5.125,0,0,0-1.572,2.127C798.827,310.384,799.474,312.141,799.382,313.805Z" transform="translate(-790.689 -306.5)"/>
    <path id="Path_187" data-name="Path 187" d="M853.8,404.237a6.4,6.4,0,0,1-2.5,2.219,6.506,6.506,0,0,1-3.976.185c-6.2-.924-12.945-2.866-18.4.185-2.959,1.572-5.271,4.531-8.6,5.271-5.456,1.2-10.172-3.976-15.535-5.548-3.79-1.017-7.859-.185-11.743.925A14.635,14.635,0,0,1,790,411.911c4.254-1.2,8.784-2.4,13.038-1.295,5.363,1.48,10.079,6.75,15.534,5.548,3.328-.74,5.64-3.7,8.6-5.271,5.548-2.959,12.206-1.109,18.4-.185a7.243,7.243,0,0,0,3.976-.185,6.2,6.2,0,0,0,2.4-2.219A25,25,0,0,0,855.744,401,13.072,13.072,0,0,1,853.8,404.237Z" transform="translate(-790 -313.618)"/>
  </g>
  <path id="Path_188" data-name="Path 188" d="M911.888,575.5s4.081,5.394-1.867,13.486-10.927,14.939-8.921,19.987c0,0,9.06-15.077,16.391-15.215S919.979,584.56,911.888,575.5Z" transform="translate(-383.727 -177.487)" fill="#38d39f"/>
  <path id="Path_189" data-name="Path 189" d="M911.965,575.5a9.3,9.3,0,0,1,.83,1.66c7.192,8.437,11,16.322,4.08,16.529-6.432.207-14.178,11.688-15.976,14.592.069.207.138.415.207.691,0,0,9.06-15.077,16.391-15.215S920.058,584.56,911.965,575.5Z" transform="translate(-383.806 -177.487)" opacity="0.1"/>
  <path id="Path_190" data-name="Path 190" d="M927.468,584.855c0,1.867-.208,3.389-.484,3.389s-.484-1.522-.484-3.389.277-1.037.553-1.037S927.468,582.988,927.468,584.855Z" transform="translate(-391.701 -179.996)" fill="#ffd037"/>
  <path id="Path_191" data-name="Path 191" d="M930.246,588.129c-1.66.9-3.112,1.452-3.251,1.245s1.107-1.176,2.767-2.075,1.037-.208,1.106,0S931.906,587.23,930.246,588.129Z" transform="translate(-391.85 -180.988)" fill="#ffd037"/>
  <path id="Path_192" data-name="Path 192" d="M881.493,575.5s-4.08,5.394,1.867,13.486,10.927,14.939,8.922,19.987c0,0-9.06-15.077-16.391-15.215S873.4,584.56,881.493,575.5Z" transform="translate(-374.98 -177.487)" fill="#38d39f"/>
  <path id="Path_193" data-name="Path 193" d="M881.516,575.5a9.3,9.3,0,0,0-.83,1.66c-7.193,8.437-11,16.322-4.08,16.529,6.432.207,14.178,11.688,15.976,14.592-.069.207-.138.415-.208.691,0,0-9.06-15.077-16.391-15.215S873.424,584.56,881.516,575.5Z" transform="translate(-375.002 -177.487)" opacity="0.1"/>
  <path id="Path_194" data-name="Path 194" d="M874.6,584.855c0,1.867.208,3.389.484,3.389s.484-1.522.484-3.389-.276-1.037-.553-1.037S874.6,582.988,874.6,584.855Z" transform="translate(-375.694 -179.996)" fill="#ffd037"/>
  <path id="Path_195" data-name="Path 195" d="M870.37,588.129c1.66.9,3.112,1.452,3.25,1.245s-1.106-1.176-2.766-2.075-1.037-.208-1.106,0S868.71,587.23,870.37,588.129Z" transform="translate(-374.092 -180.988)" fill="#ffd037"/>
  <path id="Path_196" data-name="Path 196" d="M913.39,612.388l-.208,1.66-.277,2.352-.138.968-.277,2.351-.139.968-.276,2.352-3.32,26.9c-.277,2.421-4.219,4.288-8.922,4.288H882.752c-4.7,0-8.645-1.867-8.921-4.288l-3.32-26.9-.276-2.352-.138-.968-.277-2.351-.138-.968-.277-2.352-.207-1.66c-.139-1.383,1.936-2.49,4.634-2.49h34.856C911.454,609.829,913.6,611.005,913.39,612.388Z" transform="translate(-374.026 -188.095)" fill="#444053"/>
  <path id="Path_197" data-name="Path 197" d="M913.309,615.9l-.276,2.351H869.877L869.6,615.9Z" transform="translate(-374.153 -189.947)" fill="#9d9cb5"/>
  <path id="Path_198" data-name="Path 198" d="M913.148,620.7l-.346,2.351H870.476L870.2,620.7Z" transform="translate(-374.337 -191.427)" fill="#9d9cb5"/>
  <path id="Path_199" data-name="Path 199" d="M912.918,625.6l-.277,2.351H871.077L870.8,625.6Z" transform="translate(-374.522 -192.939)" fill="#9d9cb5"/>
</svg>
