<svg xmlns="http://www.w3.org/2000/svg" width="598.331" height="605.224" viewBox="0 0 598.331 605.224">
  <g id="Group_276" data-name="Group 276" transform="translate(340.087 -2851.751)">
    <g id="leaves" transform="translate(-340.087 3236.295) rotate(-59)" opacity="0.8">
      <path id="Path_202" data-name="Path 202" d="M448.622,374.971s-23.711-9.652-99.04,24.97-84.563,30.216-104.078,24.97-30.426-6.5-51.2-35.462c0,0-14.688-79.946-28.957-92.326s-75.121,7.134-75.121,7.134-72.6,16.787-86.661-80.366c0,0,9.863-73.232-3.567-95.684,0,0,27.068,11.751,71.553-7.134s80.155,20.354,80.155,20.354S163.04,170.594,161.78,187.8s5.876,23.921,27.279,15.528c0,0,10.491-14.9-4.406-39.449s-25.39-42.806-21.193-61.9S179.407,56.445,217.6,43.226s90.017-15.737,114.778-26.019S363.639,0,363.639,0s-15.318,15.318,20.774,80.366,13.009,93.166,13.009,93.166S378.328,219.275,293.556,215.5c0,0-81.626,2.938-37.142,37.56,0,0,28.538-5.875,71.134-19.3s73.232,42.386,81,81.205C416.1,353.778,448.622,374.971,448.622,374.971Z" fill="#38d39f"/>
      <path id="Path_203" data-name="Path 203" d="M64.418.21,64.838,0C68.195,12.38,31.684,62.32.419,101.769L0,101.559C44.274,45.953,67.146,9.862,64.418.21Z" transform="translate(274.461 48.891)" fill="#444053"/>
      <path id="Path_204" data-name="Path 204" d="M88.55,0l.21.42C63.789,32.1,32.524,69.874,7.554,97.782c-2.307,2.728-4.826,5.456-6.924,8.393L0,105.546c2.308-2.938,4.616-5.665,7.135-8.393C31.895,69.245,63.789,31.685,88.55,0Z" transform="translate(186.751 149.821)" fill="#444053"/>
      <path id="Path_205" data-name="Path 205" d="M57.914,0l.419.839C12.8,57.7,9.652,146.044,9.652,146.883L0,135.972C.21,134.922,11.96,57.284,57.914,0Z" transform="translate(129.257 254.737)" fill="#444053"/>
      <path id="Path_206" data-name="Path 206" d="M354.617,186.332S300.9,158.424,258.933,168.5s-136.182-35.462-136.182-35.462S82.674,116.667,74.7,98.2c0,0-27.488-29.167-28.957-44.065S17.416,1.259,0,0" transform="translate(41.127 157.794)" fill="none" stroke="#444053" stroke-miterlimit="10" stroke-width="1"/>
      <path id="Path_207" data-name="Path 207" d="M24.176,39.449S-2.893,21.193.255,0" transform="translate(363.805 331.536)" fill="none" stroke="#444053" stroke-miterlimit="10" stroke-width="1"/>
      <path id="Path_208" data-name="Path 208" d="M42.6,69.245S3.778,55.186,0,0" transform="translate(303.838 325.451)" fill="none" stroke="#444053" stroke-miterlimit="10" stroke-width="1"/>
      <path id="Path_209" data-name="Path 209" d="M27.22,84.353S-9.71,53.717,2.461,0" transform="translate(256.682 324.611)" fill="none" stroke="#444053" stroke-miterlimit="10" stroke-width="1"/>
      <path id="Path_210" data-name="Path 210" d="M11.767,85.192S-12.783,33.573,9.039,0" transform="translate(197.017 308.664)" fill="none" stroke="#444053" stroke-miterlimit="10" stroke-width="1"/>
      <path id="Path_211" data-name="Path 211" d="M22.846,0S-5.062,8.813.813,23.711" transform="translate(373.529 310.133)" fill="none" stroke="#444053" stroke-miterlimit="10" stroke-width="1"/>
      <path id="Path_212" data-name="Path 212" d="M38.4,0S.839,11.961,0,64.838" transform="translate(324.192 259.353)" fill="none" stroke="#444053" stroke-miterlimit="10" stroke-width="1"/>
      <path id="Path_213" data-name="Path 213" d="M31.818,0S-2.385,42.176.132,80.366" transform="translate(278.526 246.973)" fill="none" stroke="#444053" stroke-miterlimit="10" stroke-width="1"/>
      <path id="Path_214" data-name="Path 214" d="M29.981,0S-4.012,32.314.394,50.36" transform="translate(220.56 263.55)" fill="none" stroke="#444053" stroke-miterlimit="10" stroke-width="1"/>
      <path id="Path_215" data-name="Path 215" d="M36.3,4.826S4.616,10.492,0,0" transform="translate(193.886 247.393)" fill="none" stroke="#444053" stroke-miterlimit="10" stroke-width="1"/>
      <path id="Path_216" data-name="Path 216" d="M0,0S16.157,21.193,20.144,16.577" transform="translate(188.85 213.82)" fill="none" stroke="#444053" stroke-miterlimit="10" stroke-width="1"/>
      <path id="Path_217" data-name="Path 217" d="M98.2,18.256S18.046,24.131,0,0" transform="translate(249.701 182.135)" fill="none" stroke="#444053" stroke-miterlimit="10" stroke-width="1"/>
      <path id="Path_218" data-name="Path 218" d="M0,0S37.561,80.576,64.839,90.858" transform="translate(172.063 106.595)" fill="none" stroke="#444053" stroke-miterlimit="10" stroke-width="1"/>
      <path id="Path_219" data-name="Path 219" d="M0,0S23.082,74.071,51.619,97.362" transform="translate(211.511 68.196)" fill="none" stroke="#444053" stroke-miterlimit="10" stroke-width="1"/>
      <path id="Path_220" data-name="Path 220" d="M97.362.21S36.51,26.229,0,0" transform="translate(284.324 138.909)" fill="none" stroke="#444053" stroke-miterlimit="10" stroke-width="0.75"/>
      <path id="Path_221" data-name="Path 221" d="M0,0S13.849,54.557,32.734,67.776" transform="translate(265.648 52.458)" fill="none" stroke="#444053" stroke-miterlimit="10" stroke-width="0.75"/>
      <path id="Path_222" data-name="Path 222" d="M47,0S12.8,13.01,0,2.938" transform="translate(325.451 78.058)" fill="none" stroke="#444053" stroke-miterlimit="10" stroke-width="0.75"/>
      <path id="Path_223" data-name="Path 223" d="M13.01,0S13.01,47.632,0,50.989" transform="translate(146.463 231.655)" fill="none" stroke="#444053" stroke-miterlimit="10" stroke-width="1"/>
      <path id="Path_224" data-name="Path 224" d="M0,22.032S51.409,26.439,75.12,0" transform="translate(53.718 271.104)" fill="none" stroke="#444053" stroke-miterlimit="10" stroke-width="1"/>
      <path id="Path_225" data-name="Path 225" d="M46.792,0S34.412,48.262,0,61.271" transform="translate(99.46 175.42)" fill="none" stroke="#444053" stroke-miterlimit="10" stroke-width="1"/>
      <path id="Path_226" data-name="Path 226" d="M0,19.515S36.3,32.1,67.777,0" transform="translate(22.872 222.842)" fill="none" stroke="#444053" stroke-miterlimit="10" stroke-width="1"/>
      <path id="Path_227" data-name="Path 227" d="M25.809,0S22.452,40.917,0,60.012" transform="translate(79.946 133.873)" fill="none" stroke="#444053" stroke-miterlimit="10" stroke-width="1"/>
      <path id="Path_228" data-name="Path 228" d="M0,9.652S30.216,9.862,37.351,0" transform="translate(24.34 170.384)" fill="none" stroke="#444053" stroke-miterlimit="10" stroke-width="1"/>
    </g>
    <g id="leaves-2" data-name="leaves" transform="translate(-286.399 3241.871) rotate(-59)" opacity="0.8">
      <path id="Path_203-2" data-name="Path 203" d="M64.418.21,64.838,0C68.195,12.38,31.684,62.32.419,101.769L0,101.559C44.274,45.953,67.146,9.862,64.418.21Z" transform="translate(251.589 0)" fill="#444053"/>
      <path id="Path_204-2" data-name="Path 204" d="M88.55,0l.21.42C63.789,32.1,32.524,69.874,7.554,97.782c-2.307,2.728-4.826,5.456-6.924,8.393L0,105.546c2.308-2.938,4.616-5.665,7.135-8.393C31.895,69.245,63.789,31.685,88.55,0Z" transform="translate(163.879 100.93)" fill="#444053"/>
      <path id="Path_205-2" data-name="Path 205" d="M57.914,0l.419.839C12.8,57.7,9.652,146.044,9.652,146.883L0,135.972C.21,134.922,11.96,57.284,57.914,0Z" transform="translate(106.385 205.846)" fill="#444053"/>
      <path id="Path_206-2" data-name="Path 206" d="M354.617,186.332S300.9,158.424,258.933,168.5s-136.182-35.462-136.182-35.462S82.674,116.667,74.7,98.2c0,0-27.488-29.167-28.957-44.065S17.416,1.259,0,0" transform="translate(18.255 108.903)" fill="none" stroke="#444053" stroke-miterlimit="10" stroke-width="1"/>
      <path id="Path_207-2" data-name="Path 207" d="M24.176,39.449S-2.893,21.193.255,0" transform="translate(340.933 282.645)" fill="none" stroke="#444053" stroke-miterlimit="10" stroke-width="1"/>
      <path id="Path_208-2" data-name="Path 208" d="M42.6,69.245S3.778,55.186,0,0" transform="translate(280.966 276.56)" fill="none" stroke="#444053" stroke-miterlimit="10" stroke-width="1"/>
      <path id="Path_209-2" data-name="Path 209" d="M27.22,84.353S-9.71,53.717,2.461,0" transform="translate(233.811 275.72)" fill="none" stroke="#444053" stroke-miterlimit="10" stroke-width="1"/>
      <path id="Path_210-2" data-name="Path 210" d="M11.767,85.192S-12.783,33.573,9.039,0" transform="translate(174.146 259.773)" fill="none" stroke="#444053" stroke-miterlimit="10" stroke-width="1"/>
      <path id="Path_211-2" data-name="Path 211" d="M22.846,0S-5.062,8.813.813,23.711" transform="translate(350.657 261.242)" fill="none" stroke="#444053" stroke-miterlimit="10" stroke-width="1"/>
      <path id="Path_212-2" data-name="Path 212" d="M38.4,0S.839,11.961,0,64.838" transform="translate(301.32 210.462)" fill="none" stroke="#444053" stroke-miterlimit="10" stroke-width="1"/>
      <path id="Path_213-2" data-name="Path 213" d="M31.818,0S-2.385,42.176.132,80.366" transform="translate(255.654 198.082)" fill="none" stroke="#444053" stroke-miterlimit="10" stroke-width="1"/>
      <path id="Path_214-2" data-name="Path 214" d="M29.981,0S-4.012,32.314.394,50.36" transform="translate(197.688 214.659)" fill="none" stroke="#444053" stroke-miterlimit="10" stroke-width="1"/>
      <path id="Path_215-2" data-name="Path 215" d="M36.3,4.826S4.616,10.492,0,0" transform="translate(171.014 198.502)" fill="none" stroke="#444053" stroke-miterlimit="10" stroke-width="1"/>
      <path id="Path_216-2" data-name="Path 216" d="M0,0S16.157,21.193,20.144,16.577" transform="translate(165.978 164.929)" fill="none" stroke="#444053" stroke-miterlimit="10" stroke-width="1"/>
      <path id="Path_217-2" data-name="Path 217" d="M98.2,18.256S18.046,24.131,0,0" transform="translate(226.829 133.244)" fill="none" stroke="#444053" stroke-miterlimit="10" stroke-width="1"/>
      <path id="Path_218-2" data-name="Path 218" d="M0,0S37.561,80.576,64.839,90.858" transform="translate(149.191 57.704)" fill="none" stroke="#444053" stroke-miterlimit="10" stroke-width="1"/>
      <path id="Path_219-2" data-name="Path 219" d="M0,0S23.082,74.071,51.619,97.362" transform="translate(188.64 19.305)" fill="none" stroke="#444053" stroke-miterlimit="10" stroke-width="1"/>
      <path id="Path_220-2" data-name="Path 220" d="M97.362.21S36.51,26.229,0,0" transform="translate(261.452 90.018)" fill="none" stroke="#444053" stroke-miterlimit="10" stroke-width="0.75"/>
      <path id="Path_221-2" data-name="Path 221" d="M0,0S13.849,54.557,32.734,67.776" transform="translate(242.777 3.567)" fill="none" stroke="#444053" stroke-miterlimit="10" stroke-width="0.75"/>
      <path id="Path_222-2" data-name="Path 222" d="M47,0S12.8,13.01,0,2.938" transform="translate(302.579 29.167)" fill="none" stroke="#444053" stroke-miterlimit="10" stroke-width="0.75"/>
      <path id="Path_223-2" data-name="Path 223" d="M13.01,0S13.01,47.632,0,50.989" transform="translate(123.591 182.764)" fill="none" stroke="#444053" stroke-miterlimit="10" stroke-width="1"/>
      <path id="Path_224-2" data-name="Path 224" d="M0,22.032S51.409,26.439,75.12,0" transform="translate(30.846 222.213)" fill="none" stroke="#444053" stroke-miterlimit="10" stroke-width="1"/>
      <path id="Path_225-2" data-name="Path 225" d="M46.792,0S34.412,48.262,0,61.271" transform="translate(76.588 126.529)" fill="none" stroke="#444053" stroke-miterlimit="10" stroke-width="1"/>
      <path id="Path_226-2" data-name="Path 226" d="M0,19.515S36.3,32.1,67.777,0" transform="translate(0 173.951)" fill="none" stroke="#444053" stroke-miterlimit="10" stroke-width="1"/>
      <path id="Path_227-2" data-name="Path 227" d="M25.809,0S22.452,40.917,0,60.012" transform="translate(57.074 84.982)" fill="none" stroke="#444053" stroke-miterlimit="10" stroke-width="1"/>
      <path id="Path_228-2" data-name="Path 228" d="M0,9.652S30.216,9.862,37.351,0" transform="translate(1.469 121.493)" fill="none" stroke="#444053" stroke-miterlimit="10" stroke-width="1"/>
    </g>
  </g>
</svg>
