<svg xmlns="http://www.w3.org/2000/svg" width="503.138" height="564.021" viewBox="0 0 503.138 564.021">
  <g id="Group_274" data-name="Group 274" transform="translate(0 -9.624)">
    <g id="Leaves" transform="translate(0 388.075) rotate(-59)" opacity="0.8">
      <path id="Path_202" data-name="Path 202" d="M377.247,315.314s-19.938-8.117-83.283,21-71.109,25.409-87.519,21-25.585-5.47-43.054-29.82c0,0-12.351-67.227-24.35-77.638s-63.169,6-63.169,6S14.821,269.967,3,188.271c0,0,8.294-61.581-3-80.461,0,0,22.762,9.881,60.169-6s67.4,17.116,67.4,17.116,9.529,24.526,8.47,39,4.941,20.115,22.938,13.057c0,0,8.822-12.528-3.705-33.172s-21.35-36-17.821-52.052,13.41-38.289,45.524-49.406,75.7-13.234,96.517-21.88S305.786,0,305.786,0,292.9,12.881,323.254,67.58s10.94,78.343,10.94,78.343-16.056,38.466-87.342,35.29c0,0-68.64,2.47-31.233,31.584,0,0,24-4.941,59.817-16.233s61.581,35.643,68.11,68.286C349.9,297.493,377.247,315.314,377.247,315.314Z" fill="#38d39f"/>
      <path id="Path_203" data-name="Path 203" d="M54.169.176,54.522,0C57.345,10.411,26.643,52.405.352,85.578L0,85.4C37.23,38.642,56.463,8.293,54.169.176Z" transform="translate(230.795 41.113)" fill="#444053"/>
      <path id="Path_204" data-name="Path 204" d="M74.462,0l.176.353C53.641,27,27.35,58.758,6.352,82.225c-1.94,2.294-4.058,4.588-5.823,7.058L0,88.754c1.941-2.47,3.882-4.764,6-7.058C26.82,58.228,53.641,26.644,74.462,0Z" transform="translate(157.04 125.985)" fill="#444053"/>
      <path id="Path_205" data-name="Path 205" d="M48.7,0l.353.706C10.763,48.524,8.116,122.809,8.116,123.514L0,114.339C.176,113.457,10.058,48.171,48.7,0Z" transform="translate(108.692 214.209)" fill="#444053"/>
      <path id="Path_206" data-name="Path 206" d="M298.2,156.687s-45.171-23.468-80.461-15-114.516-29.82-114.516-29.82-33.7-13.763-40.406-29.291c0,0-23.115-24.526-24.35-37.054S14.645,1.059,0,0" transform="translate(34.584 132.69)" fill="none" stroke="#444053" stroke-miterlimit="10" stroke-width="1"/>
      <path id="Path_207" data-name="Path 207" d="M20.329,33.173S-2.433,17.821.214,0" transform="translate(305.925 278.789)" fill="none" stroke="#444053" stroke-miterlimit="10" stroke-width="1"/>
      <path id="Path_208" data-name="Path 208" d="M35.819,58.228S3.177,46.406,0,0" transform="translate(255.498 273.673)" fill="none" stroke="#444053" stroke-miterlimit="10" stroke-width="1"/>
      <path id="Path_209" data-name="Path 209" d="M22.889,70.933S-8.165,45.171,2.069,0" transform="translate(215.845 272.967)" fill="none" stroke="#444053" stroke-miterlimit="10" stroke-width="1"/>
      <path id="Path_210" data-name="Path 210" d="M9.895,71.638S-10.75,28.232,7.6,0" transform="translate(165.673 259.557)" fill="none" stroke="#444053" stroke-miterlimit="10" stroke-width="1"/>
      <path id="Path_211" data-name="Path 211" d="M19.211,0S-4.257,7.411.683,19.939" transform="translate(314.102 260.792)" fill="none" stroke="#444053" stroke-miterlimit="10" stroke-width="1"/>
      <path id="Path_212" data-name="Path 212" d="M32.29,0S.706,10.058,0,54.523" transform="translate(272.614 218.091)" fill="none" stroke="#444053" stroke-miterlimit="10" stroke-width="1"/>
      <path id="Path_213" data-name="Path 213" d="M26.756,0S-2.006,35.466.111,67.58" transform="translate(234.213 207.681)" fill="none" stroke="#444053" stroke-miterlimit="10" stroke-width="1"/>
      <path id="Path_214" data-name="Path 214" d="M25.211,0S-3.374,27.173.331,42.348" transform="translate(185.469 221.62)" fill="none" stroke="#444053" stroke-miterlimit="10" stroke-width="1"/>
      <path id="Path_215" data-name="Path 215" d="M30.526,4.058S3.882,8.822,0,0" transform="translate(163.039 208.033)" fill="none" stroke="#444053" stroke-miterlimit="10" stroke-width="1"/>
      <path id="Path_216" data-name="Path 216" d="M0,0S13.587,17.821,16.939,13.939" transform="translate(158.804 179.802)" fill="none" stroke="#444053" stroke-miterlimit="10" stroke-width="1"/>
      <path id="Path_217" data-name="Path 217" d="M82.578,15.351S15.175,20.292,0,0" transform="translate(209.974 153.158)" fill="none" stroke="#444053" stroke-miterlimit="10" stroke-width="1"/>
      <path id="Path_218" data-name="Path 218" d="M0,0S31.585,67.756,54.524,76.4" transform="translate(144.688 89.636)" fill="none" stroke="#444053" stroke-miterlimit="10" stroke-width="1"/>
      <path id="Path_219" data-name="Path 219" d="M0,0S19.41,62.287,43.407,81.872" transform="translate(177.861 57.346)" fill="none" stroke="#444053" stroke-miterlimit="10" stroke-width="1"/>
      <path id="Path_220" data-name="Path 220" d="M81.872.176S30.7,22.056,0,0" transform="translate(239.089 116.809)" fill="none" stroke="#444053" stroke-miterlimit="10" stroke-width="0.75"/>
      <path id="Path_221" data-name="Path 221" d="M0,0S11.646,45.877,27.526,56.993" transform="translate(223.385 44.112)" fill="none" stroke="#444053" stroke-miterlimit="10" stroke-width="0.75"/>
      <path id="Path_222" data-name="Path 222" d="M39.524,0S10.763,10.94,0,2.47" transform="translate(273.672 65.639)" fill="none" stroke="#444053" stroke-miterlimit="10" stroke-width="0.75"/>
      <path id="Path_223" data-name="Path 223" d="M10.94,0S10.94,40.054,0,42.877" transform="translate(123.161 194.8)" fill="none" stroke="#444053" stroke-miterlimit="10" stroke-width="1"/>
      <path id="Path_224" data-name="Path 224" d="M0,18.527S43.23,22.232,63.169,0" transform="translate(45.171 227.972)" fill="none" stroke="#444053" stroke-miterlimit="10" stroke-width="1"/>
      <path id="Path_225" data-name="Path 225" d="M39.348,0S28.937,40.583,0,51.523" transform="translate(83.636 147.511)" fill="none" stroke="#444053" stroke-miterlimit="10" stroke-width="1"/>
      <path id="Path_226" data-name="Path 226" d="M0,16.41S30.526,27,56.994,0" transform="translate(19.233 187.389)" fill="none" stroke="#444053" stroke-miterlimit="10" stroke-width="1"/>
      <path id="Path_227" data-name="Path 227" d="M21.7,0S18.88,34.408,0,50.464" transform="translate(67.227 112.574)" fill="none" stroke="#444053" stroke-miterlimit="10" stroke-width="1"/>
      <path id="Path_228" data-name="Path 228" d="M0,8.117S25.409,8.293,31.409,0" transform="translate(20.468 143.277)" fill="none" stroke="#444053" stroke-miterlimit="10" stroke-width="1"/>
    </g>
    <g id="leaves-2" data-name="leaves" transform="matrix(0.978, 0.208, -0.208, 0.978, 181.153, 0)" opacity="0.6">
      <path id="Path_114" data-name="Path 114" d="M88.065,83.184S68.613,48.736,39.328,38.833A59.989,59.989,0,0,1,8.983,16.127,105.52,105.52,0,0,1,0,0" transform="translate(20.955 54.07)" fill="none" stroke="#535461" stroke-miterlimit="10" stroke-width="2"/>
      <path id="Path_115" data-name="Path 115" d="M2.635,14.589c3.325,3.254,18.886,6.578,18.886,6.578S17.7,5.747,14.377,2.493a8.326,8.326,0,0,0-11.883,0,8.326,8.326,0,0,0,0,11.883c0,.071.071.141.141.212Z" transform="translate(0 33.115)" fill="#38d39f"/>
      <path id="Path_116" data-name="Path 116" d="M6.769,16.719c4.527.92,19.452-4.739,19.452-4.739S14.62,1.087,10.093.167a8.431,8.431,0,0,0-9.9,6.649,8.3,8.3,0,0,0,6.578,9.9Z" transform="translate(4.637 58.926)" fill="#38d39f"/>
      <path id="Path_117" data-name="Path 117" d="M11.2,16.28C15.584,14.794,25.558,2.416,25.558,2.416S10.067-1.121,5.682.364A8.422,8.422,0,1,0,11.2,16.28Z" transform="translate(32.179 89.568)" fill="#38d39f"/>
      <path id="Path_118" data-name="Path 118" d="M9.739,16.68c4.6-.778,16.552-11.247,16.552-11.247S11.649-.65,7.051.057A8.419,8.419,0,0,0,9.739,16.68Z" transform="translate(62.994 106.569)" fill="#38d39f"/>
      <path id="Path_119" data-name="Path 119" d="M16.835,8.417c0,4.669-8.417,18.108-8.417,18.108S0,13.086,0,8.417a8.417,8.417,0,0,1,16.835,0Z" transform="translate(26.968 50.463)" fill="#38d39f"/>
      <path id="Path_120" data-name="Path 120" d="M16.358,10.938c-1.415,4.456-13.44,14.784-13.44,14.784S-1.114,10.3.3,5.915a8.412,8.412,0,0,1,16.057,5.022Z" transform="translate(61.539 68.739)" fill="#38d39f"/>
      <path id="Path_121" data-name="Path 121" d="M16.737,9.558C16.1,14.156,5.985,26.393,5.985,26.393S-.593,11.892.043,7.295A8.423,8.423,0,1,1,16.737,9.558Z" transform="translate(91.505 94.875)" fill="#38d39f"/>
      <path id="Path_122" data-name="Path 122" d="M2.635,14.589c3.325,3.254,18.886,6.578,18.886,6.578S17.7,5.747,14.377,2.493a8.326,8.326,0,0,0-11.883,0,8.326,8.326,0,0,0,0,11.883c0,.071.071.141.141.212Z" transform="translate(0 33.115)" opacity="0.25"/>
      <path id="Path_123" data-name="Path 123" d="M6.769,16.719c4.527.92,19.452-4.739,19.452-4.739S14.62,1.087,10.093.167a8.431,8.431,0,0,0-9.9,6.649,8.3,8.3,0,0,0,6.578,9.9Z" transform="translate(4.637 58.926)" opacity="0.25"/>
      <path id="Path_124" data-name="Path 124" d="M11.2,16.28C15.584,14.794,25.558,2.416,25.558,2.416S10.067-1.121,5.682.364A8.422,8.422,0,1,0,11.2,16.28Z" transform="translate(32.179 89.568)" opacity="0.25"/>
      <path id="Path_125" data-name="Path 125" d="M9.739,16.68c4.6-.778,16.552-11.247,16.552-11.247S11.649-.65,7.051.057A8.419,8.419,0,0,0,9.739,16.68Z" transform="translate(62.994 106.569)" opacity="0.25"/>
      <path id="Path_126" data-name="Path 126" d="M16.835,8.417c0,4.669-8.417,18.108-8.417,18.108S0,13.086,0,8.417a8.417,8.417,0,0,1,16.835,0Z" transform="translate(26.968 50.463)" opacity="0.25"/>
      <path id="Path_127" data-name="Path 127" d="M16.358,10.938c-1.415,4.456-13.44,14.784-13.44,14.784S-1.114,10.3.3,5.915a8.412,8.412,0,0,1,16.057,5.022Z" transform="translate(61.539 68.739)" opacity="0.25"/>
      <path id="Path_128" data-name="Path 128" d="M16.737,9.558C16.1,14.156,5.985,26.393,5.985,26.393S-.593,11.892.043,7.295A8.423,8.423,0,1,1,16.737,9.558Z" transform="translate(91.505 94.875)" opacity="0.25"/>
      <path id="Path_129" data-name="Path 129" d="M46.826,111.69s-3.82-39.4-26.6-60.337A59.409,59.409,0,0,1,1.7,18.32,99.768,99.768,0,0,1,0,0" transform="translate(61.132 24.928)" fill="none" stroke="#535461" stroke-miterlimit="10" stroke-width="2"/>
      <path id="Path_130" data-name="Path 130" d="M.624,11.559C2.393,15.874,15.2,25.211,15.2,25.211S17.954,9.578,16.257,5.264a8.426,8.426,0,1,0-15.632,6.3Z" transform="translate(46.29 0)" fill="#38d39f"/>
      <path id="Path_131" data-name="Path 131" d="M3.592,15.334c3.82,2.688,19.664,3.537,19.664,3.537S17.1,4.229,13.283,1.541A8.429,8.429,0,0,0,3.592,15.334Z" transform="translate(40.069 25.368)" fill="#38d39f"/>
      <path id="Path_132" data-name="Path 132" d="M7.735,16.8c4.6.354,18.745-6.861,18.745-6.861S13.748.46,9.15.035A8.412,8.412,0,1,0,7.735,16.8Z" transform="translate(52.902 64.433)" fill="#38d39f"/>
      <path id="Path_133" data-name="Path 133" d="M6.694,16.738c4.527,1.132,19.664-3.608,19.664-3.608S15.394,1.6,10.938.4A8.345,8.345,0,0,0,.4,5.915,8.345,8.345,0,0,0,5.915,16.455a5.375,5.375,0,0,1,.778.283Z" transform="translate(73.749 92.364)" fill="#38d39f"/>
      <path id="Path_134" data-name="Path 134" d="M16.186,11.875C14.276,16.119,1.12,25.032,1.12,25.032S-1.144,9.329.766,5.014a8.439,8.439,0,1,1,15.42,6.861Z" transform="translate(63.832 26.563)" fill="#38d39f"/>
      <path id="Path_135" data-name="Path 135" d="M18.32,13.953C15.279,17.419,0,22.017,0,22.017S2.547,6.314,5.659,2.848A8.421,8.421,0,1,1,18.32,13.953Z" transform="translate(84.475 57.306)" fill="#38d39f"/>
      <path id="Path_136" data-name="Path 136" d="M16.624,12.868C14.219,16.829,0,23.9,0,23.9S-.14,7.987,2.336,4.026a8.4,8.4,0,1,1,14.288,8.842Z" transform="translate(103.854 93.334)" fill="#38d39f"/>
    </g>
  </g>
</svg>
