<svg xmlns="http://www.w3.org/2000/svg" width="325.53" height="420.443" viewBox="0 0 325.53 420.443">
  <g id="Left_Leaves" data-name="Left Leaves" transform="translate(0 -18.036)">
    <g id="Group_11" data-name="Group 11" transform="matrix(0.966, -0.259, 0.259, 0.966, 0, 190.923)" opacity="0.8">
      <path id="Path_202" data-name="Path 202" d="M268.341,224.287s-14.183-5.773-59.241,14.936S158.52,257.3,146.847,254.158s-18.2-3.891-30.625-21.211c0,0-8.786-47.819-17.32-55.225s-44.933,4.267-44.933,4.267-43.426,10.041-51.836-48.07c0,0,5.9-43.8-2.133-57.233,0,0,16.191,7.029,42.8-4.267S90.743,84.594,90.743,84.594s6.778,17.446,6.024,27.738,3.515,14.308,16.317,9.288c0,0,6.275-8.911-2.636-23.6S95.262,72.419,97.773,61s9.538-27.236,32.381-35.143S184,16.442,198.808,10.292,217.509,0,217.509,0s-9.162,9.162,12.426,48.07,7.782,55.727,7.782,55.727-11.421,27.361-62.127,25.1c0,0-48.824,1.757-22.216,22.466,0,0,17.07-3.514,42.548-11.547s43.8,25.353,48.447,48.573C248.887,211.61,268.341,224.287,268.341,224.287Z" fill="#38d39f"/>
      <path id="Path_203" data-name="Path 203" d="M38.531.126,38.782,0C40.79,7.405,18.952,37.277.251,60.872L0,60.747C26.482,27.487,40.163,5.9,38.531.126Z" transform="translate(164.167 29.244)" fill="#444053"/>
      <path id="Path_204" data-name="Path 204" d="M52.966,0l.126.251C38.155,19.2,19.454,41.795,4.518,58.488c-1.38,1.632-2.887,3.263-4.142,5.02L0,63.132c1.381-1.757,2.761-3.389,4.268-5.02C19.078,41.418,38.155,18.952,52.966,0Z" transform="translate(111.704 89.614)" fill="#444053"/>
      <path id="Path_205" data-name="Path 205" d="M34.641,0l.251.5C7.656,34.515,5.773,87.355,5.773,87.857L0,81.331C.125,80.7,7.154,34.264,34.641,0Z" transform="translate(77.314 152.37)" fill="#444053"/>
      <path id="Path_206" data-name="Path 206" d="M212.112,111.453s-32.13-16.693-57.233-10.668S73.423,79.574,73.423,79.574s-23.972-9.79-28.741-20.835c0,0-16.442-17.446-17.32-26.357S10.417.753,0,0" transform="translate(24.6 94.384)" fill="none" stroke="#444053" stroke-miterlimit="10" stroke-width="1"/>
      <path id="Path_207" data-name="Path 207" d="M14.461,23.6S-1.73,12.677.152,0" transform="translate(217.608 198.306)" fill="none" stroke="#444053" stroke-miterlimit="10" stroke-width="1"/>
      <path id="Path_208" data-name="Path 208" d="M25.478,41.418S2.26,33.009,0,0" transform="translate(181.739 194.667)" fill="none" stroke="#444053" stroke-miterlimit="10" stroke-width="1"/>
      <path id="Path_209" data-name="Path 209" d="M16.282,50.455S-5.808,32.131,1.472,0" transform="translate(153.533 194.164)" fill="none" stroke="#444053" stroke-miterlimit="10" stroke-width="1"/>
      <path id="Path_210" data-name="Path 210" d="M7.038,50.957S-7.646,20.082,5.406,0" transform="translate(117.845 184.626)" fill="none" stroke="#444053" stroke-miterlimit="10" stroke-width="1"/>
      <path id="Path_211" data-name="Path 211" d="M13.665,0S-3.028,5.271.486,14.183" transform="translate(223.424 185.504)" fill="none" stroke="#444053" stroke-miterlimit="10" stroke-width="1"/>
      <path id="Path_212" data-name="Path 212" d="M22.968,0S.5,7.154,0,38.783" transform="translate(193.914 155.131)" fill="none" stroke="#444053" stroke-miterlimit="10" stroke-width="1"/>
      <path id="Path_213" data-name="Path 213" d="M19.032,0S-1.427,25.227.079,48.071" transform="translate(166.599 147.726)" fill="none" stroke="#444053" stroke-miterlimit="10" stroke-width="1"/>
      <path id="Path_214" data-name="Path 214" d="M17.933,0S-2.4,19.329.236,30.123" transform="translate(131.927 157.641)" fill="none" stroke="#444053" stroke-miterlimit="10" stroke-width="1"/>
      <path id="Path_215" data-name="Path 215" d="M21.714,2.887S2.761,6.276,0,0" transform="translate(115.972 147.977)" fill="none" stroke="#444053" stroke-miterlimit="10" stroke-width="1"/>
      <path id="Path_216" data-name="Path 216" d="M0,0S9.664,12.676,12.049,9.915" transform="translate(112.959 127.895)" fill="none" stroke="#444053" stroke-miterlimit="10" stroke-width="1"/>
      <path id="Path_217" data-name="Path 217" d="M58.739,10.919S10.794,14.434,0,0" transform="translate(149.357 108.943)" fill="none" stroke="#444053" stroke-miterlimit="10" stroke-width="1"/>
      <path id="Path_218" data-name="Path 218" d="M0,0S22.467,48.2,38.783,54.346" transform="translate(102.918 63.759)" fill="none" stroke="#444053" stroke-miterlimit="10" stroke-width="1"/>
      <path id="Path_219" data-name="Path 219" d="M0,0S13.806,44.305,30.876,58.237" transform="translate(126.514 40.791)" fill="none" stroke="#444053" stroke-miterlimit="10" stroke-width="1"/>
      <path id="Path_220" data-name="Path 220" d="M58.237.126S21.838,15.689,0,0" transform="translate(170.067 83.088)" fill="none" stroke="#444053" stroke-miterlimit="10" stroke-width="0.75"/>
      <path id="Path_221" data-name="Path 221" d="M0,0S8.284,32.633,19.58,40.54" transform="translate(158.896 31.378)" fill="none" stroke="#444053" stroke-miterlimit="10" stroke-width="0.75"/>
      <path id="Path_222" data-name="Path 222" d="M28.114,0S7.656,7.782,0,1.757" transform="translate(194.667 46.69)" fill="none" stroke="#444053" stroke-miterlimit="10" stroke-width="0.75"/>
      <path id="Path_223" data-name="Path 223" d="M7.782,0S7.782,28.491,0,30.5" transform="translate(87.606 138.563)" fill="none" stroke="#444053" stroke-miterlimit="10" stroke-width="1"/>
      <path id="Path_224" data-name="Path 224" d="M0,13.179S30.75,15.814,44.933,0" transform="translate(32.131 162.159)" fill="none" stroke="#444053" stroke-miterlimit="10" stroke-width="1"/>
      <path id="Path_225" data-name="Path 225" d="M27.989,0S20.583,28.867,0,36.649" transform="translate(59.492 104.927)" fill="none" stroke="#444053" stroke-miterlimit="10" stroke-width="1"/>
      <path id="Path_226" data-name="Path 226" d="M0,11.672S21.713,19.2,40.54,0" transform="translate(13.681 133.292)" fill="none" stroke="#444053" stroke-miterlimit="10" stroke-width="1"/>
      <path id="Path_227" data-name="Path 227" d="M15.438,0S13.429,24.474,0,35.9" transform="translate(47.819 80.076)" fill="none" stroke="#444053" stroke-miterlimit="10" stroke-width="1"/>
      <path id="Path_228" data-name="Path 228" d="M0,5.773S18.074,5.9,22.341,0" transform="translate(14.559 101.914)" fill="none" stroke="#444053" stroke-miterlimit="10" stroke-width="1"/>
    </g>
    <g id="abffebd3-2ac6-4c6b-a0d4-e62621854ed7_1_" transform="translate(187.274 0) rotate(57)" opacity="0.6">
      <path id="Path_114" data-name="Path 114" d="M88.064,83.184S68.612,48.736,39.328,38.833A59.989,59.989,0,0,1,8.983,16.127,105.52,105.52,0,0,1,0,0" transform="translate(20.955 54.07)" fill="none" stroke="#535461" stroke-miterlimit="10" stroke-width="2"/>
      <path id="Path_115" data-name="Path 115" d="M2.635,14.589c3.325,3.254,18.886,6.578,18.886,6.578S17.7,5.747,14.377,2.493a8.326,8.326,0,0,0-11.883,0,8.326,8.326,0,0,0,0,11.883c0,.071.071.141.141.212Z" transform="translate(0 33.115)" fill="#38d39f"/>
      <path id="Path_116" data-name="Path 116" d="M6.769,16.719c4.527.92,19.452-4.739,19.452-4.739S14.62,1.087,10.093.167a8.431,8.431,0,0,0-9.9,6.649,8.3,8.3,0,0,0,6.578,9.9Z" transform="translate(4.637 58.926)" fill="#38d39f"/>
      <path id="Path_117" data-name="Path 117" d="M11.2,16.28C15.584,14.794,25.558,2.416,25.558,2.416S10.067-1.121,5.682.364A8.422,8.422,0,1,0,11.2,16.28Z" transform="translate(32.179 89.568)" fill="#38d39f"/>
      <path id="Path_118" data-name="Path 118" d="M9.739,16.68c4.6-.778,16.552-11.247,16.552-11.247S11.649-.65,7.051.057A8.419,8.419,0,0,0,9.739,16.68Z" transform="translate(62.994 106.569)" fill="#38d39f"/>
      <path id="Path_119" data-name="Path 119" d="M16.835,8.417c0,4.669-8.417,18.108-8.417,18.108S0,13.086,0,8.417a8.417,8.417,0,0,1,16.835,0Z" transform="translate(26.968 50.463)" fill="#38d39f"/>
      <path id="Path_120" data-name="Path 120" d="M16.358,10.938c-1.415,4.456-13.44,14.784-13.44,14.784S-1.114,10.3.3,5.915a8.412,8.412,0,0,1,16.057,5.022Z" transform="translate(61.539 68.739)" fill="#38d39f"/>
      <path id="Path_121" data-name="Path 121" d="M16.737,9.558C16.1,14.156,5.985,26.393,5.985,26.393S-.593,11.892.043,7.295A8.423,8.423,0,1,1,16.737,9.558Z" transform="translate(91.505 94.875)" fill="#38d39f"/>
      <path id="Path_122" data-name="Path 122" d="M2.635,14.589c3.325,3.254,18.886,6.578,18.886,6.578S17.7,5.747,14.377,2.493a8.326,8.326,0,0,0-11.883,0,8.326,8.326,0,0,0,0,11.883c0,.071.071.141.141.212Z" transform="translate(0 33.115)" opacity="0.25"/>
      <path id="Path_123" data-name="Path 123" d="M6.769,16.719c4.527.92,19.452-4.739,19.452-4.739S14.62,1.087,10.093.167a8.431,8.431,0,0,0-9.9,6.649,8.3,8.3,0,0,0,6.578,9.9Z" transform="translate(4.637 58.926)" opacity="0.25"/>
      <path id="Path_124" data-name="Path 124" d="M11.2,16.28C15.584,14.794,25.558,2.416,25.558,2.416S10.067-1.121,5.682.364A8.422,8.422,0,1,0,11.2,16.28Z" transform="translate(32.179 89.568)" opacity="0.25"/>
      <path id="Path_125" data-name="Path 125" d="M9.739,16.68c4.6-.778,16.552-11.247,16.552-11.247S11.649-.65,7.051.057A8.419,8.419,0,0,0,9.739,16.68Z" transform="translate(62.994 106.569)" opacity="0.25"/>
      <path id="Path_126" data-name="Path 126" d="M16.835,8.417c0,4.669-8.417,18.108-8.417,18.108S0,13.086,0,8.417a8.417,8.417,0,0,1,16.835,0Z" transform="translate(26.968 50.463)" opacity="0.25"/>
      <path id="Path_127" data-name="Path 127" d="M16.358,10.938c-1.415,4.456-13.44,14.784-13.44,14.784S-1.114,10.3.3,5.915a8.412,8.412,0,0,1,16.057,5.022Z" transform="translate(61.539 68.739)" opacity="0.25"/>
      <path id="Path_128" data-name="Path 128" d="M16.737,9.558C16.1,14.156,5.985,26.393,5.985,26.393S-.593,11.892.043,7.295A8.423,8.423,0,1,1,16.737,9.558Z" transform="translate(91.505 94.875)" opacity="0.25"/>
      <path id="Path_129" data-name="Path 129" d="M46.826,111.69s-3.82-39.4-26.6-60.337A59.409,59.409,0,0,1,1.7,18.32,99.768,99.768,0,0,1,0,0" transform="translate(61.132 24.928)" fill="none" stroke="#535461" stroke-miterlimit="10" stroke-width="2"/>
      <path id="Path_130" data-name="Path 130" d="M.624,11.559C2.393,15.874,15.2,25.211,15.2,25.211S17.954,9.578,16.257,5.264a8.426,8.426,0,1,0-15.632,6.3Z" transform="translate(46.29 0)" fill="#38d39f"/>
      <path id="Path_131" data-name="Path 131" d="M3.592,15.334c3.82,2.688,19.664,3.537,19.664,3.537S17.1,4.229,13.283,1.541A8.429,8.429,0,0,0,3.592,15.334Z" transform="translate(40.069 25.368)" fill="#38d39f"/>
      <path id="Path_132" data-name="Path 132" d="M7.735,16.8c4.6.354,18.745-6.861,18.745-6.861S13.748.46,9.15.035A8.412,8.412,0,1,0,7.735,16.8Z" transform="translate(52.902 64.433)" fill="#38d39f"/>
      <path id="Path_133" data-name="Path 133" d="M6.694,16.738c4.527,1.132,19.664-3.608,19.664-3.608S15.394,1.6,10.938.4A8.345,8.345,0,0,0,.4,5.915,8.345,8.345,0,0,0,5.915,16.455a5.375,5.375,0,0,1,.778.283Z" transform="translate(73.749 92.364)" fill="#38d39f"/>
      <path id="Path_134" data-name="Path 134" d="M16.186,11.875C14.276,16.119,1.12,25.032,1.12,25.032S-1.144,9.329.766,5.014a8.439,8.439,0,1,1,15.42,6.861Z" transform="translate(63.832 26.563)" fill="#38d39f"/>
      <path id="Path_135" data-name="Path 135" d="M18.32,13.953C15.279,17.419,0,22.017,0,22.017S2.547,6.314,5.659,2.848A8.421,8.421,0,1,1,18.32,13.953Z" transform="translate(84.475 57.306)" fill="#38d39f"/>
      <path id="Path_136" data-name="Path 136" d="M16.624,12.868C14.219,16.829,0,23.9,0,23.9S-.14,7.987,2.336,4.026a8.4,8.4,0,1,1,14.288,8.842Z" transform="translate(103.854 93.334)" fill="#38d39f"/>
    </g>
  </g>
</svg>
