<svg id="Linkedin" xmlns="http://www.w3.org/2000/svg" width="22.99" height="20.9" viewBox="0 0 22.99 20.9">
  <path id="Path_408" data-name="Path 408" d="M.931-8.585H5.412v-14.2H.931Z" transform="translate(-0.351 29.485)" fill="#3f3d56"/>
  <g id="Group_273" data-name="Group 273" transform="translate(0 0)">
    <g id="Group_264" data-name="Group 264" transform="translate(7.796 6.566)">
      <path id="Path_409" data-name="Path 409" d="M-5.748,0c-2.567,0-4.175,1.39-4.473,2.364V.136h-5.034c.065,1.183,0,14.2,0,14.2h5.034V6.651a3.238,3.238,0,0,1,.109-1.16,2.566,2.566,0,0,1,2.427-1.74c1.747,0,2.543,1.313,2.543,3.236v7.347H-.061V6.44c0-4.4-2.5-6.44-5.687-6.44" transform="translate(15.255)" fill="#3f3d56"/>
    </g>
    <g id="Group_265" data-name="Group 265" transform="translate(0 0)">
      <path id="Path_410" data-name="Path 410" d="M-1.655,0A2.5,2.5,0,0,0-4.392,2.465,2.477,2.477,0,0,0-1.718,4.926h.032A2.5,2.5,0,0,0,1.047,2.461,2.488,2.488,0,0,0-1.655,0" transform="translate(4.392)" fill="#3f3d56"/>
    </g>
  </g>
</svg>
