<svg id="Contact_Illustration" data-name="Contact Illustration" xmlns="http://www.w3.org/2000/svg" xmlns:xlink="http://www.w3.org/1999/xlink" width="1373.681" height="1345.838" viewBox="0 0 1373.681 1345.838">
  <defs>
    <clipPath id="clip-path">
      <path id="Path_401" data-name="Path 401" d="M0-627.495H672.88v367.158H0Z" transform="translate(0 627.495)" fill="none"/>
    </clipPath>
    <clipPath id="clip-path-2">
      <rect id="Rectangle_112" data-name="Rectangle 112" width="672.878" height="367.158" fill="none"/>
    </clipPath>
    <clipPath id="clip-path-3">
      <rect id="Rectangle_113" data-name="Rectangle 113" width="656.062" height="7.999" fill="none"/>
    </clipPath>
    <clipPath id="clip-path-4">
      <rect id="Rectangle_114" data-name="Rectangle 114" width="164.116" height="114.249" fill="none"/>
    </clipPath>
    <clipPath id="clip-path-5">
      <rect id="Rectangle_115" data-name="Rectangle 115" width="119.498" height="151.518" fill="none"/>
    </clipPath>
    <clipPath id="clip-path-6">
      <rect id="Rectangle_116" data-name="Rectangle 116" width="225.504" height="178.914" fill="none"/>
    </clipPath>
    <clipPath id="clip-path-7">
      <rect id="Rectangle_117" data-name="Rectangle 117" width="133.163" height="137.738" fill="none"/>
    </clipPath>
    <clipPath id="clip-path-8">
      <rect id="Rectangle_118" data-name="Rectangle 118" width="116.885" height="134.083" fill="none"/>
    </clipPath>
    <clipPath id="clip-path-9">
      <rect id="Rectangle_119" data-name="Rectangle 119" width="36.342" height="36.342" fill="none"/>
    </clipPath>
    <clipPath id="clip-path-10">
      <rect id="Rectangle_120" data-name="Rectangle 120" width="24.584" height="21.689" fill="none"/>
    </clipPath>
    <clipPath id="clip-path-11">
      <rect id="Rectangle_121" data-name="Rectangle 121" width="14.558" height="8.035" fill="none"/>
    </clipPath>
    <clipPath id="clip-path-13">
      <rect id="Rectangle_123" data-name="Rectangle 123" width="61.982" height="31.913" fill="none"/>
    </clipPath>
    <clipPath id="clip-path-14">
      <rect id="Rectangle_124" data-name="Rectangle 124" width="32.428" height="36.5" fill="none"/>
    </clipPath>
    <clipPath id="clip-path-15">
      <rect id="Rectangle_125" data-name="Rectangle 125" width="45.458" height="27.202" fill="none"/>
    </clipPath>
  </defs>
  <path id="Path_255" data-name="Path 255" d="M0,529.249,1106.877,0,1075.22,790.286,286.5,1164.507,65.593,1052.488Z" transform="translate(115.508 154.048) rotate(-8)" fill="#54b192"/>
  <ellipse id="Ellipse_57" data-name="Ellipse 57" cx="352.192" cy="346.876" rx="352.192" ry="346.876" transform="matrix(0.996, -0.087, 0.087, 0.996, 0, 654.725)" fill="#54b192"/>
  <g id="Illustration" transform="translate(98.591 703.547)">
    <g id="Group_255" data-name="Group 255" clip-path="url(#clip-path)">
      <g id="Group_144" data-name="Group 144" opacity="0.1">
        <g id="Group_143" data-name="Group 143">
          <g id="Group_142" data-name="Group 142" clip-path="url(#clip-path-2)">
            <g id="Group_141" data-name="Group 141" transform="translate(0 0)">
              <path id="Path_329" data-name="Path 329" d="M-472.059-241.522a110.319,110.319,0,0,1-9.6,18.466,79.4,79.4,0,0,1-5.816,8,.422.422,0,0,1-.064.07H-1137.81l.088-.07c.585-.456,4.02-3.236,9.362-8,3.832-3.411,8.642-7.846,14.043-13.183,44.17-43.445,129.018-146.279,58.354-240.483-65.691-87.574,5.038-103.466,51.695-105.321a133.289,133.289,0,0,1,52.579,8.6c21.556,8.192,60.952,20.748,112.278,26.506,1.685.187,3.382.375,5.1.544a491.587,491.587,0,0,0,81.788,1.486c.8-.047,1.609-.105,2.422-.164a486.006,486.006,0,0,0,80-12.375c1.7-.416,3.382-.807,5.055-1.2,87.551-20.257,168.262,48.781,148.081,126.8-7.46,28.858-5.564,59.617,19.309,84.5,40.724,40.619,35.792,80.623,25.6,105.824" transform="translate(1137.81 582.145)" fill="#38d29f"/>
            </g>
          </g>
        </g>
      </g>
      <g id="Group_145" data-name="Group 145" transform="translate(0.088 330.769)">
        <path id="Path_330" data-name="Path 330" d="M-472-6.987a110.315,110.315,0,0,1-9.6,18.466,79.417,79.417,0,0,1-5.816,8H-1137.66c.585-.456,4.02-3.236,9.362-8,3.833-3.411,8.642-7.846,14.043-13.183l68.535-14.16a13.329,13.329,0,0,1,2.692-.275l73.063-.105h.076l36.189-.047h.082l30.543-.035H-862.6l83.917-.117h36.108l14.411-.164h4.763l41.918-.059h19.824l48.418-.064h14.417l45.861-.064,38.711-.047a13.714,13.714,0,0,1,3.2.38Z" transform="translate(1137.66 16.84)" fill="#454a69"/>
      </g>
      <g id="Group_149" data-name="Group 149" transform="translate(0.088 359.089)" opacity="0.4">
        <g id="Group_148" data-name="Group 148" transform="translate(0 0)">
          <g id="Group_147" data-name="Group 147" clip-path="url(#clip-path-3)">
            <g id="Group_146" data-name="Group 146" transform="translate(0)">
              <path id="Path_331" data-name="Path 331" d="M-6.638,0h646.7a79.415,79.415,0,0,1-5.816,8H-16c.573-.486,4.008-3.265,9.362-8" transform="translate(16)"/>
            </g>
          </g>
        </g>
      </g>
      <g id="Group_150" data-name="Group 150" transform="translate(261.695 8.99)">
        <path id="Path_332" data-name="Path 332" d="M-118.643-119.213l-1.3.252-58.722,11.281c-17.056,3.277-34.358,6.571-51.683,5.313-12.551-.913-24.276-4.634-36.336-7.9-6.817-1.849-14.043-2.586-16.354-10.216-3.189-10.532,2-26.125,3.224-36.8,1.17-10.474,1.861-21.21-.222-31.561a56.136,56.136,0,0,0-1.826-6.869c-2.089-6.2-5.371-12.638-3.6-18.928,1.4-4.991,5.664-8.554,9.654-11.854,7.817-6.436,15.8-13.651,18.9-23.3,1.521-4.681,1.808-9.719,3.446-14.365,3.107-8.835,10.912-15.441,19.6-18.94s18.232-4.242,27.6-4.242a187.071,187.071,0,0,1,24.733,1.644c8.941,1.17,17.963,3.1,25.821,7.53s14.482,11.7,16.313,20.561c2.592,12.527-4.6,25.868-.743,38.033,1.943,6.15,6.436,11.117,9.555,16.746a39.888,39.888,0,0,1,2.926,31.011c-3.733,11.568-12.873,23.27-8.192,34.487,2.978,7.133,10.585,10.942,15.886,16.594q.708.761,1.322,1.521" transform="translate(285.967 287.34)" fill="#454a69"/>
      </g>
      <g id="Group_154" data-name="Group 154" transform="translate(263.604 79.988)" opacity="0.1">
        <g id="Group_153" data-name="Group 153">
          <g id="Group_152" data-name="Group 152" clip-path="url(#clip-path-4)">
            <g id="Group_151" data-name="Group 151" transform="translate(0 0)">
              <path id="Path_333" data-name="Path 333" d="M-116.369-67.825V-66.1l-58.722,11.281c-17.056,3.277-34.358,6.571-51.683,5.313-12.551-.913-24.276-4.634-36.336-7.9-6.817-1.849-14.043-2.586-16.354-10.216-3.189-10.532,2-26.125,3.224-36.8,1.17-10.474,19.186-48.711,17.1-59.062l107.661,4.681c.726,5.717,29.18,34.411,27.407,39.893-3.733,11.568-12.873,23.27-8.192,34.487,2.984,7.133,10.591,10.942,15.892,16.594" transform="translate(280.485 163.48)"/>
            </g>
          </g>
        </g>
      </g>
      <g id="Group_155" data-name="Group 155" transform="translate(282.73 112.287)">
        <path id="Path_334" data-name="Path 334" d="M-24.809-24.4c.638,3.622.977,7.607-.872,10.766-2.463,4.236-7.835,5.588-12.639,6.547L-54.995-3.746a6.472,6.472,0,0,0-3.189,1.264A5.577,5.577,0,0,0-59.67,1.163C-60.343,7.2-58.207,13.152-56.259,18.9c3.938,11.65,7.244,23.545,12.223,34.785S-32.222,75.66-22.468,83.173.193,94.688,12.136,91.75c10.4-2.557,18.934-9.9,26.289-17.688C44.493,67.626,50.168,60.6,53.111,52.255c2.03-5.734,2.692-11.843,3.329-17.893Q57.921,20.448,59.4,6.534c.462-4.353.767-9.251-2.06-12.592A15,15,0,0,0,52.7-9.41c-6.4-3.4-13.142-6.208-19.1-10.3S22.358-29.451,20.55-36.449c-1.082-4.2-.889-8.777-2.732-12.691C15.758-53.528,11.381-56.5,6.7-57.805s-9.619-1.129-14.441-.585-23.4,1.937-25.4,7.372c-1.071,2.926,3.37,9.2,4.423,12.083A84.38,84.38,0,0,1-24.809-24.4" transform="translate(59.796 58.8)" fill="#eeb7b8"/>
      </g>
      <g id="Group_159" data-name="Group 159" transform="translate(282.731 112.287)" opacity="0.1">
        <g id="Group_158" data-name="Group 158">
          <g id="Group_157" data-name="Group 157" clip-path="url(#clip-path-5)">
            <g id="Group_156" data-name="Group 156" transform="translate(0 0)">
              <path id="Path_335" data-name="Path 335" d="M-24.809-24.4c.638,3.622.977,7.607-.872,10.766-2.463,4.236-7.835,5.588-12.639,6.547L-54.995-3.746a6.472,6.472,0,0,0-3.189,1.264A5.577,5.577,0,0,0-59.67,1.163C-60.343,7.2-58.207,13.152-56.259,18.9c3.938,11.65,7.244,23.545,12.223,34.785S-32.222,75.66-22.468,83.173.193,94.688,12.136,91.75c10.4-2.557,18.934-9.9,26.289-17.688C44.493,67.626,50.168,60.6,53.111,52.255c2.03-5.734,2.692-11.843,3.329-17.893Q57.921,20.448,59.4,6.534c.462-4.353.767-9.251-2.06-12.592A15,15,0,0,0,52.7-9.41c-6.4-3.4-13.142-6.208-19.1-10.3S22.358-29.451,20.55-36.449c-1.082-4.2-.889-8.777-2.732-12.691C15.758-53.528,11.381-56.5,6.7-57.805s-9.619-1.129-14.441-.585-23.4,1.937-25.4,7.372c-1.071,2.926,3.37,9.2,4.423,12.083A84.38,84.38,0,0,1-24.809-24.4" transform="translate(59.796 58.8)"/>
            </g>
          </g>
        </g>
      </g>
      <g id="Group_160" data-name="Group 160" transform="translate(275.12 152.878)">
        <path id="Path_336" data-name="Path 336" d="M-58.661-40.728l9.777-20.7c4.581-9.7,9.262-19.894,8.777-30.607-.094-2.13-.117-4.792,1.755-5.758a5.025,5.025,0,0,1,2.569-.328,103.912,103.912,0,0,1,30.139,6.1,11.958,11.958,0,0,1,5.12,2.961,12.22,12.22,0,0,1,2.3,5.442A158.844,158.844,0,0,1,5.128-63.8c1.755,16.512.884,33.17,0,49.735L2.53,36.5A4.83,4.83,0,0,1,2.1,38.585c-.644,1.17-2.095,1.562-3.4,1.785a73.81,73.81,0,0,1-15.254.491c-35.809-1.357-71.805-3.44-107.381.9q.24-7.893-.252-15.8c-1.41-22.755-7.308-44.954-13.1-67-3.376-12.873-6.647-26.915-1.211-39.045a16.728,16.728,0,0,1,3.388-5.161c2.311-2.264,5.465-3.458,8.59-4.312a54.656,54.656,0,0,1,16.553-1.872l36.892,80.319C-71.388-7.435-70-3.567-68.322.061c1.51-6.267-.3-13.61,1.51-20.4,1.954-7.051,5.032-13.8,8.151-20.385" transform="translate(141.392 98.167)" fill="#fff"/>
      </g>
      <g id="Group_161" data-name="Group 161" transform="translate(232.911 151.498)">
        <path id="Path_337" data-name="Path 337" d="M-85.856-80.892c6.6.415,13.013-2.967,17.554-7.747s7.536-10.842,10.07-16.968a167.348,167.348,0,0,0,8.654-26.98c1.755-7.841,3-15.956,1.79-23.9-1.673-10.971-7.882-20.941-8.941-31.988-.181-1.931-.064-4.189,1.486-5.354a6.173,6.173,0,0,1,3.417-.889c11.035-.655,23.159-.532,31.707,6.471,2.6,2.13,4.716,4.792,7.261,6.986C-6.8-176,1.771-173.317,5.662-166.325c1.357,2.434,2.007,5.19,2.955,7.811,2.235,6.2,6.1,11.656,9.947,17.021-3.727,15.728-8.01,31.468-11.737,47.2C4.644-85.07,2.444-75.807-.985-66.972c-2.247,5.793-5.073,11.7-4.383,17.9a40.883,40.883,0,0,0,1.8,7.127A81.917,81.917,0,0,1-.125-16.471l-166.957.41c8-11.468,10.345-25.534,9.532-39.489-.392-6.688-1.9-13.417-5.266-19.2-5.3-9.069-14.628-14.979-23.82-20.04-6.436-3.511-13.346,16.243-20.3,13.978,1.123-7.946,1.638-38.618,1.17-46.616-.152-2.621-.386-5.313.421-7.817.55-1.714,1.562-3.247,2.247-4.915,2.744-6.676.129-15.213,4.564-20.894,3.066-3.95,8.443-5.073,12.814-7.507,4.488-2.5,7.958-6.436,11.866-9.795a52.769,52.769,0,0,1,27.009-12.059,34.016,34.016,0,0,1,5.155,15.213c.3,3.4.082,6.846.556,10.228.649,4.581,2.545,8.882,4.423,13.118,7.823,17.665,15.675,35.382,25.587,51.97,2.8,4.681,5.851,9.362,9.912,13.007s9.906,6.249,15.359,5.992" transform="translate(206.94 194.975)" fill="#38d29f"/>
      </g>
      <g id="Group_165" data-name="Group 165" transform="translate(232.911 151.498)" opacity="0.1">
        <g id="Group_164" data-name="Group 164">
          <g id="Group_163" data-name="Group 163" clip-path="url(#clip-path-6)">
            <g id="Group_162" data-name="Group 162" transform="translate(0 0)">
              <path id="Path_338" data-name="Path 338" d="M-85.856-80.892c6.6.415,13.013-2.967,17.554-7.747s7.536-10.842,10.07-16.968a167.348,167.348,0,0,0,8.654-26.98c1.755-7.841,3-15.956,1.79-23.9-1.673-10.971-7.882-20.941-8.941-31.988-.181-1.931-.064-4.189,1.486-5.354a6.173,6.173,0,0,1,3.417-.889c11.035-.655,23.159-.532,31.707,6.471,2.6,2.13,4.716,4.792,7.261,6.986C-6.8-176,1.771-173.317,5.662-166.325c1.357,2.434,2.007,5.19,2.955,7.811,2.235,6.2,6.1,11.656,9.947,17.021-3.727,15.728-8.01,31.468-11.737,47.2C4.644-85.07,2.444-75.807-.985-66.972c-2.247,5.793-5.073,11.7-4.383,17.9a40.883,40.883,0,0,0,1.8,7.127A81.917,81.917,0,0,1-.125-16.471l-166.957.41c8-11.468,10.345-25.534,9.532-39.489-.392-6.688-1.9-13.417-5.266-19.2-5.3-9.069-14.628-14.979-23.82-20.04-6.436-3.511-13.346,16.243-20.3,13.978,1.123-7.946,1.638-38.618,1.17-46.616-.152-2.621-.386-5.313.421-7.817.55-1.714,1.562-3.247,2.247-4.915,2.744-6.676.129-15.213,4.564-20.894,3.066-3.95,8.443-5.073,12.814-7.507,4.488-2.5,7.958-6.436,11.866-9.795a52.769,52.769,0,0,1,27.009-12.059,34.016,34.016,0,0,1,5.155,15.213c.3,3.4.082,6.846.556,10.228.649,4.581,2.545,8.882,4.423,13.118,7.823,17.665,15.675,35.382,25.587,51.97,2.8,4.681,5.851,9.362,9.912,13.007s9.906,6.249,15.359,5.992" transform="translate(206.94 194.975)"/>
            </g>
          </g>
        </g>
      </g>
      <g id="Group_166" data-name="Group 166" transform="translate(295.01 45.051)">
        <path id="Path_339" data-name="Path 339" d="M-35.564,0A50.156,50.156,0,0,1,14.592,50.156a50.156,50.156,0,0,1-50.156,50.156A50.156,50.156,0,0,1-85.72,50.156,50.156,50.156,0,0,1-35.564,0" transform="translate(85.72 0)" fill="#eeb7b8"/>
      </g>
      <g id="Group_167" data-name="Group 167" transform="translate(279.108 21.495)">
        <path id="Path_340" data-name="Path 340" d="M-28.178-99.659c1.375-12.978-4.02-25.675-10.128-37.208-2.926-5.512-6.062-11.006-7.53-17.062s-1.047-12.914,2.709-17.893c3.195-4.236,8.262-6.524,12.949-9.011,13.229-7.021,25.324-17.343,31.14-31.146-3.288,1.79-2.434,7.133.468,9.491s6.858,2.814,10.427,3.938c13.013,4.1,20.818,17.074,27.079,29.2,1.024,1.978,2.065,4.067,2.054,6.3a12.772,12.772,0,0,1-2.095,6.1c-3.089,5.5-6.869,10.784-8.274,16.933-1.609,7.021.088,14.406,2.294,21.292,2.34,7.326,5.447,14.71,11.065,19.964s14.329,7.864,21.24,4.47c-6.9-11.86-14.043-25.113-11.351-38.559,1.3-6.436,4.792-12.287,6.278-18.689,2.832-12.211-1.884-24.774-6.512-36.429L39.8-222.756c-2.112-5.319-4.517-10.994-9.362-14.008-3.277-2.03-7.244-2.557-11.082-2.926-12.358-1.1-25.16-.737-36.663,3.862-20.959,8.373-34.1,29.016-44.527,49.039-3.125,6-6.208,12.369-6.079,19.133.07,3.71,1.106,7.32,1.948,10.936,3.429,14.722,3.616,29.976,3.792,45.089.135,11.6-.468,22.527-5.541,33.088,6.951,1.381,17.033,5.108,23.914,2.381,8.97-3.546,14.493-14.47,15.623-23.5" transform="translate(67.917 240.209)" fill="#454a69"/>
      </g>
      <g id="Group_175" data-name="Group 175" transform="translate(279.081 48.802)" opacity="0.1">
        <g id="Group_174" data-name="Group 174">
          <g id="Group_173" data-name="Group 173" clip-path="url(#clip-path-7)">
            <g id="Group_168" data-name="Group 168" transform="translate(0 42.234)">
              <path id="Path_341" data-name="Path 341" d="M-4.072-41.688q.035-2.475,0-5C-4.247-61.8-4.435-77.052-7.863-91.773a76.084,76.084,0,0,1-1.79-8.707,22.7,22.7,0,0,0-.158,3.037c.07,3.71,1.106,7.32,1.948,10.936,3.411,14.634,3.622,29.794,3.792,44.82" transform="translate(9.814 100.48)"/>
            </g>
            <g id="Group_169" data-name="Group 169" transform="translate(121.229 50.934)">
              <path id="Path_342" data-name="Path 342" d="M-4.865-7.393A35.4,35.4,0,0,0-4.1-17.82a32.474,32.474,0,0,1-.761,5.161C-6.351-6.223-9.844-.424-11.143,6.029a31,31,0,0,0-.468,8.648,30.615,30.615,0,0,1,.468-3.382C-9.844,4.842-6.351-.98-4.865-7.393" transform="translate(11.726 17.82)"/>
            </g>
            <g id="Group_170" data-name="Group 170" transform="translate(21.323 0)">
              <path id="Path_343" data-name="Path 343" d="M-61.8-33.44a8.44,8.44,0,0,0,.456-2.58c0-2.229-1.03-4.318-2.054-6.3-6.261-12.124-14.043-25.09-27.079-29.2-3.569-1.123-7.519-1.58-10.427-3.938a7.418,7.418,0,0,1-2.563-5.149c-6.343,11.644-17.238,20.549-29.045,26.8-4.681,2.487-9.754,4.775-12.949,9.011-3,3.979-3.873,9.157-3.353,14.166a17.906,17.906,0,0,1,3.353-8.9c3.195-4.236,8.262-6.524,12.949-9.011,11.808-6.255,22.7-15.16,29.045-26.8a7.418,7.418,0,0,0,2.563,5.149c2.926,2.34,6.858,2.814,10.427,3.938,13.013,4.1,20.818,17.074,27.079,29.2a23.046,23.046,0,0,1,1.6,3.61" transform="translate(148.952 80.6)"/>
            </g>
            <g id="Group_171" data-name="Group 171" transform="translate(97.937 76.206)">
              <path id="Path_344" data-name="Path 344" d="M-9.917-23.163C-15.534-28.429-18.63-35.8-20.982-43.127a57.8,57.8,0,0,1-2.809-12.7c-.544,6.009.948,12.159,2.809,17.969,2.34,7.326,5.447,14.71,11.065,19.964s14.329,7.864,21.24,4.47c-.831-1.422-1.656-2.867-2.475-4.324-6.419,1.808-13.791-.767-18.765-5.412" transform="translate(23.904 55.83)"/>
            </g>
            <g id="Group_172" data-name="Group 172" transform="translate(0.207 106.444)">
              <path id="Path_345" data-name="Path 345" d="M-28.05-1.087C-29.18,7.941-34.7,18.865-43.7,22.435c-6.243,2.475-15.131-.369-21.913-1.943a50.614,50.614,0,0,1-2,4.827C-60.659,26.7-50.577,30.427-43.7,27.7-34.7,24.132-29.18,13.207-28.05,4.179a40.656,40.656,0,0,0,.129-6.8c-.035.509-.088,1.024-.129,1.533" transform="translate(67.61 2.62)"/>
            </g>
          </g>
        </g>
      </g>
      <g id="Group_176" data-name="Group 176" transform="translate(348.302 298.89)">
        <path id="Path_346" data-name="Path 346" d="M-29.386-2.1c-9.04-1.434-18.215-4.2-27.179-2.34A37.782,37.782,0,0,0-70.83,2.346c2.376,1.9,5.149,3.6,6.659,6.243a24.587,24.587,0,0,1,2.095,5.775,49.146,49.146,0,0,1,2.048,10.743,16.351,16.351,0,0,1-2.762,10.4c11.4,1.123,22.445-1.685,33.562-4.429a9.187,9.187,0,0,0,3.552-1.434c1.755-1.381,2.27-3.838,2.282-6.079,0-4-1.123-7.9-2.264-11.743-1.357-4.6-2.364-9.344-3.727-13.92" transform="translate(70.83 5.064)" fill="#fff"/>
      </g>
      <g id="Group_177" data-name="Group 177" transform="translate(381.958 202.788)">
        <path id="Path_347" data-name="Path 347" d="M-48.8-.264c4.488.585,7.969,4.207,10.532,7.928C-31.08,18.02-27.978,30.577-24.526,42.706A466.439,466.439,0,0,0-9.389,87.245a66.97,66.97,0,0,0,4.541,9.771c1.445,2.417,3.2,4.739,3.838,7.484,1.545,6.635-3.926,12.873-9.631,16.57a38.12,38.12,0,0,1-9.859,4.751,58.722,58.722,0,0,1-10.485,1.79l-32.48,3.511c-14.95,1.627-30.034,3.253-44.99,1.685-.942-3.277.907-5.594.772-9-.094-2.44-1.17-4.71-2.13-6.957a44.475,44.475,0,0,1-3.47-12.586,17.061,17.061,0,0,0-.837-4.722,4.426,4.426,0,0,0-3.511-2.926c8.777-.872,15.441-2.528,24.218-3.405,3.259-.328,6.647-.7,9.426-2.428,3.446-2.147,5.377-6.021,6.91-9.777,3.8-9.3,6.243-19.555,4.248-29.408-1.638-8.08-6.208-15.605-6.185-23.849,0-4.909,1.673-9.666,3.651-14.16,2.095-4.751,4.827-9.608,9.426-12.018S-53.993-.967-48.8-.264" transform="translate(117.63 0.638)" fill="#38d29f"/>
      </g>
      <g id="Group_181" data-name="Group 181" transform="translate(381.958 202.788)" opacity="0.08">
        <g id="Group_180" data-name="Group 180">
          <g id="Group_179" data-name="Group 179" clip-path="url(#clip-path-8)">
            <g id="Group_178" data-name="Group 178" transform="translate(0 0)">
              <path id="Path_348" data-name="Path 348" d="M-48.8-.264c4.488.585,7.969,4.207,10.532,7.928C-31.08,18.02-27.978,30.577-24.526,42.706A466.439,466.439,0,0,0-9.389,87.245a66.97,66.97,0,0,0,4.541,9.771c1.445,2.417,3.2,4.739,3.838,7.484,1.545,6.635-3.926,12.873-9.631,16.57a38.12,38.12,0,0,1-9.859,4.751,58.722,58.722,0,0,1-10.485,1.79l-32.48,3.511c-14.95,1.627-30.034,3.253-44.99,1.685-.942-3.277.907-5.594.772-9-.094-2.44-1.17-4.71-2.13-6.957a44.475,44.475,0,0,1-3.47-12.586,17.061,17.061,0,0,0-.837-4.722,4.426,4.426,0,0,0-3.511-2.926c8.777-.872,15.441-2.528,24.218-3.405,3.259-.328,6.647-.7,9.426-2.428,3.446-2.147,5.377-6.021,6.91-9.777,3.8-9.3,6.243-19.555,4.248-29.408-1.638-8.08-6.208-15.605-6.185-23.849,0-4.909,1.673-9.666,3.651-14.16,2.095-4.751,4.827-9.608,9.426-12.018S-53.993-.967-48.8-.264" transform="translate(117.63 0.638)"/>
            </g>
          </g>
        </g>
      </g>
      <g id="Group_182" data-name="Group 182" transform="translate(242.978 104.897)">
        <path id="Path_349" data-name="Path 349" d="M-3.13-64.286c2.124-5.044,4.283-10.251,4.342-15.722.064-5.916-2.34-11.533-4.178-17.15a99.187,99.187,0,0,1-4.511-21.175,2.924,2.924,0,0,1,.293-2.03,3.488,3.488,0,0,1,2.247-1.006c4.049-.924,7.109-4.2,9.637-7.49a82.109,82.109,0,0,0,9.865-16.477c1.937-4.312,4.558-9.573,9.286-9.613a268.256,268.256,0,0,1-7.068,26.477c4.944-1.264,9.643-3.1,14.587-4.365a8.748,8.748,0,0,1,3-.4c2.961.31,4.775,4.318,3.054,6.746,2.417,2.832,6.436,3.593,9.6,5.535s5.43,6.752,2.621,9.192a7.835,7.835,0,0,0-1.644,1.416c-1.357,2.095,1.966,4.5,1.691,6.98-.222,2.03-2.826,2.978-4.8,2.44s-3.511-2.013-5.266-3.1-4.049-1.755-5.752-.632c-.456,5.506-.948,11.117-3.329,16.132-.872,1.831-1.989,3.546-2.692,5.447a26.829,26.829,0,0,0-1.24,6.4l-2.124,19.42C14.347-55.229,5.26-58.265-3.13-64.286" transform="translate(7.545 154.95)" fill="#eeb7b8"/>
      </g>
      <g id="Group_183" data-name="Group 183" transform="translate(242.753 188.843)">
        <path id="Path_350" data-name="Path 350" d="M-1.535-17.106-3.4-29.738a20.567,20.567,0,0,1-.3-3.113c0-2.926,1.287-5.717,2.534-8.379,10.327,4.821,21.491,6.536,32.884,6.542,1.5,0,3.218-.14,4.154-1.317,1.937,2.229,2,5.816,1.17,8.648s-2.411,5.383-3.464,8.145a11.612,11.612,0,0,1-1.984,4c-1.58,1.7-4.143,2-6.471,1.984a41.377,41.377,0,0,1-7.3-.7c-6.237-1.159-13.118-4.3-19.356-3.183" transform="translate(3.7 41.23)" fill="#fff"/>
      </g>
      <g id="Group_184" data-name="Group 184" transform="translate(226.524 206.373)">
        <path id="Path_351" data-name="Path 351" d="M-40.354-4.311Q-52.378-5.68-64.244-8.172c-3.879-.813-7.794-1.72-11.749-1.562-2.575.105-5.342.62-7.607-.655a36.622,36.622,0,0,1-.3,22.784c-1.562,4.388-3.944,8.478-5.091,13-2.387,9.45.889,19.754-2.095,29.033a7.341,7.341,0,0,1-1.8,3.23c-.913.837-2.159,1.27-3,2.177-1.24,1.334-1.317,3.341-1.322,5.161l-.053,16.12c-.035,10.263.1,21.146,5.518,29.841a28.333,28.333,0,0,0,30.508,12.077,22.677,22.677,0,0,0,8.285-4.055c3.932-3.125,6.436-7.642,8.888-12.042,2.926-5.266,5.851-10.649,6.793-16.576a47.1,47.1,0,0,0-.187-12.7c-2.645-23.4-8.385-46.61-7.15-70.1A21.247,21.247,0,0,1-40.354-4.311" transform="translate(97.266 10.39)" fill="#38d29f"/>
      </g>
      <g id="Group_185" data-name="Group 185" transform="translate(246.171 306.977)">
        <path id="Path_352" data-name="Path 352" d="M-50.179-1.847a70.924,70.924,0,0,1-12.211,0c-2.926-.351-5.781-1.071-8.683-1.562A55.65,55.65,0,0,0-115.888,9.042c-2.247,1.919-4.517,4.862-3.277,7.548,1.334,2.89,5.412,2.809,8.554,2.27a25.746,25.746,0,0,0-8.777,6.863,5.181,5.181,0,0,0-1.539,3.727c.357,2.9,4.289,3.423,7.2,3.171-.948,1.018-.31,2.82.9,3.511a6,6,0,0,0,4.067.3,30.135,30.135,0,0,0,8.636-2.99,3.292,3.292,0,0,0,1.755,3.827,7.23,7.23,0,0,0,4.511.415c7.15-1.17,13.118-6.144,20.093-8.1,11.152-3.119,22.82,1.855,34.411,2.206a24.009,24.009,0,0,0,10.655-1.755c4.055-1.843,7.326-5.3,11.609-6.53,4.757-1.357,10.216.2,14.569-2.142,3.165-1.7.31-14.827-.5-17.355-1.48-4.622-2.967-7.688-7.9-8.157C-23.4-5.369-37.605-2.573-50.179-1.847" transform="translate(120.948 4.452)" fill="#eeb7b8"/>
      </g>
      <g id="Group_186" data-name="Group 186" transform="translate(348.074 303.819)">
        <path id="Path_353" data-name="Path 353" d="M0-1.548S18.893,14.444,7.993,31.892l21.064-7.273V9.353c0-.726-8-11.626-8-11.626L11.609-3.73Z" transform="translate(0 3.73)" fill="#fff"/>
      </g>
      <g id="Group_187" data-name="Group 187" transform="translate(135.624 305.012)">
        <path id="Path_354" data-name="Path 354" d="M-10.372,0h7.086A14.628,14.628,0,0,1,11.342,14.628V36.342H-25V14.628A14.628,14.628,0,0,1-10.372,0Z" transform="translate(25)" fill="#3e3c55"/>
      </g>
      <g id="Group_191" data-name="Group 191" transform="translate(135.624 305.012)" opacity="0.1">
        <g id="Group_190" data-name="Group 190" transform="translate(0 0)">
          <g id="Group_189" data-name="Group 189" clip-path="url(#clip-path-9)">
            <g id="Group_188" data-name="Group 188" transform="translate(0)">
              <path id="Path_355" data-name="Path 355" d="M-10.372,0h7.086A14.628,14.628,0,0,1,11.342,14.628V36.342H-25V14.628A14.628,14.628,0,0,1-10.372,0Z" transform="translate(25)"/>
            </g>
          </g>
        </g>
      </g>
      <g id="Group_192" data-name="Group 192" transform="translate(149.433 307.189)">
        <path id="Path_356" data-name="Path 356" d="M-2.062,0A2.908,2.908,0,0,1,.846,2.908,2.908,2.908,0,0,1-2.062,5.816,2.908,2.908,0,0,1-4.97,2.908,2.908,2.908,0,0,1-2.062,0" transform="translate(4.97)" fill="#3e3c55"/>
      </g>
      <g id="Group_193" data-name="Group 193" transform="translate(149.433 303.555)">
        <path id="Path_357" data-name="Path 357" d="M-2.062,0A2.908,2.908,0,0,1,.846,2.908,2.908,2.908,0,0,1-2.062,5.816,2.908,2.908,0,0,1-4.97,2.908,2.908,2.908,0,0,1-2.062,0" transform="translate(4.97)" fill="#3e3c55"/>
      </g>
      <g id="Group_194" data-name="Group 194" transform="translate(149.433 299.922)">
        <path id="Path_358" data-name="Path 358" d="M-2.062,0A2.908,2.908,0,0,1,.846,2.908,2.908,2.908,0,0,1-2.062,5.816,2.908,2.908,0,0,1-4.97,2.908,2.908,2.908,0,0,1-2.062,0" transform="translate(4.97)" fill="#3e3c55"/>
      </g>
      <g id="Group_195" data-name="Group 195" transform="translate(149.433 296.288)">
        <path id="Path_359" data-name="Path 359" d="M-2.062,0A2.908,2.908,0,0,1,.846,2.908,2.908,2.908,0,0,1-2.062,5.816,2.908,2.908,0,0,1-4.97,2.908,2.908,2.908,0,0,1-2.062,0" transform="translate(4.97)" fill="#3e3c55"/>
      </g>
      <g id="Group_196" data-name="Group 196" transform="translate(149.433 292.655)">
        <path id="Path_360" data-name="Path 360" d="M-2.062,0A2.908,2.908,0,0,1,.846,2.908,2.908,2.908,0,0,1-2.062,5.816,2.908,2.908,0,0,1-4.97,2.908,2.908,2.908,0,0,1-2.062,0" transform="translate(4.97)" fill="#3e3c55"/>
      </g>
      <g id="Group_197" data-name="Group 197" transform="translate(149.433 289.021)">
        <path id="Path_361" data-name="Path 361" d="M-2.062,0A2.908,2.908,0,0,1,.846,2.908,2.908,2.908,0,0,1-2.062,5.816,2.908,2.908,0,0,1-4.97,2.908,2.908,2.908,0,0,1-2.062,0" transform="translate(4.97)" fill="#3e3c55"/>
      </g>
      <g id="Group_198" data-name="Group 198" transform="translate(149.433 285.382)">
        <path id="Path_362" data-name="Path 362" d="M-2.062,0A2.908,2.908,0,0,1,.846,2.908,2.908,2.908,0,0,1-2.062,5.816,2.908,2.908,0,0,1-4.97,2.908,2.908,2.908,0,0,1-2.062,0" transform="translate(4.97)" fill="#3e3c55"/>
      </g>
      <g id="Group_199" data-name="Group 199" transform="translate(153.798 286.839)">
        <path id="Path_363" data-name="Path 363" d="M-2.062,0A2.908,2.908,0,0,1,.846,2.908,2.908,2.908,0,0,1-2.062,5.816,2.908,2.908,0,0,1-4.97,2.908,2.908,2.908,0,0,1-2.062,0" transform="translate(4.97)" fill="#3e3c55"/>
      </g>
      <g id="Group_200" data-name="Group 200" transform="translate(156.706 285.382)">
        <path id="Path_364" data-name="Path 364" d="M-2.062,0A2.908,2.908,0,0,1,.846,2.908,2.908,2.908,0,0,1-2.062,5.816,2.908,2.908,0,0,1-4.97,2.908,2.908,2.908,0,0,1-2.062,0" transform="translate(4.97)" fill="#3e3c55"/>
      </g>
      <g id="Group_201" data-name="Group 201" transform="translate(159.614 283.931)">
        <path id="Path_365" data-name="Path 365" d="M-2.062,0A2.908,2.908,0,0,1,.846,2.908,2.908,2.908,0,0,1-2.062,5.816,2.908,2.908,0,0,1-4.97,2.908,2.908,2.908,0,0,1-2.062,0" transform="translate(4.97)" fill="#3e3c55"/>
      </g>
      <g id="Group_202" data-name="Group 202" transform="translate(149.433 281.748)">
        <path id="Path_366" data-name="Path 366" d="M-2.062,0A2.908,2.908,0,0,1,.846,2.908,2.908,2.908,0,0,1-2.062,5.816,2.908,2.908,0,0,1-4.97,2.908,2.908,2.908,0,0,1-2.062,0" transform="translate(4.97)" fill="#3e3c55"/>
      </g>
      <g id="Group_203" data-name="Group 203" transform="translate(149.433 278.115)">
        <path id="Path_367" data-name="Path 367" d="M-2.062,0A2.908,2.908,0,0,1,.846,2.908,2.908,2.908,0,0,1-2.062,5.816,2.908,2.908,0,0,1-4.97,2.908,2.908,2.908,0,0,1-2.062,0" transform="translate(4.97)" fill="#3e3c55"/>
      </g>
      <g id="Group_204" data-name="Group 204" transform="translate(149.433 274.481)">
        <path id="Path_368" data-name="Path 368" d="M-2.062,0A2.908,2.908,0,0,1,.846,2.908,2.908,2.908,0,0,1-2.062,5.816,2.908,2.908,0,0,1-4.97,2.908,2.908,2.908,0,0,1-2.062,0" transform="translate(4.97)" fill="#3e3c55"/>
      </g>
      <g id="Group_205" data-name="Group 205" transform="translate(149.433 270.847)">
        <path id="Path_369" data-name="Path 369" d="M-2.062,0A2.908,2.908,0,0,1,.846,2.908,2.908,2.908,0,0,1-2.062,5.816,2.908,2.908,0,0,1-4.97,2.908,2.908,2.908,0,0,1-2.062,0" transform="translate(4.97)" fill="#3e3c55"/>
      </g>
      <g id="Group_206" data-name="Group 206" transform="translate(139.989 254.121)">
        <path id="Path_370" data-name="Path 370" d="M-17.321-7.271q-1.088.158-2.177.228a16.717,16.717,0,0,0,1.872-1.919,12.3,12.3,0,0,0-1.755-3.411,5.981,5.981,0,0,1-2.34.737c-.72.105-1.445.181-2.171.234a36.253,36.253,0,0,0,2.779-2.926,12.346,12.346,0,0,0-17.439.857A12.346,12.346,0,0,0-37.7,3.968a12.346,12.346,0,0,0,17.439-.857,12.347,12.347,0,0,0,3.2-8.305,12.135,12.135,0,0,0-.187-2.124Z" transform="translate(41.75 17.526)" fill="#38d29f"/>
      </g>
      <g id="Group_207" data-name="Group 207" transform="translate(162.533 277.398)">
        <path id="Path_371" data-name="Path 371" d="M-8.211-1.01A5.641,5.641,0,0,1-10.657-.2c-.72.105-1.445.187-2.171.234A21.285,21.285,0,0,0-10.674-2.2a7.279,7.279,0,0,0-8.88,5.207,7.279,7.279,0,0,0,5.207,8.88,7.279,7.279,0,0,0,8.88-5.207A7.278,7.278,0,0,0-8.211-1.028Z" transform="translate(19.791 2.435)" fill="#38d29f"/>
      </g>
      <g id="Group_208" data-name="Group 208" transform="translate(145.074 286.839)">
        <path id="Path_372" data-name="Path 372" d="M-2.062,0A2.908,2.908,0,0,1,.846,2.908,2.908,2.908,0,0,1-2.062,5.816,2.908,2.908,0,0,1-4.97,2.908,2.908,2.908,0,0,1-2.062,0" transform="translate(4.97)" fill="#3e3c55"/>
      </g>
      <g id="Group_209" data-name="Group 209" transform="translate(142.166 285.382)">
        <path id="Path_373" data-name="Path 373" d="M-2.062,0A2.908,2.908,0,0,1,.846,2.908,2.908,2.908,0,0,1-2.062,5.816,2.908,2.908,0,0,1-4.97,2.908,2.908,2.908,0,0,1-2.062,0" transform="translate(4.97)" fill="#3e3c55"/>
      </g>
      <g id="Group_210" data-name="Group 210" transform="translate(139.258 283.931)">
        <path id="Path_374" data-name="Path 374" d="M-2.062,0A2.908,2.908,0,0,1,.846,2.908,2.908,2.908,0,0,1-2.062,5.816,2.908,2.908,0,0,1-4.97,2.908,2.908,2.908,0,0,1-2.062,0" transform="translate(4.97)" fill="#3e3c55"/>
      </g>
      <g id="Group_211" data-name="Group 211" transform="translate(127.595 277.398)">
        <path id="Path_375" data-name="Path 375" d="M-2.113-1.01A5.641,5.641,0,0,0,.333-.2c.72.105,1.445.187,2.171.234A20.72,20.72,0,0,1,.351-2.2a7.279,7.279,0,1,1-2.463,1.17Z" transform="translate(5.092 2.435)" fill="#38d29f"/>
      </g>
      <g id="Group_212" data-name="Group 212" transform="translate(135.607 307.166)">
        <path id="Path_376" data-name="Path 376" d="M-10.385,0H-3.3A14.628,14.628,0,0,1,11.329,14.628V33.861a2.481,2.481,0,0,1-2.481,2.481h-31.4a2.481,2.481,0,0,1-2.481-2.481V14.628A14.628,14.628,0,0,1-10.4,0Z" transform="translate(25.03)" fill="#3e3c55"/>
      </g>
      <g id="Group_218" data-name="Group 218" transform="translate(140.091 254.226)" opacity="0.1">
        <g id="Group_217" data-name="Group 217" transform="translate(0 0)">
          <g id="Group_216" data-name="Group 216" clip-path="url(#clip-path-10)">
            <g id="Group_213" data-name="Group 213" transform="translate(23.59 10.946)">
              <path id="Path_377" data-name="Path 377" d="M-.664,0A10.928,10.928,0,0,1-1.6.889,9.511,9.511,0,0,0-.605.8C-.617.532-.635.263-.664,0" transform="translate(1.6)"/>
            </g>
            <g id="Group_214" data-name="Group 214" transform="translate(19.225 5.048)">
              <path id="Path_378" data-name="Path 378" d="M0-1.718c.731-.047,1.451-.123,2.177-.228a7.019,7.019,0,0,0,1.89-.515A12.8,12.8,0,0,0,3.048-4.14a4.4,4.4,0,0,1-1.17.5A16.869,16.869,0,0,1,0-1.718" transform="translate(0 4.14)"/>
            </g>
            <g id="Group_215" data-name="Group 215" transform="translate(0 0)">
              <path id="Path_379" data-name="Path 379" d="M-.957-9.724a12.334,12.334,0,0,1,12.31-12.358,12.335,12.335,0,0,1,6.706,1.967l.187-.2A12.346,12.346,0,0,0,.817-19.3,12.346,12.346,0,0,0,1.832-1.868l.136.119A12.287,12.287,0,0,1-.957-9.724" transform="translate(2.306 23.437)"/>
            </g>
          </g>
        </g>
      </g>
      <g id="Group_223" data-name="Group 223" transform="translate(162.522 277.387)" opacity="0.1">
        <g id="Group_222" data-name="Group 222">
          <g id="Group_221" data-name="Group 221" clip-path="url(#clip-path-11)">
            <g id="Group_219" data-name="Group 219" transform="translate(6.975 1.418)">
              <path id="Path_380" data-name="Path 380" d="M0-1.784c.726-.047,1.451-.123,2.171-.228a5.647,5.647,0,0,0,2.446-.819A7.272,7.272,0,0,1,7.542,2.318a6.707,6.707,0,0,0,.041-.767A7.243,7.243,0,0,0,4.658-4.3a5.641,5.641,0,0,1-2.446.813l-.585.076A14.826,14.826,0,0,1,0-1.784" transform="translate(0 4.3)"/>
            </g>
            <g id="Group_220" data-name="Group 220" transform="translate(0 0)">
              <path id="Path_381" data-name="Path 381" d="M-5.153-1.03a6.016,6.016,0,0,1,.726.053c.38-.4.755-.837,1.135-1.258A7.256,7.256,0,0,0-12.174,2.9a7.237,7.237,0,0,0-.246,1.884,4.982,4.982,0,0,0,.035.726A7.267,7.267,0,0,1-5.153-1.03" transform="translate(12.42 2.483)"/>
            </g>
          </g>
        </g>
      </g>
      <g id="Group_228" data-name="Group 228" transform="translate(127.608 277.387)" opacity="0.1">
        <g id="Group_227" data-name="Group 227">
          <g id="Group_226" data-name="Group 226" clip-path="url(#clip-path-11)">
            <g id="Group_224" data-name="Group 224" transform="translate(0 1.418)">
              <path id="Path_382" data-name="Path 382" d="M-5.377-1.784c-.726-.047-1.451-.123-2.171-.228a5.647,5.647,0,0,1-2.446-.819,7.272,7.272,0,0,0-2.926,5.149,6.575,6.575,0,0,1-.041-.767A7.243,7.243,0,0,1-10.034-4.3a5.641,5.641,0,0,0,2.446.813L-7-3.411A13.866,13.866,0,0,0-5.377-1.784" transform="translate(12.96 4.3)"/>
            </g>
            <g id="Group_225" data-name="Group 225" transform="translate(5.43 0)">
              <path id="Path_383" data-name="Path 383" d="M-1.319-1.03a6.121,6.121,0,0,0-.731.053c-.374-.4-.749-.837-1.129-1.258A7.256,7.256,0,0,1,5.7,2.9a7.237,7.237,0,0,1,.246,1.884,4.982,4.982,0,0,1-.035.726A7.267,7.267,0,0,0-1.319-1.03" transform="translate(3.18 2.483)"/>
            </g>
          </g>
        </g>
      </g>
      <g id="Group_229" data-name="Group 229" transform="translate(55.586 318.627)">
        <path id="Path_384" data-name="Path 384" d="M-42.256-22.628H-99.422a2.428,2.428,0,0,1-2.428-2.428V-52.112a2.428,2.428,0,0,1,2.428-2.429,2.433,2.433,0,0,1,1.042.235c16.424,7.794,34.118,10.468,55,.123a2.434,2.434,0,0,1,3.26,1.106,2.434,2.434,0,0,1,.251,1.064V-25.1a2.428,2.428,0,0,1-2.387,2.469Z" transform="translate(101.85 54.541)" fill="#38d29f"/>
      </g>
      <g id="Group_233" data-name="Group 233" transform="translate(55.586 318.627)" opacity="0.1">
        <g id="Group_232" data-name="Group 232" transform="translate(0 0)">
          <g id="Group_231" data-name="Group 231" clip-path="url(#clip-path-13)">
            <g id="Group_230" data-name="Group 230" transform="translate(0 0)">
              <path id="Path_385" data-name="Path 385" d="M-42.256-22.628H-99.422a2.428,2.428,0,0,1-2.428-2.428V-52.112a2.428,2.428,0,0,1,2.428-2.429,2.433,2.433,0,0,1,1.042.235c16.424,7.794,34.118,10.468,55,.123a2.434,2.434,0,0,1,3.26,1.106,2.434,2.434,0,0,1,.251,1.064V-25.1a2.428,2.428,0,0,1-2.387,2.469Z" transform="translate(101.85 54.541)"/>
            </g>
          </g>
        </g>
      </g>
      <g id="Group_234" data-name="Group 234" transform="translate(82.817 321.115)">
        <path id="Path_386" data-name="Path 386" d="M-2.4,0C-.53,0,.984,1.983.984,4.429S-.53,8.859-2.4,8.859-5.78,6.876-5.78,4.429-4.266,0-2.4,0" transform="translate(5.78)" fill="#3e3c55"/>
      </g>
      <g id="Group_235" data-name="Group 235" transform="translate(82.817 315.702)">
        <path id="Path_387" data-name="Path 387" d="M-2.4,0C-.53,0,.984,1.983.984,4.429S-.53,8.859-2.4,8.859-5.78,6.876-5.78,4.429-4.266,0-2.4,0" transform="translate(5.78)" fill="#3e3c55"/>
      </g>
      <g id="Group_236" data-name="Group 236" transform="translate(82.817 310.284)">
        <path id="Path_388" data-name="Path 388" d="M-2.4,0C-.53,0,.984,1.983.984,4.429S-.53,8.859-2.4,8.859-5.78,6.876-5.78,4.429-4.266,0-2.4,0" transform="translate(5.78)" fill="#3e3c55"/>
      </g>
      <g id="Group_237" data-name="Group 237" transform="translate(82.817 304.872)">
        <path id="Path_389" data-name="Path 389" d="M-2.4,0C-.53,0,.984,1.983.984,4.429S-.53,8.859-2.4,8.859-5.78,6.876-5.78,4.429-4.266,0-2.4,0" transform="translate(5.78)" fill="#3e3c55"/>
      </g>
      <g id="Group_238" data-name="Group 238" transform="translate(82.817 299.454)">
        <path id="Path_390" data-name="Path 390" d="M-2.4,0C-.53,0,.984,1.983.984,4.429S-.53,8.859-2.4,8.859-5.78,6.876-5.78,4.429-4.266,0-2.4,0" transform="translate(5.78)" fill="#3e3c55"/>
      </g>
      <g id="Group_239" data-name="Group 239" transform="translate(82.817 294.036)">
        <path id="Path_391" data-name="Path 391" d="M-2.4,0C-.53,0,.984,1.983.984,4.429S-.53,8.859-2.4,8.859-5.78,6.876-5.78,4.429-4.266,0-2.4,0" transform="translate(5.78)" fill="#3e3c55"/>
      </g>
      <g id="Group_240" data-name="Group 240" transform="translate(82.817 288.623)">
        <path id="Path_392" data-name="Path 392" d="M-2.4,0C-.53,0,.984,1.983.984,4.429S-.53,8.859-2.4,8.859-5.78,6.876-5.78,4.429-4.266,0-2.4,0" transform="translate(5.78)" fill="#3e3c55"/>
      </g>
      <g id="Group_241" data-name="Group 241" transform="translate(69.926 229.688)">
        <path id="Path_393" data-name="Path 393" d="M-20.534-18.65a17.214,17.214,0,0,0,1.258-1.855l-8.894-1.463,9.619.07a16.213,16.213,0,0,0,.31-12.873l-12.9,6.694,11.9-8.777a16.213,16.213,0,0,0-22.152-5.92,16.214,16.214,0,0,0-5.92,22.152,16.225,16.225,0,0,0,1.291,1.906A15.867,15.867,0,0,0-47.87-15.76L-36.332-9.7l-12.287-4.154A16.232,16.232,0,0,0-46,1.361a16.213,16.213,0,0,0,2.72,22.767,16.213,16.213,0,0,0,22.767-2.72,16.213,16.213,0,0,0,0-20.047,16.214,16.214,0,0,0,0-20.046Z" transform="translate(49.493 44.953)" fill="#38d29f"/>
      </g>
      <g id="Group_245" data-name="Group 245" transform="translate(69.915 265.776)" opacity="0.1">
        <g id="Group_244" data-name="Group 244">
          <g id="Group_243" data-name="Group 243" clip-path="url(#clip-path-14)">
            <g id="Group_242" data-name="Group 242" transform="translate(0 0)">
              <path id="Path_394" data-name="Path 394" d="M0-.169A16.142,16.142,0,0,0,3.469,9.854a16.214,16.214,0,1,0,25.488,0C31.128,7.1,0-1.989,0-.169" transform="translate(0.001 0.408)"/>
            </g>
          </g>
        </g>
      </g>
      <g id="Group_246" data-name="Group 246" transform="translate(55.586 318.627)">
        <path id="Path_395" data-name="Path 395" d="M-42.256-23.645H-99.422a2.428,2.428,0,0,1-2.428-2.428V-54.562a2.428,2.428,0,0,1,2.428-2.429,2.433,2.433,0,0,1,1.042.235c16.424,7.794,29.449,16.881,55,.123,1.515-.995,3.511.363,3.511,2.171v28.378a2.428,2.428,0,0,1-2.387,2.44" transform="translate(101.85 56.991)" fill="#38d29f"/>
      </g>
      <g id="Group_247" data-name="Group 247" transform="translate(409.587 314.398)">
        <path id="Path_396" data-name="Path 396" d="M-92.03-20.931-176.368-9.773l-4.219.556L-221.82-31.241V-36.4L-92.966-50.45Z" transform="translate(221.82 50.45)" fill="#9c9ca0"/>
      </g>
      <g id="Group_248" data-name="Group 248" transform="translate(433.483 325.175)">
        <path id="Path_397" data-name="Path 397" d="M0-7.638,91.366-18.41,90.43-1.541,19.262,3.678Z" transform="translate(0 18.41)" fill="#929397"/>
      </g>
      <g id="Group_252" data-name="Group 252" transform="translate(409.581 328.452)" opacity="0.4">
        <g id="Group_251" data-name="Group 251" transform="translate(0 0)">
          <g id="Group_250" data-name="Group 250" clip-path="url(#clip-path-15)">
            <g id="Group_249" data-name="Group 249" transform="translate(0 0)">
              <path id="Path_398" data-name="Path 398" d="M-32.232-14.948v5.535l-4.219.585L-77.69-30.875V-36.03l39.361,21.064s5.161.486,6.1.018" transform="translate(77.69 36.03)"/>
            </g>
          </g>
        </g>
      </g>
      <g id="Group_253" data-name="Group 253" transform="translate(452.166 251.258)">
        <path id="Path_399" data-name="Path 399" d="M-13.517-7.389l-18.934,87.8a5.605,5.605,0,0,0,4.288,6.667,5.605,5.605,0,0,0,1.926.079L93.553,71.3a5.6,5.6,0,0,0,4.587-3.792l25.845-77.937a5.617,5.617,0,0,0-3.573-7.1,5.612,5.612,0,0,0-2.021-.277L-8.3-11.789a5.617,5.617,0,0,0-5.219,4.4" transform="translate(32.58 17.81)" fill="#3e3c55"/>
      </g>
      <g id="Group_254" data-name="Group 254" transform="translate(530.503 288.652)">
        <path id="Path_400" data-name="Path 400" d="M-.031-3.356c.294-2.8,1.988-4.91,3.785-4.721s3.015,2.608,2.721,5.4S4.486,2.238,2.69,2.049-.325-.559-.031-3.356" transform="translate(0.075 8.088)" fill="#fff"/>
      </g>
    </g>
  </g>
</svg>
