<svg xmlns="http://www.w3.org/2000/svg" xmlns:xlink="http://www.w3.org/1999/xlink" width="1373.681" height="1345.837" viewBox="0 0 1373.681 1345.837">
  <defs>
    <linearGradient id="linear-gradient" x1="0.541" y1="0.087" x2="0.541" y2="1.087" gradientUnits="objectBoundingBox">
      <stop offset="0.2" stop-color="gray" stop-opacity="0.4"/>
      <stop offset="0.46" stop-color="gray" stop-opacity="0.502"/>
      <stop offset="1" stop-opacity="0.6"/>
    </linearGradient>
    <linearGradient id="linear-gradient-2" x1="0.602" y1="-0.327" x2="0.602" y2="0.673" gradientUnits="objectBoundingBox">
      <stop offset="0" stop-color="gray" stop-opacity="0.251"/>
      <stop offset="0.54" stop-color="gray" stop-opacity="0.122"/>
      <stop offset="1" stop-color="gray" stop-opacity="0.102"/>
    </linearGradient>
  </defs>
  <g id="Illustration" opacity="0.997">
    <path id="Path_110" data-name="Path 110" d="M0,529.249,1106.877,0,1075.22,790.286,286.5,1164.507,65.593,1052.488Z" transform="translate(115.508 154.048) rotate(-8)" fill="#54b192"/>
    <ellipse id="Ellipse_29" data-name="Ellipse 29" cx="352.192" cy="346.876" rx="352.192" ry="346.876" transform="matrix(0.996, -0.087, 0.087, 0.996, 0, 654.725)" fill="#54b192"/>
    <g id="Group_2" data-name="Group 2" transform="translate(167.845 662.853)">
      <path id="Path_1" data-name="Path 1" d="M714.79,532.776c0,28.5-156.729,133.367-352.543,133.367S12.4,554.341,12.4,525.909s154.1,37.1,349.847,37.1S714.79,504.28,714.79,532.776Z" transform="translate(-4.365 -185.82)" fill="#3f3d56"/>
      <path id="Path_2" data-name="Path 2" d="M712.232,335.6v1.155c-.449,11.809-7,23.618-19.061,31.9-12.772,8.793-29.844,13.414-47.429,16.366-2.76.449-5.519.9-8.279,1.284-1.412.193-2.824.385-4.172.578-39.086,5.134-79.006,6.1-118.8,7.06-41.589,1.027-83.178,2.054-124.767,2.567l-8.279.128c-63.154.706-126.243.128-189.14-3.466-19.511-1.091-39.214-2.567-58.6-5.006-2.76-.321-5.52-.706-8.279-1.091-25.672-3.658-50.574-9.306-73.294-18.484a165.279,165.279,0,0,1-15.724-7.252c-14.248-7.573-26.25-17.136-32.219-28.881A40.514,40.514,0,0,1,.086,310.185,53.173,53.173,0,0,1,1.5,301.906a73.463,73.463,0,0,1,8.087-19.062c9.242-15.66,23.169-29.716,35.171-44.413,25.608-31.384,42.295-70.984,18.676-103.138-6.8-9.242-16.559-17.329-22.142-27.02A42.682,42.682,0,0,1,35.9,91.33a59.54,59.54,0,0,1-.321-8.279,113,113,0,0,1,2.439-19.126c3.851-19.7,11.039-40.947,33.245-53.27C86.537,2.184,105.855-.448,125.43.066q4.14.1,8.279.385c7.509.513,14.954,1.412,22.206,2.567,44.541,7.124,85.681,22.014,127.206,35.428,31.641,10.2,64.373,19.768,98.324,24.324,2.76.385,5.519.706,8.279,1.027,7.958.9,15.981,1.476,24.068,1.669,40.305,1.155,87.349-7.573,114.113-30.229,25.865-21.95,74.385-23.683,109.556-10.59l.514.193q3.947,1.54,7.7,3.273C671.605,40.307,689,61.165,691.437,83.051a43.25,43.25,0,0,1,.193,8.151v.064c-1.669,26.892-23.683,49.483-45.953,72.075-2.76,2.824-5.519,5.584-8.279,8.408A299.9,299.9,0,0,0,617.052,194.4a108.059,108.059,0,0,0-7.637,10.975,70.564,70.564,0,0,0-5.455,11.039,48.547,48.547,0,0,0-3.017,12.387,32.425,32.425,0,0,0,3.209,17.714l.064.128c5.969,11.809,18.548,20.153,33.181,27.6q4.043,2.022,8.279,4.043c15.853,7.445,32.86,14.441,45.825,23.618a74.293,74.293,0,0,1,9.755,8.215,51.28,51.28,0,0,1,3.466,3.979,34.629,34.629,0,0,1,7.509,20.987C712.232,335.216,712.232,335.408,712.232,335.6Z" transform="translate(0.119 -0.004)" fill="#38d39f"/>
      <path id="Path_3" data-name="Path 3" d="M712.232,335.6v1.155c-.449,11.809-7,23.618-19.061,31.9-12.772,8.793-29.844,13.414-47.429,16.366-2.76.449-5.519.9-8.279,1.284-1.412.193-2.824.385-4.172.578-39.086,5.134-79.006,6.1-118.8,7.06-41.589,1.027-83.178,2.054-124.767,2.567l-8.279.128c-63.154.706-126.243.128-189.14-3.466-19.511-1.091-39.214-2.567-58.6-5.006-2.76-.321-5.52-.706-8.279-1.091-25.672-3.658-50.574-9.306-73.294-18.484a165.279,165.279,0,0,1-15.724-7.252c-14.248-7.573-26.25-17.136-32.219-28.881A40.514,40.514,0,0,1,.086,310.185,53.173,53.173,0,0,1,1.5,301.906a73.463,73.463,0,0,1,8.087-19.062c9.242-15.66,23.169-29.716,35.171-44.413,25.608-31.384,42.295-70.984,18.676-103.138-6.8-9.242-16.559-17.329-22.142-27.02A42.682,42.682,0,0,1,35.9,91.33a59.54,59.54,0,0,1-.321-8.279,113,113,0,0,1,2.439-19.126c3.851-19.7,11.039-40.947,33.245-53.27C86.537,2.184,105.855-.448,125.43.066q4.14.1,8.279.385c7.509.513,14.954,1.412,22.206,2.567,44.541,7.124,85.681,22.014,127.206,35.428,31.641,10.2,64.373,19.768,98.324,24.324,2.76.385,5.519.706,8.279,1.027,7.958.9,15.981,1.476,24.068,1.669,40.305,1.155,87.349-7.573,114.113-30.229,25.865-21.95,74.385-23.683,109.556-10.59l.514.193q3.947,1.54,7.7,3.273C671.605,40.307,689,61.165,691.437,83.051a43.25,43.25,0,0,1,.193,8.151v.064c-1.669,26.892-23.683,49.483-45.953,72.075-2.76,2.824-5.519,5.584-8.279,8.408A299.9,299.9,0,0,0,617.052,194.4a108.059,108.059,0,0,0-7.637,10.975,70.564,70.564,0,0,0-5.455,11.039,48.547,48.547,0,0,0-3.017,12.387,32.425,32.425,0,0,0,3.209,17.714l.064.128c5.969,11.809,18.548,20.153,33.181,27.6q4.043,2.022,8.279,4.043c15.853,7.445,32.86,14.441,45.825,23.618a74.293,74.293,0,0,1,9.755,8.215,51.28,51.28,0,0,1,3.466,3.979,34.629,34.629,0,0,1,7.509,20.987C712.232,335.216,712.232,335.408,712.232,335.6Z" transform="translate(0.119 -0.004)" fill="url(#linear-gradient)"/>
      <path id="Path_4" data-name="Path 4" d="M1001.579,41.8V177.094c-2.76,2.824-5.519,5.584-8.279,8.408V38.4Z" transform="translate(-355.72 -13.757)" fill="#3f3d56"/>
      <path id="Path_5" data-name="Path 5" d="M711.675,137.515v.064H56.008a59.542,59.542,0,0,1-.321-8.279h655.8A43.942,43.942,0,0,1,711.675,137.515Z" transform="translate(-19.863 -46.317)" fill="#3f3d56"/>
      <ellipse id="Ellipse_1" data-name="Ellipse 1" cx="2.439" cy="2.439" rx="2.439" ry="2.439" transform="translate(152.569 43.64)" fill="#e7effd"/>
      <ellipse id="Ellipse_2" data-name="Ellipse 2" cx="2.439" cy="2.439" rx="2.439" ry="2.439" transform="translate(75.488 38.826)" fill="#e7effd"/>
      <circle id="Ellipse_3" data-name="Ellipse 3" cx="1.027" cy="1.027" r="1.027" transform="translate(181.129 45.052)" fill="#e7effd"/>
      <circle id="Ellipse_4" data-name="Ellipse 4" cx="1.027" cy="1.027" r="1.027" transform="translate(103.728 42.677)" fill="#e7effd"/>
      <circle id="Ellipse_5" data-name="Ellipse 5" cx="1.027" cy="1.027" r="1.027" transform="translate(102.701 114.816)" fill="#e7effd"/>
      <circle id="Ellipse_6" data-name="Ellipse 6" cx="1.027" cy="1.027" r="1.027" transform="translate(579.304 60.263)" fill="#e7effd"/>
      <circle id="Ellipse_7" data-name="Ellipse 7" cx="1.027" cy="1.027" r="1.027" transform="translate(229.329 61.225)" fill="#e7effd"/>
      <circle id="Ellipse_8" data-name="Ellipse 8" cx="1.027" cy="1.027" r="1.027" transform="translate(528.345 59.172)" fill="#e7effd"/>
      <circle id="Ellipse_9" data-name="Ellipse 9" cx="1.027" cy="1.027" r="1.027" transform="translate(658.439 62.252)" fill="#e7effd"/>
      <path id="Path_6" data-name="Path 6" d="M732.691,440.587v1.155c-.321,11.937-6.932,23.811-19.062,32.219-12.772,8.793-29.844,13.414-47.429,16.366-2.76.449-5.52.9-8.279,1.284-1.412.193-2.824.385-4.172.578-9.627,1.284-19.318,2.246-29.01,3.081-13.029,1.091-26.121,1.861-39.214,2.439-16.815.77-33.695,1.155-50.51,1.6q-49.387,1.251-98.838,2.182l-11.681.193-14.248.193-8.279.128c-51.986.578-103.908.257-155.7-1.861-3.466-.128-6.867-.257-10.333-.449q-11.552-.481-23.1-1.155c-15.4-.9-31-1.99-46.4-3.594-4.108-.449-8.151-.9-12.194-1.412-2.76-.321-5.52-.706-8.279-1.091-3.081-.449-6.1-.9-9.114-1.412-22.463-3.658-44.156-8.985-64.116-17.072A158.253,158.253,0,0,1,57,466.708V353.751c2.824-3.273,5.648-6.611,8.408-9.948,3.273-4.043,6.418-8.151,9.306-12.387H136.84V293.1H246.268v84.012H424.5V310.365H630.131a69.139,69.139,0,0,0-5.391,10.654v.385h-.257a48.546,48.546,0,0,0-3.016,12.387,32.426,32.426,0,0,0,3.209,17.714v.257l.064.128c5.969,11.809,18.548,20.153,33.181,27.6q4.043,2.022,8.279,4.043c15.66,7.381,32.539,14.248,45.44,23.362l.385.257a66.405,66.405,0,0,1,9.5,7.958c.128.064.192.192.257.257a51.3,51.3,0,0,1,3.466,3.979,34.712,34.712,0,0,1,7.509,20.73A1.252,1.252,0,0,0,732.691,440.587Z" transform="translate(-20.341 -104.99)" fill="#38d39f"/>
      <path id="Path_7" data-name="Path 7" d="M732.691,440.587v1.155c-.321,11.937-6.932,23.811-19.062,32.219-12.772,8.793-29.844,13.414-47.429,16.366-2.76.449-5.52.9-8.279,1.284-1.412.193-2.824.385-4.172.578-9.627,1.284-19.318,2.246-29.01,3.081-13.029,1.091-26.121,1.861-39.214,2.439-16.815.77-33.695,1.155-50.51,1.6q-49.387,1.251-98.838,2.182l-11.681.193-14.248.193-8.279.128c-51.986.578-103.908.257-155.7-1.861-3.466-.128-6.867-.257-10.333-.449q-11.552-.481-23.1-1.155c-15.4-.9-31-1.99-46.4-3.594-4.108-.449-8.151-.9-12.194-1.412-2.76-.321-5.52-.706-8.279-1.091-3.081-.449-6.1-.9-9.114-1.412-22.463-3.658-44.156-8.985-64.116-17.072A158.253,158.253,0,0,1,57,466.708V353.751c2.824-3.273,5.648-6.611,8.408-9.948,3.273-4.043,6.418-8.151,9.306-12.387H136.84V293.1H246.268v84.012H424.5V310.365H630.131a69.139,69.139,0,0,0-5.391,10.654v.385h-.257a48.546,48.546,0,0,0-3.016,12.387,32.426,32.426,0,0,0,3.209,17.714v.257l.064.128c5.969,11.809,18.548,20.153,33.181,27.6q4.043,2.022,8.279,4.043c15.66,7.381,32.539,14.248,45.44,23.362l.385.257a66.405,66.405,0,0,1,9.5,7.958c.128.064.192.192.257.257a51.3,51.3,0,0,1,3.466,3.979,34.712,34.712,0,0,1,7.509,20.73A1.252,1.252,0,0,0,732.691,440.587Z" transform="translate(-20.341 -104.99)" opacity="0.3"/>
      <rect id="Rectangle_1" data-name="Rectangle 1" width="18.356" height="12.387" transform="translate(57.004 241.829)" opacity="0.4"/>
      <rect id="Rectangle_2" data-name="Rectangle 2" width="18.356" height="12.387" transform="translate(86.399 241.829)" opacity="0.4"/>
      <rect id="Rectangle_3" data-name="Rectangle 3" width="18.356" height="12.387" transform="translate(423.603 216.349)" opacity="0.4"/>
      <rect id="Rectangle_4" data-name="Rectangle 4" width="18.356" height="12.387" transform="translate(473.15 216.349)" opacity="0.4"/>
      <rect id="Rectangle_5" data-name="Rectangle 5" width="18.356" height="12.387" transform="translate(526.42 216.349)" opacity="0.4"/>
      <rect id="Rectangle_6" data-name="Rectangle 6" width="18.356" height="12.387" transform="translate(423.603 254.216)" opacity="0.4"/>
      <rect id="Rectangle_7" data-name="Rectangle 7" width="18.356" height="12.387" transform="translate(473.15 254.216)" opacity="0.4"/>
      <rect id="Rectangle_8" data-name="Rectangle 8" width="18.356" height="12.387" transform="translate(526.42 254.216)" fill="#38d39f"/>
      <rect id="Rectangle_9" data-name="Rectangle 9" width="18.356" height="12.387" transform="translate(423.603 292.082)" opacity="0.4"/>
      <rect id="Rectangle_10" data-name="Rectangle 10" width="18.356" height="12.387" transform="translate(473.15 292.082)" opacity="0.4"/>
      <rect id="Rectangle_11" data-name="Rectangle 11" width="18.356" height="12.387" transform="translate(526.42 292.082)" opacity="0.4"/>
      <rect id="Rectangle_12" data-name="Rectangle 12" width="18.356" height="12.387" transform="translate(423.603 329.949)" opacity="0.4"/>
      <rect id="Rectangle_13" data-name="Rectangle 13" width="18.356" height="12.387" transform="translate(473.15 329.949)" opacity="0.4"/>
      <rect id="Rectangle_14" data-name="Rectangle 14" width="18.356" height="12.387" transform="translate(526.42 329.949)" opacity="0.4"/>
      <rect id="Rectangle_15" data-name="Rectangle 15" width="18.356" height="12.387" transform="translate(423.603 367.751)" opacity="0.4"/>
      <rect id="Rectangle_16" data-name="Rectangle 16" width="18.356" height="12.387" transform="translate(473.15 367.751)" opacity="0.4"/>
      <rect id="Rectangle_17" data-name="Rectangle 17" width="18.356" height="12.387" transform="translate(526.42 367.751)" opacity="0.4"/>
      <path id="Path_8" data-name="Path 8" d="M933.893,337.2a48.538,48.538,0,0,0-3.017,12.387H920.8V337.2Z" transform="translate(-329.751 -120.786)" opacity="0.4"/>
      <rect id="Rectangle_18" data-name="Rectangle 18" width="18.356" height="12.387" transform="translate(591.113 254.216)" fill="#38d39f"/>
      <rect id="Rectangle_19" data-name="Rectangle 19" width="18.356" height="12.387" transform="translate(591.113 292.082)" opacity="0.4"/>
      <rect id="Rectangle_20" data-name="Rectangle 20" width="18.356" height="12.387" transform="translate(591.113 329.949)" opacity="0.4"/>
      <rect id="Rectangle_21" data-name="Rectangle 21" width="18.356" height="12.387" transform="translate(591.113 367.751)" opacity="0.4"/>
      <rect id="Rectangle_22" data-name="Rectangle 22" width="18.356" height="12.387" transform="translate(158.858 201.909)" opacity="0.4"/>
      <rect id="Rectangle_23" data-name="Rectangle 23" width="18.356" height="12.387" transform="translate(158.858 229.699)" fill="#38d39f"/>
      <rect id="Rectangle_24" data-name="Rectangle 24" width="18.356" height="12.387" transform="translate(158.858 257.425)" opacity="0.4"/>
      <rect id="Rectangle_25" data-name="Rectangle 25" width="18.356" height="12.387" transform="translate(158.858 285.215)" opacity="0.4"/>
      <rect id="Rectangle_26" data-name="Rectangle 26" width="18.356" height="12.387" transform="translate(158.858 313.005)" opacity="0.4"/>
      <rect id="Rectangle_27" data-name="Rectangle 27" width="18.356" height="12.387" transform="translate(158.858 340.731)" opacity="0.4"/>
      <rect id="Rectangle_28" data-name="Rectangle 28" width="18.356" height="12.387" transform="translate(158.858 368.521)" opacity="0.4"/>
      <rect id="Rectangle_29" data-name="Rectangle 29" width="18.356" height="12.387" transform="translate(57.004 274.176)" opacity="0.4"/>
      <rect id="Rectangle_30" data-name="Rectangle 30" width="18.356" height="12.387" transform="translate(86.399 274.176)" opacity="0.4"/>
      <rect id="Rectangle_31" data-name="Rectangle 31" width="18.356" height="12.387" transform="translate(57.004 306.587)" opacity="0.4"/>
      <rect id="Rectangle_32" data-name="Rectangle 32" width="18.356" height="12.387" transform="translate(86.399 306.587)" opacity="0.4"/>
      <rect id="Rectangle_33" data-name="Rectangle 33" width="18.356" height="12.387" transform="translate(57.004 338.934)" opacity="0.4"/>
      <rect id="Rectangle_34" data-name="Rectangle 34" width="18.356" height="12.387" transform="translate(86.399 338.934)" opacity="0.4"/>
      <rect id="Rectangle_35" data-name="Rectangle 35" width="91.778" height="11.103" transform="translate(262.574 286.563)" opacity="0.4"/>
      <rect id="Rectangle_36" data-name="Rectangle 36" width="91.778" height="11.103" transform="translate(262.574 321.862)" opacity="0.4"/>
      <rect id="Rectangle_37" data-name="Rectangle 37" width="91.778" height="11.103" transform="translate(262.574 357.161)" opacity="0.4"/>
      <path id="Path_9" data-name="Path 9" d="M203.779.485v387.65c-2.76-.321-5.52-.706-8.279-1.091V.1Q199.64.2,203.779.485Z" transform="translate(-69.951 -0.039)" fill="#3f3d56"/>
      <path id="Path_10" data-name="Path 10" d="M602.679,98.763V431.538l-8.279.128V97.8C597.16,98.121,599.92,98.506,602.679,98.763Z" transform="translate(-212.836 -35.034)" fill="#3f3d56"/>
      <path id="Path_11" data-name="Path 11" d="M701.471,478.579H.3A53.175,53.175,0,0,1,1.712,470.3h690A66.579,66.579,0,0,1,701.471,478.579Z" transform="translate(-0.031 -168.462)" fill="#3f3d56"/>
      <path id="Path_12" data-name="Path 12" d="M993.3,427.2q4.044,2.022,8.279,4.043v106.8c-2.76.449-5.519.9-8.279,1.284Z" transform="translate(-355.72 -153.024)" fill="#3f3d56"/>
      <path id="Path_13" data-name="Path 13" d="M335.466,228.94h-1.6V227.4H333.6v1.54H332v.321h1.6v1.54h.257v-1.54h1.6Z" transform="translate(-118.845 -81.456)" fill="#e7effd"/>
      <path id="Path_14" data-name="Path 14" d="M846.766,177.8h-1.6v-1.6h-.321v1.6H843.3v.257h1.54v1.6h.321v-1.6h1.6Z" transform="translate(-301.991 -63.117)" fill="#e7effd"/>
      <path id="Path_15" data-name="Path 15" d="M393.7,167.84h-1.54V166.3h-.321v1.54H390.3v.321h1.54v1.54h.321v-1.54h1.54Z" transform="translate(-139.728 -59.571)" fill="#e7effd"/>
      <circle id="Ellipse_10" data-name="Ellipse 10" cx="1.027" cy="1.027" r="1.027" transform="translate(250.572 208.198)" fill="#e7effd"/>
      <circle id="Ellipse_11" data-name="Ellipse 11" cx="1.027" cy="1.027" r="1.027" transform="translate(486.243 115.843)" fill="#e7effd"/>
      <circle id="Ellipse_12" data-name="Ellipse 12" cx="1.027" cy="1.027" r="1.027" transform="translate(590.087 164.813)" fill="#e7effd"/>
      <circle id="Ellipse_13" data-name="Ellipse 13" cx="1.027" cy="1.027" r="1.027" transform="translate(427.453 173.669)" fill="#e7effd"/>
      <path id="Path_16" data-name="Path 16" d="M577.9,401.445s-22.014,5.327-30.742,15.275c-2.888,3.337-7.252,5.712-11.745,7.445V409.147c5.006-8.472,10.14-17.842,10.14-17.842.257-.449,2.054-6.931,2.054-6.931,4.108-3.273-.257-14.569-.257-14.569s2.5-7.188,1.155-8.6-.257-5.07.9-6.739.9-3.723.9-5.07-1.861-3.466-4.814-4.621.257-3.017,2.054-3.466,2.311-4.878.257-7.188.257-3.722,1.348-6.225-3.658-2.118-3.658-2.118V302.35h0s-1.412-7.637-2.76-21.115-6.675-14.826-6.675-14.826a65.264,65.264,0,0,1-8.279-3.273,52.687,52.687,0,0,0-8.729-3.209,44.927,44.927,0,0,1-11.232-1.54,35.15,35.15,0,0,0-7.7-1.669l-.834-.385a30.235,30.235,0,0,1-13.927-14.762l-.385-.963a34.54,34.54,0,0,0,3.658-4.878v2.7h0v.064c3.658-6.482,14.248-7.958,15.275-15.339a5.524,5.524,0,0,0,.064-1.027v-.834c-.128-2.054-.834-4.108-.963-6.161a8.423,8.423,0,0,1,0-1.8v.064c.449-5.712,4.814-10.718,6.739-16.3a19.237,19.237,0,0,0,1.027-4.621v-.064c.064-.449.064-.963.128-1.412V189.65a21.533,21.533,0,0,0-7.188-15.66c-3.658-3.209-8.472-5.2-11.039-9.306-1.155-1.925-1.733-4.236-3.081-6.1-2.439-3.53-6.867-4.942-11.1-5.455s-8.536-.321-12.579-1.669c-2.888-.963-5.455-2.631-8.344-3.466a16.017,16.017,0,0,0-17.136,6.161c-1.54,2.246-2.5,4.878-4.557,6.611-4.172,3.53-11.36,1.99-15.018,6.1-2.054,2.246-2.246,5.327-1.99,8.472v.128c0,.257.064.513.064.706v.321a.953.953,0,0,0,.064.385c.128,1.155.321,2.246.449,3.337,0,.193.064.321.064.513l.128,1.027c0,.257.064.513.064.706s.064.642.064.9a2.633,2.633,0,0,0,.064.706,49.946,49.946,0,0,1-5.263,24.709c-3.466,6.8-8.664,13.093-9.563,20.666a24.618,24.618,0,0,0-.128,3.787v.449c0,.128.064.449.064.642s.064.513.064.77c0,.128.064.321.064.449.064.321.064.706.128,1.027l.064.193c.9,5.2,2.952,10.269,4.108,15.532a45.691,45.691,0,0,1,.834,5.84v.064c.064.642.064,1.284.064,1.861v2.567a51.216,51.216,0,0,1-5.327,1.669c-3.209.449-12.644,8.793-11.937,10.911s-4.236,16.687-4.364,17.136h0l-7.7,53.27s-4.108,3.915-2.824,6.482-.257,6.932-.257,6.932-6.931,3.016-5.391,4.878.834,5.327-.192,7.638-2.76,6.482,0,7.188.642,9.755.642,9.755,9.691-1.091,8.985,4.621c-.257,1.8,6.739,6.867,9.691,8.857V429.62A79.845,79.845,0,0,1,380.1,425.7c-5.969-2.76-39.471-8.087-46.788,7.894s10.076,37.289,14.441,39.6c0,0,4.108,3.209,5.07,4.878s6.161,2.118,6.161,2.118,5.52,2.567,6.867,3.915c1.027,1.027,9.37,3.723,19.318,5.776h0s-8.023,18.484,5.07,16.944,19.511-7.958,28.689-7.958c3.722,0,10.526-.513,17.457-1.155a45.956,45.956,0,0,1,5.134,1.219,69.424,69.424,0,0,0,11.938,2.567s10.333,5.584,15.852,4.172a2.792,2.792,0,0,0,1.219-.642h.128c1.027-.257,2.118-1.284,3.337-2.824,6.867.706,14.762,1.733,17.714,2.824,5.712,2.182,46.531-.834,46.531-.834s26.378.513,33.887,2.824,4.878-23.3-9.049-26.186a55.7,55.7,0,0,0-11.3-1.091,24.97,24.97,0,0,0,2.631-3.209c5.006-.449,8.343-.77,8.343-.77s13.285-6.482,20.859-10.461a48.171,48.171,0,0,0,12.836-10.2s6.675-4.172,9.434-5.776,4.108-6.931,4.108-6.931C630.85,395.155,577.9,401.445,577.9,401.445Zm-59.752-59.3v-2.31c.706.513.642,1.348,0,2.31Zm.193,16.366c.578.706,1.091,1.412,1.476,1.925,1.476,1.926-1.219,2.824-1.027,6.033.064.706.128,1.733.193,2.824h0c-.257-4.621-.513-8.408-.642-10.782Z" transform="translate(-118.678 -52.82)" fill="url(#linear-gradient-2)"/>
      <path id="Path_17" data-name="Path 17" d="M399,585.3s-12.836-3.016-18.8-5.712-39.471-8.022-46.788,7.83,10.076,36.9,14.441,39.214,46.788-29.138,46.788-29.138l33.5,14.12,6.418-21.885Z" transform="translate(-118.714 -206.507)" fill="#65617d"/>
      <path id="Path_18" data-name="Path 18" d="M482.318,597h98.453a23.638,23.638,0,0,1,23.618,23.618v3.4a23.638,23.638,0,0,1-23.618,23.618H482.318A23.638,23.638,0,0,1,458.7,624.02v-3.4A23.556,23.556,0,0,1,482.318,597Z" transform="translate(-164.228 -213.846)" fill="#65617d"/>
      <path id="Path_19" data-name="Path 19" d="M604.354,622.351a25.092,25.092,0,0,1-4.236,13.991,26.712,26.712,0,0,1-3.209,3.915A25.422,25.422,0,0,1,579,647.7H483.951a25.351,25.351,0,0,1,0-50.7H579A25.364,25.364,0,0,1,604.354,622.351Z" transform="translate(-164.193 -213.846)" opacity="0.1"/>
      <path id="Path_20" data-name="Path 20" d="M508.159,638.8s-14.633,3.722-26.507,3.594c-11.938-.193-67.71,22.977-67.71,22.977s-8.023,18.292,5.07,16.815,19.511-7.894,28.689-7.894,38.316-3.209,38.316-3.209L514,650.417Z" transform="translate(-147.325 -228.818)" fill="#fbbebe"/>
      <path id="Path_21" data-name="Path 21" d="M537.866,333.12l-26.186,5.134-1.733.321s-20.73-5.52-21.436-5.969S469,306.806,469,306.806s9.5.128,17.008-4.172a5.347,5.347,0,0,0,.77-.513,16.769,16.769,0,0,0,7.06-8.664l.385-1.155a24.118,24.118,0,0,0-.193-11.3c-2.567-10.718,3.337-13.67,11.167-13.414,11.3.385,26.7,7.445,26.7,7.445a31.108,31.108,0,0,0,2.439,10.461l.385.963a29.966,29.966,0,0,0,13.927,14.633l.834.385c.834.385,1.733.77,2.631,1.091C572.074,310.207,537.866,333.12,537.866,333.12Z" transform="translate(-167.918 -95.848)" fill="#fbbebe"/>
      <path id="Path_22" data-name="Path 22" d="M548.354,286.5a33.1,33.1,0,0,1-40.819,7.06c1.155-3.273,1.348-7.381.128-12.451-6.226-26.186,37.867-5.969,37.867-5.969A33.227,33.227,0,0,0,548.354,286.5Z" transform="translate(-181.551 -95.891)" opacity="0.1"/>
      <path id="Path_23" data-name="Path 23" d="M547.406,242.317a32.865,32.865,0,0,1-5.006,17.457,33.946,33.946,0,0,1-3.658,4.813,32.828,32.828,0,0,1-22.4,10.654c-.642.064-1.348.064-1.99.064a33.053,33.053,0,1,1,33.053-32.989Z" transform="translate(-172.324 -74.937)" fill="#fbbebe"/>
      <path id="Path_24" data-name="Path 24" d="M537.866,351.826l-26.186,5.134-1.733.321s-20.73-5.52-21.436-5.969S469,325.512,469,325.512s9.5.128,17.008-4.172a5.351,5.351,0,0,0,.77-.513,30.69,30.69,0,0,0,22.335,9.755,38.3,38.3,0,0,0,4.685-.321c3.658-.578,7.381-.963,11.1-1.284,7.124-.77,17.97-2.888,23.683-9.178l.834.385c.834.385,1.733.77,2.631,1.091C572.074,328.914,537.866,351.826,537.866,351.826Z" transform="translate(-167.918 -114.554)" opacity="0.1"/>
      <path id="Path_25" data-name="Path 25" d="M550.152,419.045c.193,5.07,3.915,61.934,3.915,61.934h-114.5l.77-35.813.642-28.624.193-9.435.9-32.6-3.337-2.952L420.7,355.635h0c.128-.449,5.006-14.954,4.364-16.944s8.728-10.333,11.937-10.782c1.8-.449,3.594-.963,5.391-1.6,5.391-1.925,12.644-4.685,13.414-4.236,1.155.578,12.387-.449,12.836-.513h0a30.678,30.678,0,0,0,23.169,10.654,28.838,28.838,0,0,0,4.685-.385c3.658-.578,7.381-.963,11.1-1.284,7.445-.77,19.061-3.145,24.517-10.141a35.973,35.973,0,0,1,7.7,1.669,45.239,45.239,0,0,0,11.231,1.54,59.131,59.131,0,0,1,8.729,3.209,64.915,64.915,0,0,0,8.279,3.209s5.263,1.348,6.675,14.7,2.76,20.859,2.76,20.859L550.216,389.2C550.152,389.2,549.959,413.975,550.152,419.045Z" transform="translate(-150.617 -114.769)" fill="#38d39f"/>
      <path id="Path_26" data-name="Path 26" d="M418.508,525.011l4.043,6.418,15.018,5.327L447.9,517.887l-9.5-6.418L423.129,505.5l-8.728,5.07Z" transform="translate(-148.36 -181.071)" fill="#fbbebe"/>
      <path id="Path_27" data-name="Path 27" d="M619.454,570.182s21.308-1.6,30.036-11.488,30.742-15.146,30.742-15.146,53.013-6.226,32.09,40.626c0,0-1.348,5.263-4.108,6.867s-9.434,5.712-9.434,5.712L617.4,589.628Z" transform="translate(-221.074 -194.601)" fill="#65617d"/>
      <path id="Path_28" data-name="Path 28" d="M638.075,625.9a25.091,25.091,0,0,1-4.236,13.991c-13.67,1.219-44.028,4.044-50.382,5.84-7.83,2.182-23.554-1.6-25.287-2.054l-.192-.064s-3.017-9.242-4.493-15.147c-.642-2.7-.963-4.685-.578-4.814,1.412-.449,13.991-3.915,13.8-1.925S604.573,606.9,604.573,606.9l1.155,14.7C609.643,626.154,638.075,619.544,638.075,625.9Z" transform="translate(-197.913 -217.392)" opacity="0.1"/>
      <path id="Path_29" data-name="Path 29" d="M678.066,614.069l-1.6,5.969a46.472,46.472,0,0,1-12.836,10.076c-7.573,3.915-20.859,10.333-20.859,10.333s-48.841,4.108-57.121,6.418-25.48-2.054-25.48-2.054-6.418-19.511-5.07-19.96,13.991-3.915,13.8-1.926S606.761,608.1,606.761,608.1Z" transform="translate(-198.69 -217.822)" fill="#65617d"/>
      <path id="Path_30" data-name="Path 30" d="M534.9,685.155s24,1.669,29.716,3.851,46.531-.834,46.531-.834,26.378.513,33.887,2.76,4.878-23.105-9.05-25.929-33.566,1.348-33.566,1.348-22.142-2.888-24.838-3.209-20.409.193-20.409.193Z" transform="translate(-191.523 -237.499)" fill="#fbbebe"/>
      <path id="Path_31" data-name="Path 31" d="M387.8,598.9s31.769,2.888,40.5,8.087Z" transform="translate(-138.832 -214.526)" opacity="0.1"/>
      <path id="Path_32" data-name="Path 32" d="M676.993,566.5s-24.838,6.033-34.594,14.954Z" transform="translate(-230.029 -202.921)" opacity="0.1"/>
      <path id="Path_33" data-name="Path 33" d="M390.7,587.6c.513.193,14.633,1.99,14.248,3.338S390.7,587.6,390.7,587.6Z" transform="translate(-139.871 -210.479)" opacity="0.1"/>
      <path id="Path_34" data-name="Path 34" d="M356.1,634.848l1.861,6.867s4.108,3.209,5.07,4.813,6.161,2.054,6.161,2.054,5.52,2.5,6.867,3.915,16.3,5.712,30.293,7.573,39.92,5.263,45.44,7.124a63.721,63.721,0,0,0,11.938,2.5s10.333,5.519,15.853,4.108,14.89-26.378,14.89-26.378-36.262-8.472-37.417-11.232-36.005-15.6-36.005-15.6l-20.666.514Z" transform="translate(-127.477 -222.299)" opacity="0.1"/>
      <path id="Path_35" data-name="Path 35" d="M354,629.429l1.861,6.867s4.108,3.209,5.07,4.814,6.161,2.054,6.161,2.054,5.52,2.5,6.867,3.915,16.3,5.712,30.293,7.573,39.92,5.263,45.44,7.124a63.705,63.705,0,0,0,11.937,2.5s10.333,5.52,15.853,4.108,14.89-26.378,14.89-26.378-36.262-8.472-37.417-11.232-52.307-23.618-52.307-23.618L386.6,603.5Z" transform="translate(-126.725 -216.174)" fill="#65617d"/>
      <path id="Path_36" data-name="Path 36" d="M414.879,371.8l-4.043,2.311-7.7,52.756s-4.108,3.915-2.824,6.418-.257,6.867-.257,6.867-6.931,3.016-5.391,4.814.834,5.263-.193,7.573-2.76,6.418,0,7.124.449,9.627.449,9.627,9.691-1.091,8.985,4.557c-.321,2.31,10.975,9.627,10.975,9.627s-12.772-23.169,15.853-19.96l2.439-13.029s2.439-7.381,0-9.627.578-13.157.578-13.157l.513-47.365Z" transform="translate(-140.688 -133.18)" fill="#38d39f"/>
      <path id="Path_37" data-name="Path 37" d="M417.4,478c.513.834,15.981,2.567,16.944,5.327S417.4,478,417.4,478Z" transform="translate(-149.435 -171.221)" opacity="0.1"/>
      <path id="Path_38" data-name="Path 38" d="M409.8,495.315s2.118-6.546,7.06-5.391S409.8,495.315,409.8,495.315Z" transform="translate(-146.713 -175.442)" opacity="0.1"/>
      <path id="Path_39" data-name="Path 39" d="M405.6,508.768s3.722-8.729,8.728-8.087S405.6,508.768,405.6,508.768Z" transform="translate(-145.208 -179.333)" opacity="0.1"/>
      <path id="Path_40" data-name="Path 40" d="M642.534,506.947l-1.6,9.627s-16.494,30.293-19.511,30.742S602.164,527.1,602.164,527.1L597.8,506.882l17.136-3.273,7.637-7.509C622.574,496.164,641.828,498.025,642.534,506.947Z" transform="translate(-214.054 -177.704)" fill="#fbbebe"/>
      <path id="Path_41" data-name="Path 41" d="M641.794,381.78l6.226,4.364v23.169s4.814-.449,3.658,2.054-3.466,3.915-1.348,6.225,1.6,6.675-.257,7.124-5.07,2.311-2.054,3.466,4.814,3.209,4.814,4.621.257,3.466-.9,5.07-2.311,5.263-.9,6.675-1.155,8.472-1.155,8.472,4.364,11.232.257,14.441c0,0-1.861,6.418-2.054,6.867,0,0,2.888-22.335-25.993-12.9,0,0-.513-8.536-.706-11.681s2.5-4.043,1.027-5.969-5.2-6.225-3.466-7.317,1.155-3.209.449-4.814-3.081-1.6-.9-3.53,3.53-3.787,2.182-4.685-3.53-3.915-1.733-5.263,1.861-21.308,1.861-21.308S628.06,367.339,641.794,381.78Z" transform="translate(-221.144 -135.33)" fill="#38d39f"/>
      <path id="Path_42" data-name="Path 42" d="M650.8,444.911s8.793-2.375,9.114,0S650.8,444.911,650.8,444.911Z" transform="translate(-233.038 -158.99)" opacity="0.1"/>
      <path id="Path_43" data-name="Path 43" d="M635.3,454.933s12.066-3.016,13.606-.642S635.3,454.933,635.3,454.933Z" transform="translate(-227.486 -162.402)" opacity="0.1"/>
      <path id="Path_44" data-name="Path 44" d="M631.1,465.234s18.163-2.5,19.318,1.155S631.1,465.234,631.1,465.234Z" transform="translate(-225.981 -166.348)" opacity="0.1"/>
      <path id="Path_45" data-name="Path 45" d="M635.3,478c.642.193,17.457,1.348,17.778,4.557S635.3,478,635.3,478Z" transform="translate(-227.486 -171.221)" opacity="0.1"/>
      <path id="Path_46" data-name="Path 46" d="M431.839,494.1H562.19a6.738,6.738,0,0,1,6.739,6.739v68.224a6.738,6.738,0,0,1-6.739,6.739H431.839a6.738,6.738,0,0,1-6.739-6.739V500.839A6.738,6.738,0,0,1,431.839,494.1Z" transform="translate(-152.193 -176.987)" fill="#3f3d56"/>
      <circle id="Ellipse_14" data-name="Ellipse 14" cx="5.327" cy="5.327" r="5.327" transform="translate(339.526 352.669)" fill="#e7effd"/>
      <path id="Path_47" data-name="Path 47" d="M462.7,416.1s13.8,10.526,24.453,2.5C487.089,418.6,469.118,420.272,462.7,416.1Z" transform="translate(-165.661 -149.048)" opacity="0.1"/>
      <path id="Path_48" data-name="Path 48" d="M571.4,420.5s13.8,10.526,24.453,2.5C595.853,423,577.818,424.672,571.4,420.5Z" transform="translate(-204.597 -150.624)" opacity="0.1"/>
      <path id="Path_49" data-name="Path 49" d="M530.964,242.363a32.864,32.864,0,0,1-5.006,17.457c-.257-9.178-2.439-18.42-7.445-26.057-4.557-7.06-18.484-19.382-28.111-15.917a6.775,6.775,0,0,0-4.172,4.493c-.963,3.594,1.8,5.134,3.594,7.958a24.408,24.408,0,0,1,3.337,16.494,14.92,14.92,0,0,1-.514,2.311c-1.476,5.648-4.942,12.13-1.412,16.751,2.5,3.209,7.83,4.364,8.536,8.343a6.966,6.966,0,0,1,.064,1.155c-.193,2.7-2.439,5.07-3.466,7.7-1.155,3.145-.513,6.225.706,9.37,1.6,4.108,4.108,8.215,4.749,12.579s-.706,8.343-2.246,12.387c-1.476,3.851-3.209,7.7-3.787,11.681-1.091,7.637,1.669,16.43-3.081,22.463a3.49,3.49,0,0,1-2.118,1.412c-3.081.321-2.567-5.2-5.006-7.06.257,3.209.513,6.546-.642,9.563s-4.172,5.584-7.381,5.07l-1.091-7.188a20.169,20.169,0,0,1-7.637,4.749,56.546,56.546,0,0,1,7.958-21.565c-8.087,3.915-12.772,12.323-17.008,20.217-2.631,4.942-5.327,10.333-4.428,15.853.385,2.246,1.348,4.364,1.54,6.675s-.642,4.942-2.7,5.776c-1.861.77-3.979-.128-5.327-1.669l-.257-.257c-.128-.193-.257-.321-.385-.513a6.091,6.091,0,0,1-.642-1.091,19.032,19.032,0,0,1-1.284-4.236l-.128-.642c-2.118-9.37-4.043-19.062-2.5-28.56.578-3.466,1.6-6.932,1.476-10.526a20.167,20.167,0,0,0-1.22-5.84c-1.861-5.263-5.455-10.076-7.509-15.339,0-.064-.064-.064-.064-.128-1.091-2.824-1.6-6.29.385-8.536,1.027-1.155,2.567-1.733,3.851-2.567,3.979-2.567,5.776-7.509,6.482-12.259a43.259,43.259,0,0,0,.513-6.418c5.391-1.925,12.644-4.685,13.414-4.236,1.155.578,12.387-.449,12.836-.513a17.1,17.1,0,0,0,7.894-9.114l.385-1.155a33.024,33.024,0,1,1,48.841-29.074Z" transform="translate(-155.882 -74.984)" opacity="0.1"/>
      <path id="Path_50" data-name="Path 50" d="M492.82,227.17c-1.54,5.648-4.942,12.13-1.412,16.751,2.5,3.209,7.83,4.364,8.536,8.343.578,3.209-2.246,5.841-3.4,8.857-2.7,7.188,4.364,14.312,5.455,21.95,1.155,8.279-4.878,15.788-6.033,24.068-1.091,7.638,1.669,16.43-3.081,22.463a3.491,3.491,0,0,1-2.118,1.412c-3.081.321-2.567-5.2-5.006-7.06.257,3.209.513,6.546-.642,9.563s-4.172,5.519-7.381,5.07l-1.091-7.188a21.149,21.149,0,0,1-7.637,4.814,56.546,56.546,0,0,1,7.958-21.565c-8.087,3.915-12.772,12.323-17.008,20.217-2.631,4.942-5.327,10.333-4.428,15.917.385,2.246,1.348,4.364,1.54,6.675s-.642,4.942-2.7,5.776c-1.925.834-4.236-.257-5.519-1.925a14.406,14.406,0,0,1-2.246-5.84c-2.182-9.563-4.236-19.447-2.631-29.138.578-3.53,1.6-7,1.476-10.526-.257-7.766-5.969-14.12-8.793-21.308-1.091-2.824-1.6-6.29.385-8.536,1.027-1.155,2.567-1.733,3.851-2.567,3.979-2.631,5.776-7.509,6.482-12.258a42.541,42.541,0,0,0-.449-15.339c-1.6-7.573-5.327-14.89-4.364-22.592.9-7.509,6.033-13.735,9.563-20.474a48.591,48.591,0,0,0,4.942-28.3c-.578-4.493-1.669-9.755,1.412-13.157,3.658-4.043,10.782-2.5,15.018-6.033,2.054-1.733,3.081-4.364,4.557-6.546a16.02,16.02,0,0,1,17.136-6.1c2.888.834,5.455,2.5,8.343,3.4,4.043,1.284,8.343,1.155,12.579,1.669s8.664,1.925,11.1,5.391c1.284,1.861,1.861,4.108,3.081,6.033,2.567,4.107,7.381,6.1,11.039,9.242a21.382,21.382,0,0,1,6.033,22.848c-2.182,6.1-7.252,11.488-6.8,17.906.193,2.631,1.284,5.263.963,7.894-1.027,7.317-11.617,8.793-15.275,15.147.321-10.526-1.733-21.308-7.445-30.1-4.557-7.06-18.484-19.383-28.111-15.981a6.774,6.774,0,0,0-4.172,4.493c-.963,3.594,1.8,5.134,3.594,7.958A24.629,24.629,0,0,1,492.82,227.17Z" transform="translate(-155.99 -54.463)" fill="#3f3d56"/>
      <g id="Group_1" data-name="Group 1" transform="translate(279.679 122.389)" opacity="0.2">
        <path id="Path_51" data-name="Path 51" d="M451.574,309.645a45.857,45.857,0,0,0-.9-9.82c-1.348-6.418-4.236-12.708-4.493-19.126-.385,7.188,2.952,14.12,4.493,21.179A44.992,44.992,0,0,1,451.574,309.645Z" transform="translate(-439.412 -222.938)"/>
        <path id="Path_52" data-name="Path 52" d="M486.11,405.217c.578-1.027,1.155-2.054,1.733-3.017-8.087,3.915-12.772,12.323-17.008,20.217-2.439,4.557-4.942,9.563-4.557,14.633.321-4.364,2.439-8.664,4.557-12.579C474.75,417.218,479.114,409.452,486.11,405.217Z" transform="translate(-446.607 -266.458)"/>
        <path id="Path_53" data-name="Path 53" d="M461.267,457.881a4.88,4.88,0,0,1-2.7,4.043c-1.925.77-4.236-.257-5.52-1.925a14.406,14.406,0,0,1-2.246-5.84c-1.54-6.867-3.081-13.863-3.209-20.859-.128,7.638,1.476,15.4,3.209,22.912a14.407,14.407,0,0,0,2.246,5.84c1.284,1.669,3.594,2.7,5.52,1.925,2.118-.834,2.952-3.53,2.76-5.776A.579.579,0,0,1,461.267,457.881Z" transform="translate(-439.927 -277.598)"/>
        <path id="Path_54" data-name="Path 54" d="M523.833,258.4a20.912,20.912,0,0,1-.77,4.878c-1.091,4.172-3.273,8.857-2.888,12.836.321-3.466,1.99-7.316,2.888-10.782A25.546,25.546,0,0,0,523.833,258.4Z" transform="translate(-465.911 -214.95)"/>
        <path id="Path_55" data-name="Path 55" d="M468.814,203.536a46.593,46.593,0,0,0-.385-7.317c-.257-1.8-.513-3.658-.642-5.52a43.829,43.829,0,0,0,.642,7.637A34.139,34.139,0,0,1,468.814,203.536Z" transform="translate(-447.154 -190.7)"/>
        <path id="Path_56" data-name="Path 56" d="M533.558,308.293a.236.236,0,0,0-.064-.192c-.514,2.375-2.439,4.557-3.337,7a10.594,10.594,0,0,0-.578,4.493,7.957,7.957,0,0,1,.578-2.439C531.311,314.133,534.136,311.437,533.558,308.293Z" transform="translate(-469.282 -232.752)"/>
        <path id="Path_57" data-name="Path 57" d="M445.374,390.138c-.257-7.766-5.969-14.12-8.793-21.308a13.588,13.588,0,0,1-.9-3.53,11.789,11.789,0,0,0,.9,5.584c2.76,7.124,8.279,13.35,8.729,20.923A13.941,13.941,0,0,0,445.374,390.138Z" transform="translate(-435.651 -253.241)"/>
        <path id="Path_58" data-name="Path 58" d="M546.771,232.956c-4.621-7.06-18.484-19.382-28.111-15.981a6.775,6.775,0,0,0-4.172,4.493,4.486,4.486,0,0,0-.064,2.439,2.781,2.781,0,0,1,.064-.321,6.925,6.925,0,0,1,4.172-4.493c9.563-3.466,23.49,8.921,28.111,15.981,5.2,7.958,7.316,17.585,7.445,27.148C554.408,251.889,552.354,241.492,546.771,232.956Z" transform="translate(-463.818 -199.903)"/>
        <path id="Path_59" data-name="Path 59" d="M591.775,265.364c-1.027,7.317-11.552,8.729-15.275,15.147v2.118c3.658-6.418,14.248-7.894,15.275-15.147a12.383,12.383,0,0,0,0-2.182C591.839,265.3,591.839,265.364,591.775,265.364Z" transform="translate(-486.102 -217.421)"/>
        <path id="Path_60" data-name="Path 60" d="M605.687,222.076c-2.182,6.1-7.252,11.488-6.8,17.906v.257c.449-5.712,4.814-10.59,6.739-16.109a20.381,20.381,0,0,0,1.155-7.83A20.394,20.394,0,0,1,605.687,222.076Z" transform="translate(-494.11 -199.87)"/>
        <path id="Path_61" data-name="Path 61" d="M520.724,419.969a3.491,3.491,0,0,1-2.118,1.412c-3.081.321-2.567-5.2-5.006-7.06.064.706.128,1.476.193,2.182,2.311,1.99,1.861,7.252,4.878,6.932a3.682,3.682,0,0,0,2.118-1.412c2.76-3.466,3.016-7.766,2.952-12.323C523.612,413.487,523.035,417.081,520.724,419.969Z" transform="translate(-463.572 -269.145)"/>
        <path id="Path_62" data-name="Path 62" d="M503.609,429.257c-1.155,3.016-4.172,5.584-7.381,5.07-.385-2.375-.706-4.814-1.091-7.188a20.585,20.585,0,0,1-7.252,4.621c-.128.706-.257,1.476-.385,2.182a20.321,20.321,0,0,0,7.637-4.813c.385,2.439.706,4.813,1.091,7.188,3.209.513,6.226-2.054,7.381-5.07a16.166,16.166,0,0,0,.834-6.546A13.348,13.348,0,0,1,503.609,429.257Z" transform="translate(-454.223 -274.518)"/>
        <path id="Path_63" data-name="Path 63" d="M529.444,379.059a35.6,35.6,0,0,0-.257,5.84,37.5,37.5,0,0,1,.257-3.787c1.155-7.894,6.675-15.082,6.161-22.912C535.156,365.26,530.471,371.87,529.444,379.059Z" transform="translate(-469.147 -250.698)"/>
      </g>
      <path id="Path_64" data-name="Path 64" d="M826.665,561.2s-4.364,20.281,15.018,22.72l1.219-2.246C842.9,581.609,827.885,567.49,826.665,561.2Z" transform="translate(-295.882 -201.022)" fill="#38d39f"/>
      <path id="Path_65" data-name="Path 65" d="M852.514,575.786l-4.493.963-.449.128S835.506,567.121,835.7,545.3a52.013,52.013,0,0,0,5.776,9.114C846.16,560.7,851.616,569.111,852.514,575.786Z" transform="translate(-299.267 -195.327)" fill="#38d39f"/>
      <path id="Path_66" data-name="Path 66" d="M858.3,573.713a2.948,2.948,0,0,1-2.439.321c-11.553-2.7-7.7-40.434-7.7-40.434.642.321,1.348,5.134,3.979,11.3C856.821,555.806,861.955,570.953,858.3,573.713Z" transform="translate(-303.509 -191.136)" fill="#38d39f"/>
      <path id="Path_67" data-name="Path 67" d="M893.232,561.2s.77,20.281-18.612,22.72l-1.219-2.246C873.4,581.609,892.012,567.49,893.232,561.2Z" transform="translate(-312.772 -201.022)" fill="#38d39f"/>
      <path id="Path_68" data-name="Path 68" d="M884.209,545.3c.128,21.821-15.468,31.577-15.468,31.577l-.449-.128-4.493-.963c.9-6.675,6.354-15.146,11.1-21.436A47.829,47.829,0,0,1,884.209,545.3Z" transform="translate(-309.334 -195.327)" fill="#38d39f"/>
      <path id="Path_69" data-name="Path 69" d="M866.676,571.723a7.113,7.113,0,0,1-2.568,1.99h0a5.661,5.661,0,0,1-.962.321c-2.824.642-3.851-1.412-3.658-4.878.257-6.225,4.172-17.008,7.7-25.03,2.5-5.84,6.675-10.2,7.253-10.526C874.377,533.6,874.249,562.995,866.676,571.723Z" transform="translate(-307.781 -191.136)" fill="#38d39f"/>
      <path id="Path_70" data-name="Path 70" d="M862.065,512.9s-12.964,45.889-1.8,52.756S864.953,517.008,862.065,512.9Z" transform="translate(-306.443 -183.722)" fill="#38d39f"/>
      <path id="Path_71" data-name="Path 71" d="M826.665,561.2s-4.364,20.281,15.018,22.72l1.219-2.246C842.9,581.609,827.885,567.49,826.665,561.2Z" transform="translate(-295.882 -201.022)" opacity="0.1"/>
      <path id="Path_72" data-name="Path 72" d="M852.514,575.786l-4.493.963-.449.128S835.506,567.121,835.7,545.3a52.013,52.013,0,0,0,5.776,9.114C846.16,560.7,851.616,569.111,852.514,575.786Z" transform="translate(-299.267 -195.327)" opacity="0.1"/>
      <path id="Path_73" data-name="Path 73" d="M858.3,573.713a2.948,2.948,0,0,1-2.439.321c-11.553-2.7-7.7-40.434-7.7-40.434.642.321,1.348,5.134,3.979,11.3C856.821,555.806,861.955,570.953,858.3,573.713Z" transform="translate(-303.509 -191.136)" opacity="0.1"/>
      <path id="Path_74" data-name="Path 74" d="M893.232,561.2s.77,20.281-18.612,22.72l-1.219-2.246C873.4,581.609,892.012,567.49,893.232,561.2Z" transform="translate(-312.772 -201.022)" opacity="0.1"/>
      <path id="Path_75" data-name="Path 75" d="M884.209,545.3c.128,21.821-15.468,31.577-15.468,31.577l-.449-.128-4.493-.963c.9-6.675,6.354-15.146,11.1-21.436A47.829,47.829,0,0,1,884.209,545.3Z" transform="translate(-309.334 -195.327)" opacity="0.1"/>
      <path id="Path_76" data-name="Path 76" d="M866.676,571.723a7.113,7.113,0,0,1-2.568,1.99h0a5.661,5.661,0,0,1-.962.321c-2.824.642-3.851-1.412-3.658-4.878.257-6.225,4.172-17.008,7.7-25.03,2.5-5.84,6.675-10.2,7.253-10.526C874.377,533.6,874.249,562.995,866.676,571.723Z" transform="translate(-307.781 -191.136)" opacity="0.1"/>
      <path id="Path_77" data-name="Path 77" d="M862.065,512.9s-12.964,45.889-1.8,52.756S864.953,517.008,862.065,512.9Z" transform="translate(-306.443 -183.722)" opacity="0.1"/>
      <path id="Path_78" data-name="Path 78" d="M826.837,561.2s-2.567,20.281,16.815,22.72l1.219-2.246C844.872,581.609,828.057,567.49,826.837,561.2Z" transform="translate(-296.053 -201.022)" fill="#38d39f"/>
      <path id="Path_79" data-name="Path 79" d="M854.311,575.786l-4.493.963-.449.128s-13.863-9.755-13.67-31.577c0,0,3.53,3.787,7.573,9.114C847.957,560.7,853.413,569.111,854.311,575.786Z" transform="translate(-299.267 -195.327)" fill="#38d39f"/>
      <path id="Path_80" data-name="Path 80" d="M858.5,580.836l-4.493.963c-4.3-3.722-5.969-13.542-6.611-22.4C852.149,565.754,857.6,574.162,858.5,580.836Z" transform="translate(-303.459 -200.378)" opacity="0.1"/>
      <path id="Path_81" data-name="Path 81" d="M860.359,573.713a2.948,2.948,0,0,1-2.439.321c-11.553-2.7-9.5-40.434-9.5-40.434.642.321,3.145,5.134,5.776,11.3C858.947,555.806,864.081,570.953,860.359,573.713Z" transform="translate(-303.774 -191.136)" fill="#38d39f"/>
      <path id="Path_82" data-name="Path 82" d="M894.235,561.2s2.567,20.281-16.815,22.72l-1.219-2.246C876.2,581.609,893.015,567.49,894.235,561.2Z" transform="translate(-313.775 -201.022)" fill="#38d39f"/>
      <path id="Path_83" data-name="Path 83" d="M885.212,545.3c.129,21.821-13.67,31.577-13.67,31.577l-.449-.128-4.493-.963c.9-6.675,6.354-15.146,11.1-21.436C881.682,549.087,885.212,545.3,885.212,545.3Z" transform="translate(-310.337 -195.327)" fill="#38d39f"/>
      <path id="Path_84" data-name="Path 84" d="M877.6,559.4c-.578,8.215-2.118,17.329-5.776,21.565a5.133,5.133,0,0,1-.834.834l-4.493-.963C867.4,574.162,872.854,565.754,877.6,559.4Z" transform="translate(-310.301 -200.378)" opacity="0.1"/>
      <path id="Path_85" data-name="Path 85" d="M869.476,571.723a7.114,7.114,0,0,1-2.567,1.99h0a5.655,5.655,0,0,1-.963.321c-2.824.642-3.851-1.412-3.658-4.878.257-6.225,4.172-17.008,7.7-25.03,2.5-5.84,4.878-10.2,5.455-10.526C875.38,533.6,877.049,562.995,869.476,571.723Z" transform="translate(-308.784 -191.136)" fill="#38d39f"/>
      <path id="Path_86" data-name="Path 86" d="M863.334,580.017a3,3,0,0,1-1.8-.577c-5.456-3.4-5.584-16.11-4.236-28.24C861.922,562.111,867.057,577.257,863.334,580.017Z" transform="translate(-306.75 -197.44)" opacity="0.1"/>
      <path id="Path_87" data-name="Path 87" d="M869.488,577.6c-.642,1.348-1.476,2.054-2.567,1.99h0a3.215,3.215,0,0,1-1.54-.578,8.215,8.215,0,0,1-3.08-3.979c.257-6.226,4.172-17.008,7.7-25.03C871.221,561.167,871.606,573.041,869.488,577.6Z" transform="translate(-308.797 -197.011)" opacity="0.1"/>
      <path id="Path_88" data-name="Path 88" d="M862.846,512.9s-11.1,45.889,0,52.756S865.734,517.008,862.846,512.9Z" transform="translate(-307.224 -183.722)" fill="#38d39f"/>
      <path id="Path_89" data-name="Path 89" d="M873.039,591.7H826.7v7.637h7.06l.192.9,2.824,14.89h26.956l2.824-14.89.193-.9h6.29Z" transform="translate(-296.045 -211.947)" fill="#d4dfec"/>
      <path id="Path_90" data-name="Path 90" d="M873.039,591.7H826.7v7.637h7.06l.192.9,2.824,14.89h26.892l2.888-14.89.128-.9h6.354Z" transform="translate(-296.045 -211.947)" opacity="0.1"/>
      <path id="Path_91" data-name="Path 91" d="M873.744,598.7l-.77,4.043-2.824,14.89H843.194l-2.824-14.89-.77-4.043Z" transform="translate(-300.665 -214.455)" fill="#d4dfec"/>
      <path id="Path_92" data-name="Path 92" d="M873.744,598.7l-.77,4.043h-32.6l-.77-4.043Z" transform="translate(-300.665 -214.455)" opacity="0.1"/>
      <rect id="Rectangle_38" data-name="Rectangle 38" width="46.338" height="7.702" transform="translate(532.453 379.753)" fill="#d4dfec"/>
      <path id="Path_93" data-name="Path 93" d="M261.784,512.3a12.939,12.939,0,0,0-1.54,2.952,4.455,4.455,0,0,1-.321.834l-.578-.193a7.689,7.689,0,0,0-2.439-.193,5.871,5.871,0,0,1,.064-1.027c.128-3.658-.321-8.664-3.787-6.546-3.337,2.054-.963,5.52,1.219,7.7a4.14,4.14,0,0,0,.578.513c-1.925,1.412-2.31,4.621-2.631,8.023s-3.209,7.06-5.07,9.178a4.147,4.147,0,0,0-.513.578,6.867,6.867,0,0,0-5.52-1.412l-.257-.963c-1.54-5.584-4.749-15.211-8.857-17.329l.513-.706c1.733-2.246,3.658-5.648.834-6.482s-3.145,2.888-2.952,5.776c0,.321.064.706.064,1.027a4.265,4.265,0,0,0-3.016,1.476,3.216,3.216,0,0,0-.449-.513c-2.311-2.76-6.611-7.124-7.958-3.851-1.219,3.081,2.567,7.06,5.2,9.435l.193.128c-1.8,7.252,5.969,13.157,10.2,15.724a5.873,5.873,0,0,0,.513.321c-5.776,6.8-9.37,19.575-9.37,19.575l16.238,2.952s10.718-9.242,9.37-17.971h.128c10.718-2.118,13.157-13.606,11.488-20.409l.193-.064a12.319,12.319,0,0,0,4.942-3.722C271.155,512.946,264.865,508.2,261.784,512.3Z" transform="translate(-78.345 -181.649)" fill="#38d39f"/>
      <path id="Path_94" data-name="Path 94" d="M261.784,512.3a12.939,12.939,0,0,0-1.54,2.952,4.455,4.455,0,0,1-.321.834l-.578-.193a7.689,7.689,0,0,0-2.439-.193,5.871,5.871,0,0,1,.064-1.027c.128-3.658-.321-8.664-3.787-6.546-3.337,2.054-.963,5.52,1.219,7.7a4.14,4.14,0,0,0,.578.513c-1.925,1.412-2.31,4.621-2.631,8.023s-3.209,7.06-5.07,9.178a4.147,4.147,0,0,0-.513.578,6.867,6.867,0,0,0-5.52-1.412l-.257-.963c-1.54-5.584-4.749-15.211-8.857-17.329l.513-.706c1.733-2.246,3.658-5.648.834-6.482s-3.145,2.888-2.952,5.776c0,.321.064.706.064,1.027a4.265,4.265,0,0,0-3.016,1.476,3.216,3.216,0,0,0-.449-.513c-2.311-2.76-6.611-7.124-7.958-3.851-1.219,3.081,2.567,7.06,5.2,9.435l.193.128c-1.8,7.252,5.969,13.157,10.2,15.724a5.873,5.873,0,0,0,.513.321c-5.776,6.8-9.37,19.575-9.37,19.575l16.238,2.952s10.718-9.242,9.37-17.971h.128c10.718-2.118,13.157-13.606,11.488-20.409l.193-.064a12.319,12.319,0,0,0,4.942-3.722C271.155,512.946,264.865,508.2,261.784,512.3Z" transform="translate(-78.345 -181.649)" opacity="0.1"/>
      <path id="Path_95" data-name="Path 95" d="M230.067,518.574l-1.925,5.52s-1.027-.77-2.375-1.925c-2.631-2.311-6.418-6.354-5.2-9.435,1.284-3.337,5.584,1.091,7.958,3.851C229.426,517.739,230.067,518.574,230.067,518.574Z" transform="translate(-78.846 -183.234)" fill="#38d39f"/>
      <path id="Path_96" data-name="Path 96" d="M240.468,513.917c-.578.77-1.219,1.476-1.861,2.182a22.089,22.089,0,0,1-.321-2.888c-.128-2.824.128-6.611,2.952-5.776S242.2,511.606,240.468,513.917Z" transform="translate(-85.268 -181.722)" fill="#38d39f"/>
      <path id="Path_97" data-name="Path 97" d="M276.65,514.967c-.064,1.8-.257,3.273-.257,3.273a24.392,24.392,0,0,1-2.375-2.118c-2.118-2.246-4.493-5.648-1.219-7.7C276.329,506.3,276.778,511.373,276.65,514.967Z" transform="translate(-97.061 -181.938)" fill="#38d39f"/>
      <path id="Path_98" data-name="Path 98" d="M292.157,519.055a11.765,11.765,0,0,1-4.942,3.722,7.318,7.318,0,0,1-1.669.578l-2.246-3.145a23.4,23.4,0,0,1,.9-3.017,12.938,12.938,0,0,1,1.54-2.952C288.884,510.2,295.173,514.948,292.157,519.055Z" transform="translate(-101.401 -183.651)" fill="#38d39f"/>
      <path id="Path_99" data-name="Path 99" d="M231.46,519.4a23.293,23.293,0,0,1,1.54,1.925l-1.925,5.519s-1.027-.77-2.375-1.925a11.124,11.124,0,0,1,2.118-4.878A3.041,3.041,0,0,0,231.46,519.4Z" transform="translate(-81.843 -186.05)" opacity="0.1"/>
      <path id="Path_100" data-name="Path 100" d="M240.482,517.2c-.578.77-1.219,1.476-1.861,2.182a22.094,22.094,0,0,1-.321-2.888A3.087,3.087,0,0,1,240.482,517.2Z" transform="translate(-85.282 -185.006)" opacity="0.1"/>
      <path id="Path_101" data-name="Path 101" d="M246.357,539.687l-4.685,2.054c-.834-.449-1.669-.9-2.5-1.412-4.942-3.016-14.89-10.718-8.215-19.7s12.259,7.188,14.441,15.082C245.972,538.082,246.357,539.687,246.357,539.687Z" transform="translate(-81.851 -185.542)" fill="#38d39f"/>
      <path id="Path_102" data-name="Path 102" d="M275.7,520.055a3.666,3.666,0,0,1,2.567-1.155c-.064,1.8-.257,3.273-.257,3.273A23.732,23.732,0,0,1,275.7,520.055Z" transform="translate(-98.678 -185.871)" opacity="0.1"/>
      <path id="Path_103" data-name="Path 103" d="M287.215,525.384a7.335,7.335,0,0,1-1.669.578l-2.246-3.145a23.389,23.389,0,0,1,.9-3.016C285.675,520.634,286.766,522.752,287.215,525.384Z" transform="translate(-101.401 -186.193)" opacity="0.1"/>
      <path id="Path_104" data-name="Path 104" d="M265.929,546.076a3.223,3.223,0,0,1-.77.128c-15.788,2.375-5.2-6.1-5.2-6.1s.706-.642,1.669-1.733c1.925-2.118,4.749-5.776,5.07-9.178.513-5.134,1.091-9.948,7.124-8.536C279.728,522.073,280.883,543.06,265.929,546.076Z" transform="translate(-91.795 -186.412)" fill="#38d39f"/>
      <rect id="Rectangle_39" data-name="Rectangle 39" width="30.165" height="7.894" transform="translate(143.712 398.943)" fill="#d4dfec"/>
      <rect id="Rectangle_40" data-name="Rectangle 40" width="39.407" height="27.662" transform="translate(138.898 373.142)" fill="#d4dfec"/>
      <rect id="Rectangle_41" data-name="Rectangle 41" width="30.165" height="7.894" transform="translate(143.712 398.943)" opacity="0.1"/>
      <rect id="Rectangle_42" data-name="Rectangle 42" width="39.407" height="27.662" transform="translate(138.898 373.142)" opacity="0.1"/>
      <rect id="Rectangle_43" data-name="Rectangle 43" width="30.165" height="7.894" transform="translate(145.637 398.943)" fill="#d4dfec"/>
      <path id="Path_105" data-name="Path 105" d="M251.161,545.6c.642,2.375,1.027,3.979,1.027,3.979l-4.685,2.054c-.834-.449-1.669-.9-2.5-1.412C246.8,547.911,248.915,546.114,251.161,545.6Z" transform="translate(-87.682 -195.434)" opacity="0.1"/>
      <path id="Path_106" data-name="Path 106" d="M265.929,556.1a3.223,3.223,0,0,1-.77.128c-15.788,2.375-5.2-6.1-5.2-6.1s.706-.642,1.669-1.733A10.406,10.406,0,0,1,265.929,556.1Z" transform="translate(-91.795 -196.437)" opacity="0.1"/>
      <path id="Path_107" data-name="Path 107" d="M231.2,570.643s8.857-31.641,21.244-21.885-5.07,24.774-5.07,24.774Z" transform="translate(-82.739 -195.897)" fill="#38d39f"/>
      <ellipse id="Ellipse_15" data-name="Ellipse 15" cx="0.963" cy="0.963" rx="0.963" ry="0.963" transform="translate(151.991 339.062)" opacity="0.1"/>
      <ellipse id="Ellipse_16" data-name="Ellipse 16" cx="0.963" cy="0.963" rx="0.963" ry="0.963" transform="translate(151.863 343.683)" opacity="0.1"/>
      <ellipse id="Ellipse_17" data-name="Ellipse 17" cx="0.963" cy="0.963" rx="0.963" ry="0.963" transform="translate(180.616 339.961)" opacity="0.1"/>
      <ellipse id="Ellipse_18" data-name="Ellipse 18" cx="0.963" cy="0.963" rx="0.963" ry="0.963" transform="translate(157.511 363.708)" opacity="0.1"/>
      <ellipse id="Ellipse_19" data-name="Ellipse 19" cx="0.963" cy="0.963" rx="0.963" ry="0.963" transform="translate(178.562 347.663)" opacity="0.1"/>
      <ellipse id="Ellipse_20" data-name="Ellipse 20" cx="0.963" cy="0.963" rx="0.963" ry="0.963" transform="translate(168.357 357.931)" opacity="0.1"/>
      <ellipse id="Ellipse_21" data-name="Ellipse 21" cx="0.963" cy="0.963" rx="0.963" ry="0.963" transform="translate(155.393 341.052)" opacity="0.1"/>
      <ellipse id="Ellipse_22" data-name="Ellipse 22" cx="0.963" cy="0.963" rx="0.963" ry="0.963" transform="translate(177.92 342.977)" opacity="0.1"/>
      <ellipse id="Ellipse_23" data-name="Ellipse 23" cx="0.963" cy="0.963" rx="0.963" ry="0.963" transform="translate(174.519 350.615)" opacity="0.1"/>
      <ellipse id="Ellipse_24" data-name="Ellipse 24" cx="0.963" cy="0.963" rx="0.963" ry="0.963" transform="translate(164.051 364.791) rotate(-85.935)" opacity="0.1"/>
      <ellipse id="Ellipse_25" data-name="Ellipse 25" cx="0.963" cy="0.963" rx="0.963" ry="0.963" transform="translate(161.939 358.06)" opacity="0.1"/>
      <ellipse id="Ellipse_26" data-name="Ellipse 26" cx="0.963" cy="0.963" rx="0.963" ry="0.963" transform="translate(156.869 347.085)" opacity="0.1"/>
      <rect id="Rectangle_44" data-name="Rectangle 44" width="30.165" height="2.888" transform="translate(145.637 398.943)" opacity="0.1"/>
      <rect id="Rectangle_45" data-name="Rectangle 45" width="39.407" height="27.662" transform="translate(140.888 373.142)" fill="#d4dfec"/>
      <ellipse id="Ellipse_27" data-name="Ellipse 27" cx="0.963" cy="0.963" rx="0.963" ry="0.963" transform="translate(165.469 367.43)" opacity="0.1"/>
      <ellipse id="Ellipse_28" data-name="Ellipse 28" cx="0.963" cy="0.963" rx="0.963" ry="0.963" transform="translate(159.5 368.649)" opacity="0.1"/>
    </g>
    <circle id="Ellipse_30" data-name="Ellipse 30" cx="3.5" cy="3.5" r="3.5" transform="translate(651.646 517.258)" fill="#fff"/>
    <circle id="Ellipse_31" data-name="Ellipse 31" cx="0.5" cy="0.5" r="0.5" transform="translate(727.646 573.258)" fill="#fff"/>
    <circle id="Ellipse_32" data-name="Ellipse 32" cx="0.5" cy="0.5" r="0.5" transform="translate(727.646 573.258)" fill="#fff"/>
    <circle id="Ellipse_33" data-name="Ellipse 33" cx="0.5" cy="0.5" r="0.5" transform="translate(607.646 600.258)" fill="#fff"/>
    <circle id="Ellipse_34" data-name="Ellipse 34" cx="1" cy="1" r="1" transform="translate(514.646 559.258)" fill="#fff"/>
    <ellipse id="Ellipse_35" data-name="Ellipse 35" cx="1" cy="0.5" rx="1" ry="0.5" transform="translate(914.646 506.258)" fill="#fff"/>
    <ellipse id="Ellipse_36" data-name="Ellipse 36" cx="0.5" cy="1" rx="0.5" ry="1" transform="translate(1007.646 627.258)" fill="#fff"/>
    <ellipse id="Ellipse_37" data-name="Ellipse 37" cx="0.5" cy="1" rx="0.5" ry="1" transform="translate(835.646 507.258)" fill="#fff"/>
    <ellipse id="Ellipse_39" data-name="Ellipse 39" cx="1" cy="0.5" rx="1" ry="0.5" transform="translate(422.646 602.258)" fill="#fff"/>
    <circle id="Ellipse_40" data-name="Ellipse 40" cx="1" cy="1" r="1" transform="translate(116.646 841.258)" fill="#fff"/>
    <circle id="Ellipse_41" data-name="Ellipse 41" cx="0.5" cy="0.5" r="0.5" transform="translate(529.646 643.258)" fill="#fff"/>
    <circle id="Ellipse_42" data-name="Ellipse 42" cx="0.5" cy="0.5" r="0.5" transform="translate(954.646 788.258)" fill="#fff"/>
    <circle id="Ellipse_43" data-name="Ellipse 43" cx="0.5" cy="0.5" r="0.5" transform="translate(994.646 456.258)" fill="#fff"/>
    <circle id="Ellipse_44" data-name="Ellipse 44" cx="3.5" cy="3.5" r="3.5" transform="translate(999.646 400.258)" fill="#fff"/>
    <ellipse id="Ellipse_45" data-name="Ellipse 45" cx="2" cy="2.5" rx="2" ry="2.5" transform="translate(866.646 639.258)" fill="#fff"/>
    <circle id="Ellipse_46" data-name="Ellipse 46" cx="2" cy="2" r="2" transform="translate(950.646 865.258)" fill="#fff"/>
    <ellipse id="Ellipse_38" data-name="Ellipse 38" cx="0.5" cy="1" rx="0.5" ry="1" transform="translate(715.646 388.258)" fill="#fff"/>
  </g>
</svg>
