<svg id="Group_8" data-name="Group 8" xmlns="http://www.w3.org/2000/svg" xmlns:xlink="http://www.w3.org/1999/xlink" width="570.848" height="424.267" viewBox="0 0 570.848 424.267">
  <defs>
    <linearGradient id="linear-gradient" x1="0.8" y1="-0.357" x2="0.8" y2="0.644" gradientUnits="objectBoundingBox">
      <stop offset="0" stop-color="gray" stop-opacity="0.251"/>
      <stop offset="0.54" stop-color="gray" stop-opacity="0.122"/>
      <stop offset="1" stop-color="gray" stop-opacity="0.102"/>
    </linearGradient>
  </defs>
  <path id="Path_201" data-name="Path 201" d="M331.712,69.223c-36.642-.961-71.475-9.726-104.78-19.339S160.716,29.641,124.979,24.552c-22.958-3.28-49.252-3.732-67.742,5.428-17.812,8.765-23.58,23.976-26.69,38.112-2.318,10.631-3.676,21.77,2.658,31.722,4.411,6.9,12.271,12.723,17.756,19.282C69.9,142.111,56.5,170.441,36.031,192.89c-9.613,10.518-20.809,20.583-28.217,31.779S-3.042,248.7,3.461,260.18c6.446,11.309,21.77,19.848,38.395,25.842,33.758,12.157,73.51,15.663,112.3,17.642,85.837,4.354,172.183,2.488,258.247.566,31.836-.679,63.841-1.414,95.167-5.089,17.416-2.036,35.4-5.259,48.008-13.062,16.059-9.9,20.017-26.633,9.274-39.017-18.038-20.809-67.856-25.955-80.465-48.291-6.955-12.27.17-25.955,10.291-37.377,21.6-24.428,57.847-45.916,59.713-73.849,1.3-19.169-16.116-38.395-43.032-47.5-28.217-9.5-67.4-8.312-88.212,7.408C401.716,63.738,364,70.015,331.712,69.223Z" transform="translate(-0.026 -9.737)" fill="#38d39f" opacity="0.1"/>
  <g id="Group_7" data-name="Group 7" transform="translate(409.946)" opacity="0.8">
    <path id="Path_202" data-name="Path 202" d="M845.9,101.048s-6.39-2.6-26.69,6.729-22.788,8.143-28.047,6.729-8.2-1.753-13.8-9.556c0,0-3.958-21.544-7.8-24.88s-20.244,1.923-20.244,1.923-19.565,4.524-23.353-21.657c0,0,2.658-19.735-.961-25.785,0,0,7.294,3.167,19.282-1.923s21.6,5.485,21.6,5.485,3.053,7.86,2.714,12.5,1.583,6.446,7.351,4.184c0,0,2.827-4.015-1.187-10.631s-6.842-11.535-5.711-16.681,4.3-12.271,14.589-15.833S807.9,7.408,814.569,4.637,822.995,0,822.995,0s-4.128,4.128,5.6,21.657S832.1,46.764,832.1,46.764s-5.146,12.327-27.99,11.309c0,0-22,.792-10.009,10.122,0,0,7.69-1.583,19.169-5.2S833,74.415,835.1,84.876C837.131,95.337,845.9,101.048,845.9,101.048Z" transform="translate(-725)" fill="#38d39f"/>
    <path id="Path_203" data-name="Path 203" d="M873.16,23.357l.113-.057c.9,3.336-8.934,16.794-17.36,27.425l-.113-.057C867.731,35.684,873.895,25.958,873.16,23.357Z" transform="translate(-781.838 -10.125)" fill="#444053"/>
    <path id="Path_204" data-name="Path 204" d="M837.863,71.4l.056.113c-6.729,8.538-15.154,18.717-21.884,26.237-.622.735-1.3,1.47-1.866,2.262l-.17-.17c.622-.792,1.244-1.527,1.923-2.262C822.6,90.06,831.19,79.939,837.863,71.4Z" transform="translate(-763.674 -31.026)" fill="#444053"/>
    <path id="Path_205" data-name="Path 205" d="M802.207,121.4l.113.226c-12.271,15.324-13.119,39.13-13.119,39.356l-2.6-2.94C786.657,157.759,789.823,136.837,802.207,121.4Z" transform="translate(-751.768 -52.753)" fill="#444053"/>
    <path id="Path_206" data-name="Path 206" d="M840.163,125.413s-14.476-7.521-25.785-4.806-36.7-9.556-36.7-9.556-10.8-4.411-12.949-9.387c0,0-7.408-7.86-7.8-11.875S749.293,75.539,744.6,75.2" transform="translate(-733.517 -32.677)" fill="none" stroke="#444053" stroke-miterlimit="10" stroke-width="1"/>
    <path id="Path_207" data-name="Path 207" d="M904.894,168.631s-7.295-4.92-6.446-10.631" transform="translate(-800.339 -68.657)" fill="none" stroke="#444053" stroke-miterlimit="10" stroke-width="1"/>
    <path id="Path_208" data-name="Path 208" d="M881.279,173.76s-10.461-3.789-11.479-18.66" transform="translate(-787.921 -67.397)" fill="none" stroke="#444053" stroke-miterlimit="10" stroke-width="1"/>
    <path id="Path_209" data-name="Path 209" d="M854.663,177.432a23.4,23.4,0,0,1-6.672-22.732" transform="translate(-778.156 -67.223)" fill="none" stroke="#444053" stroke-miterlimit="10" stroke-width="1"/>
    <path id="Path_210" data-name="Path 210" d="M822.063,170.058s-6.616-13.91-.735-22.958" transform="translate(-765.8 -63.92)" fill="none" stroke="#444053" stroke-miterlimit="10" stroke-width="1"/>
    <path id="Path_211" data-name="Path 211" d="M909.169,147.8s-7.521,2.375-5.937,6.39" transform="translate(-802.353 -64.225)" fill="none" stroke="#444053" stroke-miterlimit="10" stroke-width="1"/>
    <path id="Path_212" data-name="Path 212" d="M889.848,123.6s-10.122,3.223-10.348,17.473" transform="translate(-792.136 -53.709)" fill="none" stroke="#444053" stroke-miterlimit="10" stroke-width="1"/>
    <path id="Path_213" data-name="Path 213" d="M866.311,117.7s-9.217,11.366-8.539,21.657" transform="translate(-782.679 -51.145)" fill="none" stroke="#444053" stroke-miterlimit="10" stroke-width="1"/>
    <path id="Path_214" data-name="Path 214" d="M838.192,125.6s-9.16,8.708-7.973,13.571" transform="translate(-770.675 -54.578)" fill="none" stroke="#444053" stroke-miterlimit="10" stroke-width="1"/>
    <path id="Path_215" data-name="Path 215" d="M827.183,119.2s-8.539,1.527-9.783-1.3" transform="translate(-765.151 -51.232)" fill="none" stroke="#444053" stroke-miterlimit="10" stroke-width="1"/>
    <path id="Path_216" data-name="Path 216" d="M815,101.9s4.354,5.711,5.428,4.467" transform="translate(-764.109 -44.279)" fill="none" stroke="#444053" stroke-miterlimit="10" stroke-width="1"/>
    <path id="Path_217" data-name="Path 217" d="M870.464,91.72S848.863,93.3,844,86.8" transform="translate(-776.71 -37.718)" fill="none" stroke="#444053" stroke-miterlimit="10" stroke-width="1"/>
    <path id="Path_218" data-name="Path 218" d="M807,50.8s10.122,21.714,17.473,24.485" transform="translate(-760.632 -22.074)" fill="none" stroke="#444053" stroke-miterlimit="10" stroke-width="1"/>
    <path id="Path_219" data-name="Path 219" d="M825.8,32.5s6.22,19.961,13.911,26.237" transform="translate(-768.801 -14.122)" fill="none" stroke="#444053" stroke-miterlimit="10" stroke-width="1"/>
    <path id="Path_220" data-name="Path 220" d="M886.738,66.257s-16.4,7.012-26.237-.057" transform="translate(-783.88 -28.766)" fill="none" stroke="#444053" stroke-miterlimit="10" stroke-width="0.75"/>
    <path id="Path_221" data-name="Path 221" d="M851.6,25s3.732,14.7,8.821,18.264" transform="translate(-780.012 -10.863)" fill="none" stroke="#444053" stroke-miterlimit="10" stroke-width="0.75"/>
    <path id="Path_222" data-name="Path 222" d="M892.766,37.2s-9.217,3.506-12.666.792" transform="translate(-792.397 -16.165)" fill="none" stroke="#444053" stroke-miterlimit="10" stroke-width="0.75"/>
    <path id="Path_223" data-name="Path 223" d="M798.306,110.4s0,12.836-3.506,13.741" transform="translate(-755.331 -47.973)" fill="none" stroke="#444053" stroke-miterlimit="10" stroke-width="1"/>
    <path id="Path_224" data-name="Path 224" d="M750.6,135.137s13.854,1.187,20.244-5.937" transform="translate(-736.124 -56.142)" fill="none" stroke="#444053" stroke-miterlimit="10" stroke-width="1"/>
    <path id="Path_225" data-name="Path 225" d="M785.01,83.6s-3.336,13.006-12.61,16.512" transform="translate(-745.597 -36.327)" fill="none" stroke="#444053" stroke-miterlimit="10" stroke-width="1"/>
    <path id="Path_226" data-name="Path 226" d="M735.9,111.459s9.783,3.393,18.265-5.259" transform="translate(-729.737 -46.148)" fill="none" stroke="#444053" stroke-miterlimit="10" stroke-width="1"/>
    <path id="Path_227" data-name="Path 227" d="M770.055,63.8s-.9,11.027-6.955,16.172" transform="translate(-741.556 -27.723)" fill="none" stroke="#444053" stroke-miterlimit="10" stroke-width="1"/>
    <path id="Path_228" data-name="Path 228" d="M736.6,83.8s8.143.057,10.065-2.6" transform="translate(-730.041 -35.284)" fill="none" stroke="#444053" stroke-miterlimit="10" stroke-width="1"/>
  </g>
  <ellipse id="Ellipse_55" data-name="Ellipse 55" cx="123.271" cy="8.765" rx="123.271" ry="8.765" transform="translate(25.375 406.738)" fill="#38d39f" opacity="0.1"/>
  <path id="Path_229" data-name="Path 229" d="M266.487,430.583c1.7-3.053,3.732-5.937,5.372-8.991,1.47-2.827,2.658-5.824,4.015-8.708,2.318-4.976,5.146-9.669,7.747-14.532,1.7-3.167,3.336-6.616,3-10.235-.283-3.393-2.318-6.333-3.053-9.613-3.11-13.458-10.687-25.842-15.267-38.847-1.188-3.28-2.318-6.616-3.789-9.839-2.827-6.107-6.786-11.649-10.744-17.133a43.218,43.218,0,0,0-4.75-5.881c-1.414-1.414-3-2.658-4.3-4.184-2.658-3.167-3.9-7.747-7.238-10.178-.057.17-.113.283-.17.452-2.375-6.05-10.348-10.065-14.985-15.1a77.977,77.977,0,0,1-7.408-9.783l-10.065-14.589c-1.753-2.488-3.506-5.089-4.184-8.086-.848-3.619-.057-7.464-.9-11.083a14.1,14.1,0,0,0-3.11-5.881.432.432,0,0,0,.283-.113c1.923-.509,3.958-.622,5.881-1.074,4.184-1.018,7.747-3.676,11.931-4.693,2.092-.566,4.354-.679,6.277-1.7a5.209,5.209,0,0,0,2.432-5.542c-1.357-7.068,2.431-14.306,1.753-21.488-.17-1.979-.679-3.958-1.018-5.881a60.213,60.213,0,0,1-.339-13.91,29.861,29.861,0,0,1,4.58-5.711c2.545-2.432,5.6-4.524,7.351-7.577a14.847,14.847,0,0,0,1.527-9.1c-.283-2.262-1.074-4.637-2.827-5.994a7.119,7.119,0,0,0-6.5-.735c-.283.113-.565.226-.9.339a7.46,7.46,0,0,0-5.824-.339,17.817,17.817,0,0,0-5.711,3.619,12.632,12.632,0,0,0-2.658,2.827,16.773,16.773,0,0,0-1.81,5.768,56.968,56.968,0,0,1-3.845,11.2c-.283.622-1.131,1.753-1.81,2.827l-1.244-.339c-.509,5.033-4.75,8.765-7.294,13.062-1.244,2.092-2.149,4.411-3.28,6.616a66.837,66.837,0,0,1-4.3,6.9c-1.527,2.262-3.053,4.524-4.58,6.729a101.1,101.1,0,0,1-6.22,8.425c-2.092-.17-4.128-.339-6.22-.339a52.95,52.95,0,0,0-10.348.9,19.6,19.6,0,0,1-.339-3.619V209.2c0-.283.057-.622.057-1.018a20.943,20.943,0,0,0,5.768-29.008,21.345,21.345,0,0,0-6.729-6.39c.113-.622.17-1.3.226-1.923v-1.131a1.924,1.924,0,0,0-.057-.565c-.057-.4-.113-.735-.17-1.131-.057-.17-.113-.339-.17-.565a8.011,8.011,0,0,0-.452-1.018.055.055,0,0,0-.057-.057c-.057-.113-.17-.226-.226-.339s-.057-.113-.113-.113c-.057-.057-.113-.17-.17-.226l-.17-.17a.78.78,0,0,1-.17-.226l-.17-.17-.226-.17-.17-.113-.226-.17-.226-.113-.226-.113c-.057-.057-.17-.057-.226-.113l-.226-.113-.226-.113-.226-.113-.226-.113-.226-.113-.283-.113-.17-.057-.283-.113-.17-.057-.339-.113-.17-.057-.339-.113-.113-.057-.339-.113h-.113l-.4-.113h-.057l-.622-.113c-2.488-.509-4.976-.961-7.464-1.3a17.4,17.4,0,0,0-6.164-.113c-2.771.622-5.146,2.488-7.747,3.676-3.11,1.414-6.5,1.753-9.783,2.545s-6.672,2.092-8.765,4.75c-1.583,2.036-2.205,4.693-2.658,7.238-3.9,21.261.283,43.145,1.074,64.746.339,8.425-.057,17.416-4.863,24.315l13.91-.339c.679,0,1.357-.057,2.036-.057s1.357-.113,2.036-.17a13.327,13.327,0,0,0,5.033-1.527,8.436,8.436,0,0,0,1.979-1.527c1.866-1.923,2.884-4.693,3.845-7.294.339-.848.622-1.753.9-2.658.113-.4.226-.735.339-1.131l.057-.17.17.057a34.807,34.807,0,0,0,1.866,3.11,69.211,69.211,0,0,0,8.538,9.669c6.05,5.994,12.271,12.158,19.848,16,2.545,1.3,5.372,2.375,7.294,4.524.961,1.018,1.809,2.375,3.167,2.714a20.479,20.479,0,0,1,2.6.339c1.187.509,1.64,1.923,2.149,3.11s1.809,2.375,2.94,1.866a5.9,5.9,0,0,0,2.205,5.881,3.909,3.909,0,0,1,1.414,1.3,4.849,4.849,0,0,1,.283,1.527,5.866,5.866,0,0,0,2.149,3.675c-1.131,1.81-.226,4.467-.17,6.729a23.894,23.894,0,0,1-1.074,5.6c-1.244,5.485-.565,11.2.452,16.681.565,3.053,1.3,6.164,3.28,8.539.622.735,1.414,1.414,2.092,2.149a19.439,19.439,0,0,1,3.167,4.863,38.261,38.261,0,0,1,3.449,11.083,21.255,21.255,0,0,0,1.64,5.6c1.244,2.714.113,6.05,1.187,8.765a34.55,34.55,0,0,1,1.753,3.562c.452,1.866-.565,3.789-.848,5.655-.622,4.467,2.6,8.652,2.884,13.175a.815.815,0,0,1-.17.735c-.226.226-.622.226-.9.4-.565.283-.735,1.018-.9,1.7s-.679,1.357-1.3,1.131c-9.274,4.976-18.886,9.556-28.217,14.532l-4.241,2.262-22.675,12.1a1.63,1.63,0,0,0-.9,1.47c0,.283.057.565.057.848-1.583.4-3.11.848-4.184,1.074-.452.113-.9.17-1.357.283a1.7,1.7,0,0,0,.226-.566,1.157,1.157,0,0,0-1.018-1.131,3.228,3.228,0,0,0-1.64.226,23.259,23.259,0,0,1-3.958.735,33,33,0,0,0-4.75.565,5.371,5.371,0,0,0-3.675,2.827,6.093,6.093,0,0,0-.4,2.658,39.879,39.879,0,0,0,1.244,10.348.862.862,0,0,0,.4.679c.226.057.452,0,.622.113a.879.879,0,0,1,.339.452,22.058,22.058,0,0,1,1.414,6.9c.4,3.506.848,6.955,1.414,10.461.339,2.036.735,4.128,2.092,5.711a9.576,9.576,0,0,0,5.937,2.771c4.693.622,9.387-.339,13.967-1.3a4.17,4.17,0,0,0,2.375-1.074,2.718,2.718,0,0,0,.565-1.866c-.113-2.318-2.205-3.958-4.128-5.259L153,467.9a1.18,1.18,0,0,1-.565-1.3l.17-3.449h-.509a11.984,11.984,0,0,1,3.28-6.39c1.244-1.131,2.827-1.923,4.128-2.94a10.356,10.356,0,0,0,5.711,2.092c3.393-4.58,8.2-7.69,12.949-10.744,3.9-2.431,7.916-4.693,12.044-6.729,3.336-1.64,6.729-3.223,10.178-4.637,4.863-2.036,9.839-3.845,14.759-5.655a56.525,56.525,0,0,0,9.669-4.128c7.916-4.58,13.515-13.684,12.44-22.845-1.357-11.535,1.527-23.58,1.357-35.172a35.558,35.558,0,0,0-1.187-10.065,5.987,5.987,0,0,1,.679.565c2.036,1.923,2.545,4.976,4.524,7.181,1.527,1.7,3.845,2.827,4.806,4.92.735,1.583.622,3.789,2.092,4.693a9.913,9.913,0,0,0,1.357.622,4.117,4.117,0,0,1,1.244,1.357c1.583,2.262,3.167,4.637,3.336,7.351.057,1.074,0,2.318.792,3.054.226.226.509.339.622.622.226.565-.4,1.187-.509,1.809-.17.848.678,1.527,1.244,2.262a3.565,3.565,0,0,1,0,4.184c-4.637,6.05-5.485,14.137-9.556,20.583-1.414,2.205-2.94,4.354-4.3,6.559-4.184,6.9-6.277,14.872-8.312,22.675a12.634,12.634,0,0,0,3.449,3.9,19.341,19.341,0,0,1-3.9,7.181,17.586,17.586,0,0,0-1.3,1.583,4.092,4.092,0,0,0-1.244-.961,44.63,44.63,0,0,0-1.131,9.9c0,2.205.283,4.693,2.092,5.937a6.953,6.953,0,0,0,2.318.961l3.9,1.131a3.97,3.97,0,0,0,2.149.226c.452-.113.848-.4,1.357-.509a3.541,3.541,0,0,1,1.527.17l3.336.961a18.061,18.061,0,0,1,3.336,1.188c.961.452,1.866,1.074,2.771,1.583a30.22,30.22,0,0,0,4.863,1.979l5.768,1.979a21.234,21.234,0,0,0,5.033,1.3c1.187.113,2.375,0,3.562.226.9.17,1.753.452,2.658.565a6.993,6.993,0,0,0,4.184-1.244,3.612,3.612,0,0,0,1.187-1.074c.848-1.3.113-3.054-.735-4.411a17.1,17.1,0,0,0-5.994-6.22c-1.018-.565-2.149-.961-3.167-1.527-3-1.47-5.259-3.9-8.143-5.6a1.961,1.961,0,0,0-2.431.17c-2.375-1.527-4.92-3.054-6.22-5.542a12.6,12.6,0,0,1-1.131-3.845c1.357.339,2.658.566,4.015.792C259.758,446.925,262.189,438.273,266.487,430.583Zm-54.341-241.17c-.113.622-.226,1.3-.4,1.923-1.131,5.315-2.771,11.253-6.446,15.211a15.841,15.841,0,0,1-4.184,2.771l-.4.226C203.381,202.362,207.622,195.746,212.146,189.413Z" transform="translate(-46.423 -62.749)" fill="url(#linear-gradient)"/>
  <path id="Path_230" data-name="Path 230" d="M297.715,158.612a17.166,17.166,0,0,1,1.81-5.768,12.633,12.633,0,0,1,2.658-2.827,17.3,17.3,0,0,1,5.711-3.562,7.139,7.139,0,0,1,6.5.735c1.81,1.357,2.545,3.732,2.827,5.994a14.673,14.673,0,0,1-1.527,9.047c-1.753,3.053-4.806,5.089-7.351,7.521a29.061,29.061,0,0,0-4.806,5.994,17.612,17.612,0,0,1-2.205,3.167,4.192,4.192,0,0,1-3.449,1.414,6.02,6.02,0,0,1-2.827-1.64c-1.074-.9-3.845-2.545-3.958-4.015-.057-1.187,2.149-3.845,2.658-4.976A52.93,52.93,0,0,0,297.715,158.612Z" transform="translate(-126.508 -63.444)" fill="#fbbebe"/>
  <path id="Path_231" data-name="Path 231" d="M297.715,158.612a17.166,17.166,0,0,1,1.81-5.768,12.633,12.633,0,0,1,2.658-2.827,17.3,17.3,0,0,1,5.711-3.562,7.139,7.139,0,0,1,6.5.735c1.81,1.357,2.545,3.732,2.827,5.994a14.673,14.673,0,0,1-1.527,9.047c-1.753,3.053-4.806,5.089-7.351,7.521a29.061,29.061,0,0,0-4.806,5.994,17.612,17.612,0,0,1-2.205,3.167,4.192,4.192,0,0,1-3.449,1.414,6.02,6.02,0,0,1-2.827-1.64c-1.074-.9-3.845-2.545-3.958-4.015-.057-1.187,2.149-3.845,2.658-4.976A52.93,52.93,0,0,0,297.715,158.612Z" transform="translate(-126.508 -63.444)" opacity="0.1"/>
  <path id="Path_232" data-name="Path 232" d="M197.8,236.87a52.379,52.379,0,0,1,13.91-1.7c7.8.113,15.89,1.979,23.3-.4a40.854,40.854,0,0,0,5.6-2.431,14.805,14.805,0,0,0,4.184-2.714c3.676-3.9,5.315-9.839,6.446-15.1a101.856,101.856,0,0,0,1.753-16.059c1.923.9,3.958,1.809,6.107,1.583s4.241-1.809,4.241-3.958a63.232,63.232,0,0,0,.283,14.985c.339,1.979.848,3.9,1.018,5.881.622,7.125-3.11,14.306-1.753,21.318a5.209,5.209,0,0,1-2.431,5.542c-1.923,1.018-4.185,1.188-6.277,1.7-4.128,1.074-7.747,3.675-11.931,4.693-1.923.452-3.958.565-5.881,1.074-2.771.735-5.259,2.318-8.03,2.771-2.092.4-4.241.113-6.39.283-1.866.17-3.676.622-5.485.679-4.524.113-8.821-2.431-11.818-5.824S199.666,241,197.8,236.87Z" transform="translate(-85.966 -85.213)" fill="#38d39f"/>
  <path id="Path_233" data-name="Path 233" d="M197.8,236.87a52.379,52.379,0,0,1,13.91-1.7c7.8.113,15.89,1.979,23.3-.4a40.854,40.854,0,0,0,5.6-2.431,14.805,14.805,0,0,0,4.184-2.714c3.676-3.9,5.315-9.839,6.446-15.1a101.856,101.856,0,0,0,1.753-16.059c1.923.9,3.958,1.809,6.107,1.583s4.241-1.809,4.241-3.958a63.232,63.232,0,0,0,.283,14.985c.339,1.979.848,3.9,1.018,5.881.622,7.125-3.11,14.306-1.753,21.318a5.209,5.209,0,0,1-2.431,5.542c-1.923,1.018-4.185,1.188-6.277,1.7-4.128,1.074-7.747,3.675-11.931,4.693-1.923.452-3.958.565-5.881,1.074-2.771.735-5.259,2.318-8.03,2.771-2.092.4-4.241.113-6.39.283-1.866.17-3.676.622-5.485.679-4.524.113-8.821-2.431-11.818-5.824S199.666,241,197.8,236.87Z" transform="translate(-85.966 -85.213)" opacity="0.1"/>
  <path id="Path_234" data-name="Path 234" d="M520.117,273.113a38.9,38.9,0,1,1-38.9,38.9h0a38.9,38.9,0,0,1,38.9-38.9m0-9.613a48.517,48.517,0,1,0,48.517,48.517h0A48.507,48.507,0,0,0,520.117,263.5Z" transform="translate(-204.942 -114.501)" fill="#3f3d56"/>
  <rect id="Rectangle_48" data-name="Rectangle 48" width="11.366" height="11.988" transform="translate(307.993 137.634)" fill="#3f3d56"/>
  <rect id="Rectangle_49" data-name="Rectangle 49" width="11.988" height="11.366" transform="translate(333.484 152.74) rotate(-59.003)" fill="#3f3d56"/>
  <rect id="Rectangle_50" data-name="Rectangle 50" width="11.988" height="11.366" transform="translate(353.428 167.934) rotate(-29)" fill="#3f3d56"/>
  <rect id="Rectangle_51" data-name="Rectangle 51" width="11.366" height="11.988" transform="translate(353.597 226.299) rotate(-57.999)" fill="#3f3d56"/>
  <rect id="Rectangle_52" data-name="Rectangle 52" width="11.366" height="11.988" transform="translate(260.931 172.046) rotate(-61)" fill="#3f3d56"/>
  <rect id="Rectangle_53" data-name="Rectangle 53" width="11.988" height="11.366" transform="translate(260.583 222.971) rotate(-32.001)" fill="#3f3d56"/>
  <rect id="Rectangle_54" data-name="Rectangle 54" width="11.366" height="11.988" transform="translate(280.962 148.38) rotate(-30.997)" fill="#3f3d56"/>
  <rect id="Rectangle_55" data-name="Rectangle 55" width="11.366" height="11.988" transform="translate(307.993 245.467)" fill="#3f3d56"/>
  <rect id="Rectangle_56" data-name="Rectangle 56" width="11.366" height="11.988" transform="translate(333.487 242.322) rotate(-30.997)" fill="#3f3d56"/>
  <rect id="Rectangle_57" data-name="Rectangle 57" width="11.988" height="11.366" transform="translate(280.907 246.701) rotate(-59.003)" fill="#3f3d56"/>
  <rect id="Rectangle_58" data-name="Rectangle 58" width="13.797" height="10.178" transform="translate(254.104 192.766)" fill="#3f3d56"/>
  <rect id="Rectangle_59" data-name="Rectangle 59" width="13.797" height="10.178" transform="translate(362.504 192.766)" fill="#3f3d56"/>
  <path id="Path_235" data-name="Path 235" d="M680.017,149.213a38.9,38.9,0,1,1-38.9,38.9h0a38.9,38.9,0,0,1,38.9-38.9m0-9.613a48.517,48.517,0,1,0,48.517,48.517h0A48.507,48.507,0,0,0,680.017,139.6Z" transform="translate(-274.425 -60.661)" fill="#3f3d56"/>
  <rect id="Rectangle_60" data-name="Rectangle 60" width="11.366" height="11.988" transform="translate(398.41 67.573)" fill="#3f3d56"/>
  <rect id="Rectangle_61" data-name="Rectangle 61" width="11.988" height="11.366" transform="translate(423.911 82.687) rotate(-59.003)" fill="#3f3d56"/>
  <rect id="Rectangle_62" data-name="Rectangle 62" width="11.988" height="11.366" transform="translate(443.85 97.881) rotate(-29)" fill="#3f3d56"/>
  <rect id="Rectangle_63" data-name="Rectangle 63" width="11.366" height="11.988" transform="translate(443.977 156.22) rotate(-57.999)" fill="#3f3d56"/>
  <rect id="Rectangle_64" data-name="Rectangle 64" width="11.366" height="11.988" transform="translate(351.352 101.995) rotate(-61)" fill="#3f3d56"/>
  <rect id="Rectangle_65" data-name="Rectangle 65" width="11.988" height="11.366" transform="translate(351 152.92) rotate(-32.001)" fill="#3f3d56"/>
  <rect id="Rectangle_66" data-name="Rectangle 66" width="11.366" height="11.988" transform="translate(371.391 78.325) rotate(-30.997)" fill="#3f3d56"/>
  <rect id="Rectangle_67" data-name="Rectangle 67" width="11.366" height="11.988" transform="translate(398.41 175.407)" fill="#3f3d56"/>
  <rect id="Rectangle_68" data-name="Rectangle 68" width="11.366" height="11.988" transform="translate(423.914 172.268) rotate(-30.997)" fill="#3f3d56"/>
  <rect id="Rectangle_69" data-name="Rectangle 69" width="11.988" height="11.366" transform="translate(371.358 176.594) rotate(-59.003)" fill="#3f3d56"/>
  <rect id="Rectangle_70" data-name="Rectangle 70" width="13.797" height="10.178" transform="translate(344.522 122.705)" fill="#3f3d56"/>
  <rect id="Rectangle_71" data-name="Rectangle 71" width="13.797" height="10.178" transform="translate(452.921 122.705)" fill="#3f3d56"/>
  <path id="Path_236" data-name="Path 236" d="M360.073,143.913h1.357a38.915,38.915,0,0,1-1.3,77.808h-1.357a38.915,38.915,0,0,1,1.3-77.808m0-9.613h0a48.531,48.531,0,0,0-1.7,97.033h1.7a48.531,48.531,0,0,0,1.64-97.033Z" transform="translate(-135.373 -58.358)" fill="#3f3d56"/>
  <rect id="Rectangle_72" data-name="Rectangle 72" width="11.988" height="11.366" transform="translate(219.205 76.376) rotate(-88.01)" fill="#3f3d56"/>
  <rect id="Rectangle_73" data-name="Rectangle 73" width="11.988" height="11.366" transform="translate(244.612 80.373) rotate(-57.011)" fill="#3f3d56"/>
  <rect id="Rectangle_74" data-name="Rectangle 74" width="11.988" height="11.366" transform="translate(263.971 96.2) rotate(-27.008)" fill="#3f3d56"/>
  <rect id="Rectangle_75" data-name="Rectangle 75" width="11.366" height="11.988" transform="matrix(0.559, -0.829, 0.829, 0.559, 262.157, 154.517)" fill="#3f3d56"/>
  <rect id="Rectangle_76" data-name="Rectangle 76" width="11.366" height="11.988" transform="matrix(0.515, -0.857, 0.857, 0.515, 171.43, 97.114)" fill="#3f3d56"/>
  <rect id="Rectangle_77" data-name="Rectangle 77" width="12.044" height="11.422" transform="translate(168.44 148.914) rotate(-29.888)" fill="#3f3d56"/>
  <rect id="Rectangle_78" data-name="Rectangle 78" width="11.366" height="11.988" transform="translate(192.254 74.119) rotate(-29.013)" fill="#3f3d56"/>
  <rect id="Rectangle_79" data-name="Rectangle 79" width="11.988" height="11.366" transform="translate(215.464 184.094) rotate(-88.01)" fill="#3f3d56"/>
  <rect id="Rectangle_80" data-name="Rectangle 80" width="11.366" height="11.988" transform="translate(241.511 169.85) rotate(-29.013)" fill="#3f3d56"/>
  <rect id="Rectangle_81" data-name="Rectangle 81" width="11.988" height="11.366" transform="translate(188.864 172.427) rotate(-57.011)" fill="#3f3d56"/>
  <rect id="Rectangle_82" data-name="Rectangle 82" width="10.178" height="13.797" transform="translate(163.54 127.732) rotate(-88.01)" fill="#3f3d56"/>
  <rect id="Rectangle_83" data-name="Rectangle 83" width="10.178" height="13.797" transform="translate(271.86 131.472) rotate(-88.01)" fill="#3f3d56"/>
  <path id="Path_237" data-name="Path 237" d="M168.231,657.758A12.3,12.3,0,0,0,164.216,659a9.429,9.429,0,0,0-3.506,4.693c-1.866,4.637-2.262,9.726-2.318,14.7-.057,4.015.057,8.143,1.527,11.875a7.52,7.52,0,0,0,1.979,3.11,7.1,7.1,0,0,0,2.714,1.3c2.149.565,4.637.565,6.39-.792,1.979-1.527,2.432-4.241,2.884-6.672.565-3.28,1.357-6.786,3.789-9.1,1.81-1.7,4.411-2.545,5.768-4.637,1.583-2.488.735-5.768-.283-8.538-.848-2.432-2.149-7.294-4.693-8.539S170.832,657.249,168.231,657.758Z" transform="translate(-68.837 -285.061)" fill="#fbbebe"/>
  <path id="Path_238" data-name="Path 238" d="M335.564,676.376a18.031,18.031,0,0,1-3.958,7.294c-1.131,1.3-2.545,2.827-1.923,4.467a3.768,3.768,0,0,0,1.074,1.414c8.312,8.086,19.9,12.044,31.383,13.515a.962.962,0,0,0,.566,0c.339-.169.4-.565.452-.961a12.929,12.929,0,0,0,0-3.619c-.565-2.827-3.054-4.806-5.428-6.333s-5.033-3.054-6.39-5.6c-1.7-3.167-.961-7.238-2.94-10.178-1.64-2.375-4.637-3.393-7.464-3.845-1.018-.17-3.11-1.244-3.958-.735C336.073,672.3,335.9,675.415,335.564,676.376Z" transform="translate(-143.208 -291.861)" fill="#fbbebe"/>
  <path id="Path_239" data-name="Path 239" d="M161.929,657.615a1.157,1.157,0,0,0-1.018-1.131,3.228,3.228,0,0,0-1.64.226,23.27,23.27,0,0,1-3.958.735,33.011,33.011,0,0,0-4.75.565,5.37,5.37,0,0,0-3.675,2.827,7.061,7.061,0,0,0-.4,2.657,39.458,39.458,0,0,0,1.244,10.292,1.049,1.049,0,0,0,.4.679c.226.057.452,0,.622.113a.879.879,0,0,1,.339.452,21.735,21.735,0,0,1,1.414,6.9c.4,3.449.848,6.9,1.414,10.348.339,1.979.735,4.128,2.092,5.655a9.225,9.225,0,0,0,5.937,2.714c4.693.622,9.387-.339,14.024-1.3a4.171,4.171,0,0,0,2.375-1.074,2.719,2.719,0,0,0,.565-1.866c-.113-2.318-2.205-3.958-4.128-5.2l-2.658-1.81a1.521,1.521,0,0,1-.452-.4,1.482,1.482,0,0,1-.113-.848l.17-3.393a9.766,9.766,0,0,0-8.482,5.259c-.339.735-.735,1.583-1.47,1.866a1.98,1.98,0,0,1-2.318-1.414,6.706,6.706,0,0,1,.057-3c1.527-8.312,1.187-16.851,2.149-25.22a5.468,5.468,0,0,1,.848-2.658C160.968,658.973,161.816,658.407,161.929,657.615Z" transform="translate(-63.666 -285.258)" fill="#3f3d56"/>
  <path id="Path_240" data-name="Path 240" d="M355.752,706.2a21.593,21.593,0,0,1,1.357,1.81,1.6,1.6,0,0,1-.283,2.036,1.867,1.867,0,0,1-1.244.113,41.154,41.154,0,0,1-22.336-10.122,15.131,15.131,0,0,1-2.714-3c-.735-1.131-1.357-2.431-2.6-2.94a44.13,44.13,0,0,0-1.131,9.839c0,2.149.283,4.693,2.092,5.937a8.368,8.368,0,0,0,2.318.961l3.9,1.074a3.968,3.968,0,0,0,2.149.226c.452-.113.848-.4,1.357-.509a3.539,3.539,0,0,1,1.527.17l3.336.961a23.131,23.131,0,0,1,3.336,1.131c.961.452,1.866,1.018,2.771,1.526a30.2,30.2,0,0,0,4.863,1.979l5.881,2.036a21.964,21.964,0,0,0,5.033,1.3c1.187.113,2.375,0,3.562.226.9.169,1.753.452,2.658.566a7,7,0,0,0,4.184-1.244,3.613,3.613,0,0,0,1.188-1.075c.848-1.3.113-3.053-.735-4.41a17.391,17.391,0,0,0-5.994-6.164c-1.018-.565-2.149-.961-3.167-1.527-3-1.47-5.315-3.9-8.143-5.542C356.2,700.037,354.508,704.109,355.752,706.2Z" transform="translate(-142.022 -301.612)" fill="#3f3d56"/>
  <path id="Path_241" data-name="Path 241" d="M199.9,273.5a24.721,24.721,0,0,1-10.461,4.071,52.24,52.24,0,0,1-5.937.339,149.364,149.364,0,0,1-24.6-2.036c3.223-3.562,6.5-7.351,7.747-12.044a18.771,18.771,0,0,0,.339-7.521,55.432,55.432,0,0,0-2.318-9.5,63.988,63.988,0,0,0,10.4-.283c1.979-.226,6.786-1.979,8.482-.622,1.583,1.244.4,5.711.339,7.8v.226a25.307,25.307,0,0,0,1.979,9.1C188.474,268.583,193.789,273.106,199.9,273.5Z" transform="translate(-69.063 -106.634)" fill="#fbbebe"/>
  <path id="Path_242" data-name="Path 242" d="M188.482,253.611a20.671,20.671,0,0,1-16.964,2.6,55.424,55.424,0,0,0-2.318-9.5,63.988,63.988,0,0,0,10.4-.283c1.979-.226,6.786-1.979,8.482-.622C189.726,247.108,188.539,251.575,188.482,253.611Z" transform="translate(-73.538 -106.591)" opacity="0.1"/>
  <ellipse id="Ellipse_56" data-name="Ellipse 56" cx="20.696" cy="20.696" rx="20.696" ry="20.696" transform="translate(82.939 108.06)" fill="#fbbebe"/>
  <path id="Path_243" data-name="Path 243" d="M256.295,354.878a9.653,9.653,0,0,1-4.693,8.312,18.106,18.106,0,0,1-5.089,1.753c-9.443,2.262-19.169,4.128-28.9,3.562a14.987,14.987,0,0,1-6.107-1.3,6.7,6.7,0,0,1-3.789-4.75,4.849,4.849,0,0,0-.283-1.527,5.176,5.176,0,0,0-1.414-1.3,5.8,5.8,0,0,1-2.205-5.824c-1.187.509-2.431-.679-3-1.81s-1.018-2.6-2.205-3.053a13.1,13.1,0,0,0-2.6-.339c-1.357-.339-2.205-1.7-3.167-2.714-1.979-2.092-4.75-3.167-7.294-4.467-7.634-3.845-13.854-9.9-19.9-15.889a62.584,62.584,0,0,1-8.538-9.613,34.8,34.8,0,0,1-1.866-3.11,77.685,77.685,0,0,1-4.75-10.914,12.668,12.668,0,0,1-1.244-6.22c.057-.17.057-.4.113-.565a11.849,11.849,0,0,1,1.866-3.789c2.092-3.11,4.863-5.994,8.482-6.955s7.238.226,10.913.961a27.528,27.528,0,0,0,3.676.565c3.9.283,7.747-.792,11.535-1.81l4.128-1.131c2.036-.565,3.11-3.053,5.146-3.506a6.576,6.576,0,0,1,2.771.17,39.675,39.675,0,0,1,12.214,3.958,13.659,13.659,0,0,1,2.375,1.64,14.653,14.653,0,0,1,5.485,8.143c.848,3.562.057,7.408.9,10.97.679,2.94,2.488,5.541,4.241,8.03l10.122,14.419a95.112,95.112,0,0,0,7.408,9.669C246.06,342.382,256.125,346.849,256.295,354.878Z" transform="translate(-64.844 -121.399)" fill="#38d39f"/>
  <path id="Path_244" data-name="Path 244" d="M285.715,158.612a17.167,17.167,0,0,1,1.809-5.768,12.634,12.634,0,0,1,2.658-2.827,17.3,17.3,0,0,1,5.711-3.562,7.139,7.139,0,0,1,6.5.735c1.81,1.357,2.545,3.732,2.827,5.994a14.672,14.672,0,0,1-1.527,9.047c-1.753,3.053-4.806,5.089-7.351,7.521a29.061,29.061,0,0,0-4.806,5.994,17.612,17.612,0,0,1-2.205,3.167,4.192,4.192,0,0,1-3.449,1.414,6.02,6.02,0,0,1-2.827-1.64c-1.074-.9-3.845-2.545-3.958-4.015-.057-1.187,2.149-3.845,2.658-4.976A47.228,47.228,0,0,0,285.715,158.612Z" transform="translate(-121.293 -63.444)" fill="#fbbebe"/>
  <path id="Path_245" data-name="Path 245" d="M316.689,511.376c-2.6,4.806-5.428,9.5-7.747,14.419-1.357,2.884-2.545,5.881-4.015,8.652-1.64,3.053-3.675,5.937-5.372,8.934-4.3,7.633-6.729,16.285-8.934,24.767a49.125,49.125,0,0,1-17.642-6.22c-.339-.226-.735-.452-1.074-.679a12.374,12.374,0,0,1-3.562-3.9c2.036-7.747,4.184-15.663,8.369-22.505,1.357-2.262,2.94-4.354,4.3-6.5,4.071-6.39,4.92-14.476,9.556-20.413a3.565,3.565,0,0,0,0-4.185c-.566-.679-1.414-1.357-1.244-2.205.113-.622.792-1.187.509-1.81a1.643,1.643,0,0,0-.622-.622c-.792-.735-.679-1.979-.735-3.054-.17-2.714-1.809-5.089-3.393-7.294a5.645,5.645,0,0,0-1.244-1.357,9.945,9.945,0,0,0-1.357-.622c-1.47-.9-1.357-3.11-2.092-4.693-.9-2.092-3.28-3.167-4.806-4.919-1.979-2.149-2.431-5.2-4.524-7.125a5.983,5.983,0,0,0-.679-.565,34.777,34.777,0,0,1,1.188,9.952c.226,11.535-2.714,23.467-1.357,34.946,1.074,9.1-4.524,18.151-12.44,22.675a58.876,58.876,0,0,1-9.726,4.071c-4.976,1.753-9.9,3.562-14.815,5.6-3.449,1.414-6.842,2.94-10.178,4.637A125.147,125.147,0,0,0,211,558.027c-4.806,3.054-9.556,6.107-12.949,10.687-3.28-.113-6.277-2.092-8.369-4.637a31.288,31.288,0,0,1-4.58-8.708,24.894,24.894,0,0,1-2.205-8.2,1.635,1.635,0,0,1,.961-1.414l22.732-12.044,4.241-2.262c9.33-4.919,18.943-9.5,28.217-14.419.622.17,1.131-.509,1.3-1.131s.339-1.414.9-1.64c.283-.17.679-.113.9-.4a.9.9,0,0,0,.17-.735c-.283-4.524-3.562-8.652-2.884-13.119.283-1.922,1.244-3.789.848-5.655-.283-1.3-1.244-2.319-1.753-3.563-1.131-2.714,0-6.05-1.244-8.708a20.867,20.867,0,0,1-1.64-5.542,37.378,37.378,0,0,0-3.449-11.027,21.445,21.445,0,0,0-3.167-4.806c-.679-.735-1.47-1.414-2.092-2.149-1.979-2.318-2.714-5.485-3.28-8.482-1.018-5.485-1.7-11.14-.452-16.568a23.894,23.894,0,0,0,1.074-5.6c0-2.488-1.131-5.429.622-7.238a6.062,6.062,0,0,1,2.545-1.3,76.259,76.259,0,0,1,12.327-2.262l19-2.488a17.484,17.484,0,0,0,6.333-1.64,12.733,12.733,0,0,0,5.315-6.785c3.336,2.431,4.58,6.955,7.238,10.122,1.3,1.527,2.884,2.771,4.3,4.185a43.206,43.206,0,0,1,4.75,5.881c3.958,5.428,7.916,10.913,10.744,17.02,1.47,3.167,2.6,6.446,3.789,9.783,4.637,12.949,12.157,25.22,15.324,38.565.792,3.28,2.771,6.22,3.053,9.556C320.025,504.817,318.385,508.21,316.689,511.376Z" transform="translate(-79.492 -176.509)" fill="#3f3d56"/>
  <path id="Path_246" data-name="Path 246" d="M243.279,399.807a5.965,5.965,0,0,0-.679,2.827c.452-2.092,3.28-3.28,3.506-5.315.056-.961-.113-.9-.679-.4C244.466,397.658,244.07,398.958,243.279,399.807Z" transform="translate(-105.433 -172.321)" opacity="0.1"/>
  <path id="Path_247" data-name="Path 247" d="M257.953,412.972a4.036,4.036,0,0,0-1.3,1.922,5.018,5.018,0,0,0-.283,3.393,1.608,1.608,0,0,0,.679-1.187,8.913,8.913,0,0,1,.9-1.979c.339-.565,1.923-1.809,1.923-2.431C259.819,411.784,258.349,412.633,257.953,412.972Z" transform="translate(-111.343 -179.153)" opacity="0.1"/>
  <path id="Path_248" data-name="Path 248" d="M211,285.113A20.069,20.069,0,0,1,206.65,288c-4.128,2.092-8.652,3.167-12.779,5.2a62.311,62.311,0,0,0-5.937,3.449l-12.271,7.8a13.627,13.627,0,0,0-2.714,2.036c-1.47,1.583-1.47,4.354-2.827,5.994a8.43,8.43,0,0,1-5.937,2.771,20.082,20.082,0,0,1-6.616-1.131c-1.3-.4-2.545-.848-3.789-1.357a17.74,17.74,0,0,1-3.619-2.092,10.4,10.4,0,0,1-4.3-6.786,13.3,13.3,0,0,1,.735-5.542,23.972,23.972,0,0,1,1.3-3.336,10.873,10.873,0,0,1,1.018-1.753c2.827-4.015,7.8-5.881,12.61-6.786,2.545-.509,5.089-.792,7.634-1.244a27.541,27.541,0,0,0,3.676.565c3.9.283,7.747-.792,11.535-1.809l4.128-1.131c2.036-.566,3.11-3.054,5.146-3.506a6.579,6.579,0,0,1,2.771.17,39.677,39.677,0,0,1,12.214,3.958C209.421,283.983,210.212,284.548,211,285.113Z" transform="translate(-63.376 -121.355)" opacity="0.1"/>
  <path id="Path_249" data-name="Path 249" d="M220.926,192.5c-.509,5.033-4.75,8.708-7.351,13.006-1.244,2.092-2.149,4.411-3.28,6.559a66.073,66.073,0,0,1-4.3,6.842l-4.58,6.673a73.562,73.562,0,0,1-8.878,11.2c-5.994,1.018-11.083,5.485-16.794,7.69-4.58,1.753-9.556,1.979-14.363,2.884s-9.783,2.827-12.61,6.786a17.4,17.4,0,0,0-2.375,5.089,13.177,13.177,0,0,0-.735,5.542,10.4,10.4,0,0,0,4.3,6.786A23.956,23.956,0,0,0,157.368,275a20.333,20.333,0,0,0,6.616,1.131,7.813,7.813,0,0,0,5.937-2.771c1.357-1.809,1.357-4.467,2.827-5.994a12.178,12.178,0,0,1,2.714-2.036l12.271-7.8c1.923-1.244,3.9-2.375,5.937-3.449,4.128-2.036,8.652-3.11,12.779-5.2s7.917-5.485,8.765-10.009c2.488-13.91,12.1-25.616,20.357-37.094-.283-.057-.17-.679-.283-.9a11.708,11.708,0,0,0-6.05-6.05A38.627,38.627,0,0,0,220.926,192.5Z" transform="translate(-63.29 -83.648)" fill="#38d39f"/>
  <path id="Path_250" data-name="Path 250" d="M160.515,185.3a7.653,7.653,0,0,0-.848-4.354c-1.357-2.262-4.241-3.054-6.786-3.619-2.488-.509-4.976-.961-7.464-1.3a17.689,17.689,0,0,0-6.22-.113c-2.827.622-5.146,2.488-7.747,3.676-3.11,1.357-6.5,1.753-9.839,2.488-3.28.792-6.672,2.036-8.765,4.75a16.028,16.028,0,0,0-2.658,7.181c-3.9,21.148.283,42.806,1.074,64.293.339,8.369-.057,17.3-4.863,24.2l13.91-.339c3.562-.113,7.408-.283,10.178-2.488,2.488-1.923,3.619-5.033,4.693-7.973a24.29,24.29,0,0,0,1.753-7.181c.226-5.033-2.658-10.009-1.7-14.985.679-3.732,3.393-6.729,6.277-9.16s6.107-4.524,8.425-7.521c4.184-5.259,4.976-12.5,4.467-19.169-.283-3.958-1.018-7.973-.679-11.931a14.952,14.952,0,0,1,3.167-8.369C159.158,190.676,160.289,189.036,160.515,185.3Z" transform="translate(-46.25 -76.339)" fill="#3f3d56"/>
  <path id="Path_251" data-name="Path 251" d="M159.61,182.262c-1.357-2.205-4.128-3.053-6.672-3.562a6.781,6.781,0,0,1,3.28,2.6,7.381,7.381,0,0,1,.848,4.354c-.17,3.732-1.357,5.372-3.562,8.03a14.953,14.953,0,0,0-3.167,8.369c-.339,3.958.339,7.973.679,11.931.509,6.729-.283,13.91-4.467,19.169-2.318,2.94-5.542,5.089-8.425,7.521s-5.6,5.429-6.277,9.161c-.9,4.976,1.923,9.952,1.7,14.985A26.678,26.678,0,0,1,131.789,272c-1.074,2.94-2.205,6.05-4.693,7.973-2.827,2.205-6.616,2.375-10.178,2.488l-9.839.283c-.226.339-.452.735-.679,1.074l13.91-.339c3.562-.113,7.408-.283,10.178-2.488,2.488-1.923,3.619-5.033,4.693-7.973a24.286,24.286,0,0,0,1.753-7.181c.226-5.033-2.658-10.009-1.7-14.985.679-3.732,3.393-6.729,6.277-9.161s6.107-4.524,8.425-7.521c4.184-5.259,4.976-12.5,4.467-19.169-.283-3.958-1.018-7.973-.679-11.931A14.952,14.952,0,0,1,156.9,194.7c2.205-2.658,3.393-4.3,3.562-8.03A7.314,7.314,0,0,0,159.61,182.262Z" transform="translate(-46.249 -77.652)" opacity="0.1"/>
  <path id="Path_252" data-name="Path 252" d="M363.021,538.492l-25.559,62.314a12.377,12.377,0,0,1-3.562-3.9c2.036-7.747,4.185-15.664,8.369-22.506,1.357-2.262,2.94-4.354,4.3-6.5,4.071-6.389,4.919-14.476,9.556-20.413a3.565,3.565,0,0,0,0-4.184c-.565-.679-1.414-1.357-1.244-2.205.113-.622.792-1.187.509-1.809a1.641,1.641,0,0,0-.622-.622c-.792-.735-.679-1.979-.735-3.054-.17-2.714-1.81-5.089-3.393-7.294a5.646,5.646,0,0,0-1.244-1.357,9.92,9.92,0,0,0-1.357-.622c-1.47-.9-1.357-3.11-2.092-4.693-.9-2.092-3.28-3.167-4.807-4.92-1.979-2.149-2.431-5.2-4.524-7.125l-.169-.452,1.979-12.044Z" transform="translate(-145.107 -216.008)" opacity="0.1"/>
</svg>
